<mxfile host="app.diagrams.net" agent="Mozilla/5.0 (Windows NT 10.0; Win64; x64) AppleWebKit/537.36 (KHTML, like Gecko) Chrome/128.0.0.0 Safari/537.36" version="24.7.15" pages="2">
  <diagram id="LPMYsQMaYAMHPF2iOHTb" name="Page-3">
    <mxGraphModel dx="3010" dy="2325" grid="1" gridSize="10" guides="1" tooltips="1" connect="1" arrows="1" fold="1" page="1" pageScale="1" pageWidth="827" pageHeight="1169" math="0" shadow="0">
      <root>
        <mxCell id="0" />
        <mxCell id="1" parent="0" />
        <mxCell id="jFlGcLo877YmEgPMVWM7-1" value="&lt;font style=&quot;font-size: 16px;&quot;&gt;&lt;span style=&quot;white-space: pre; font-size: 16px;&quot;&gt;&#x9;&lt;/span&gt;&lt;span style=&quot;white-space: pre; font-size: 16px;&quot;&gt;&#x9;&lt;/span&gt;&amp;nbsp; Azure Suscription - Compensar&lt;/font&gt;" style="rounded=1;whiteSpace=wrap;html=1;verticalAlign=top;align=left;fontStyle=1;strokeColor=#6c8ebf;fillColor=#dae8fc;container=0;glass=0;shadow=1;spacing=26;spacingTop=0;spacingLeft=-13;fontSize=16;gradientColor=#7ea6e0;" vertex="1" parent="1">
          <mxGeometry x="551" y="-109.43" width="1266" height="999.43" as="geometry" />
        </mxCell>
        <mxCell id="jFlGcLo877YmEgPMVWM7-2" value="" style="image;sketch=0;aspect=fixed;html=1;points=[];align=center;fontSize=12;image=img/lib/mscae/Key.svg;container=0;" vertex="1" parent="1">
          <mxGeometry x="599.9997862638928" y="-100" width="30.287489975942258" height="48.849394546912585" as="geometry" />
        </mxCell>
        <mxCell id="jFlGcLo877YmEgPMVWM7-3" value="&lt;b&gt;Grupo de Recursos&amp;nbsp; - Clientes&lt;/b&gt;" style="rounded=1;whiteSpace=wrap;html=1;horizontal=1;align=center;verticalAlign=top;container=0;" vertex="1" parent="1">
          <mxGeometry x="1086" y="18.94" width="514" height="581.06" as="geometry" />
        </mxCell>
        <mxCell id="jFlGcLo877YmEgPMVWM7-4" value="&lt;span style=&quot;color: rgba(0, 0, 0, 0); font-family: monospace; font-size: 0px; text-align: start; background-color: rgb(251, 251, 251);&quot;&gt;%3CmxGraphModel%3E%3Croot%3E%3CmxCell%20id%3D%220%22%2F%3E%3CmxCell%20id%3D%221%22%20parent%3D%220%22%2F%3E%3CmxCell%20id%3D%222%22%20value%3D%22%26amp%3Bnbsp%3B%20%26amp%3Bnbsp%3B%20%26amp%3Bnbsp%3B%20%26amp%3Bnbsp%3B%20%26amp%3Bnbsp%3B%20%26amp%3Bnbsp%3B%20%26amp%3Bnbsp%3B%20%26amp%3Bnbsp%3B%20%26amp%3Bnbsp%3B%20%26amp%3Bnbsp%3B%20%26amp%3Bnbsp%3B%26lt%3Bb%26gt%3BResource%20Group%20-%26amp%3Bnbsp%3Brg-gclint-syncro-stream-%5Benv%5D-i%26lt%3B%2Fb%26gt%3B%22%20style%3D%22rounded%3D0%3BwhiteSpace%3Dwrap%3Bhtml%3D1%3Bhorizontal%3D1%3Balign%3Dleft%3BverticalAlign%3Dtop%3Bcontainer%3D0%3B%22%20vertex%3D%221%22%20parent%3D%221%22%3E%3CmxGeometry%20x%3D%2220.000000000000007%22%20y%3D%22120%22%20width%3D%221060%22%20height%3D%22680%22%20as%3D%22geometry%22%2F%3E%3C%2FmxCell%3E%3C%2Froot%3E%3C%2FmxGraphModel%3E&lt;/span&gt;" style="image;sketch=0;aspect=fixed;html=1;points=[];align=center;fontSize=12;image=img/lib/mscae/ResourceGroup.svg;container=0;" vertex="1" parent="1">
          <mxGeometry x="1105.2408184343615" y="7.002174529411768" width="53.75708940495526" height="42.99793112232203" as="geometry" />
        </mxCell>
        <mxCell id="jFlGcLo877YmEgPMVWM7-5" value="Azure Blob Storeage" style="verticalLabelPosition=bottom;html=1;verticalAlign=top;align=center;strokeColor=none;fillColor=#00BEF2;shape=mxgraph.azure.storage_blob;container=0;" vertex="1" parent="1">
          <mxGeometry x="1168" y="449.99999999999994" width="50" height="45" as="geometry" />
        </mxCell>
        <mxCell id="jFlGcLo877YmEgPMVWM7-6" style="edgeStyle=orthogonalEdgeStyle;rounded=0;orthogonalLoop=1;jettySize=auto;html=1;" edge="1" parent="1" source="jFlGcLo877YmEgPMVWM7-7" target="jFlGcLo877YmEgPMVWM7-65">
          <mxGeometry relative="1" as="geometry" />
        </mxCell>
        <mxCell id="jFlGcLo877YmEgPMVWM7-7" value="Azure Function" style="image;aspect=fixed;html=1;points=[];align=center;fontSize=12;image=img/lib/azure2/compute/Function_Apps.svg;container=0;" vertex="1" parent="1">
          <mxGeometry x="1159" y="236.8" width="68" height="60" as="geometry" />
        </mxCell>
        <mxCell id="jFlGcLo877YmEgPMVWM7-8" value="&lt;div&gt;Form Recognizer API&lt;br&gt;&lt;/div&gt;" style="image;aspect=fixed;html=1;points=[];align=center;fontSize=12;image=img/lib/azure2/ai_machine_learning/Form_Recognizers.svg;container=0;" vertex="1" parent="1">
          <mxGeometry x="1161.4" y="71.8" width="63.2" height="68" as="geometry" />
        </mxCell>
        <mxCell id="jFlGcLo877YmEgPMVWM7-9" value="&lt;b&gt;Grupo de Recursos - Interoperabilidad&lt;/b&gt;" style="rounded=1;whiteSpace=wrap;html=1;horizontal=1;align=center;verticalAlign=top;container=0;labelBorderColor=none;" vertex="1" parent="1">
          <mxGeometry x="620" y="18.94" width="350" height="561.06" as="geometry" />
        </mxCell>
        <mxCell id="jFlGcLo877YmEgPMVWM7-10" value="&lt;span style=&quot;color: rgba(0, 0, 0, 0); font-family: monospace; font-size: 0px; text-align: start; background-color: rgb(251, 251, 251);&quot;&gt;%3CmxGraphModel%3E%3Croot%3E%3CmxCell%20id%3D%220%22%2F%3E%3CmxCell%20id%3D%221%22%20parent%3D%220%22%2F%3E%3CmxCell%20id%3D%222%22%20value%3D%22%26amp%3Bnbsp%3B%20%26amp%3Bnbsp%3B%20%26amp%3Bnbsp%3B%20%26amp%3Bnbsp%3B%20%26amp%3Bnbsp%3B%20%26amp%3Bnbsp%3B%20%26amp%3Bnbsp%3B%20%26amp%3Bnbsp%3B%20%26amp%3Bnbsp%3B%20%26amp%3Bnbsp%3B%20%26amp%3Bnbsp%3B%26lt%3Bb%26gt%3BResource%20Group%20-%26amp%3Bnbsp%3Brg-gclint-syncro-stream-%5Benv%5D-i%26lt%3B%2Fb%26gt%3B%22%20style%3D%22rounded%3D0%3BwhiteSpace%3Dwrap%3Bhtml%3D1%3Bhorizontal%3D1%3Balign%3Dleft%3BverticalAlign%3Dtop%3Bcontainer%3D0%3B%22%20vertex%3D%221%22%20parent%3D%221%22%3E%3CmxGeometry%20x%3D%2220.000000000000007%22%20y%3D%22120%22%20width%3D%221060%22%20height%3D%22680%22%20as%3D%22geometry%22%2F%3E%3C%2FmxCell%3E%3C%2Froot%3E%3C%2FmxGraphModel%3E&lt;/span&gt;" style="image;sketch=0;aspect=fixed;html=1;points=[];align=center;fontSize=12;image=img/lib/mscae/ResourceGroup.svg;container=0;" vertex="1" parent="1">
          <mxGeometry x="620.2908184343614" y="0.001787938953960122" width="52.80923140537166" height="42.23978120328864" as="geometry" />
        </mxCell>
        <mxCell id="jFlGcLo877YmEgPMVWM7-11" style="edgeStyle=orthogonalEdgeStyle;rounded=0;orthogonalLoop=1;jettySize=auto;html=1;" edge="1" parent="1" source="jFlGcLo877YmEgPMVWM7-13" target="jFlGcLo877YmEgPMVWM7-7">
          <mxGeometry relative="1" as="geometry">
            <mxPoint x="1004" y="375.6171284634761" as="targetPoint" />
          </mxGeometry>
        </mxCell>
        <mxCell id="jFlGcLo877YmEgPMVWM7-12" value="Trigger" style="edgeLabel;html=1;align=center;verticalAlign=middle;resizable=0;points=[];fontSize=13;" vertex="1" connectable="0" parent="jFlGcLo877YmEgPMVWM7-11">
          <mxGeometry x="0.0607" y="2" relative="1" as="geometry">
            <mxPoint as="offset" />
          </mxGeometry>
        </mxCell>
        <mxCell id="jFlGcLo877YmEgPMVWM7-13" value="APi Managment" style="image;aspect=fixed;html=1;points=[];align=center;fontSize=12;image=img/lib/azure2/app_services/API_Management_Services.svg;container=0;" vertex="1" parent="1">
          <mxGeometry x="780" y="238.0005037783376" width="63.85390428211587" height="58.94206549118388" as="geometry" />
        </mxCell>
        <mxCell id="jFlGcLo877YmEgPMVWM7-14" value="WAF" style="image;aspect=fixed;html=1;points=[];align=center;fontSize=12;image=img/lib/azure2/networking/Web_Application_Firewall_Policies_WAF.svg;container=0;" vertex="1" parent="1">
          <mxGeometry x="590" y="197.2205037783376" width="66.80100755667506" height="66.80100755667506" as="geometry" />
        </mxCell>
        <mxCell id="jFlGcLo877YmEgPMVWM7-15" style="edgeStyle=orthogonalEdgeStyle;rounded=0;orthogonalLoop=1;jettySize=auto;html=1;entryX=0.042;entryY=0.553;entryDx=0;entryDy=0;entryPerimeter=0;" edge="1" parent="1" source="jFlGcLo877YmEgPMVWM7-14" target="jFlGcLo877YmEgPMVWM7-13">
          <mxGeometry relative="1" as="geometry" />
        </mxCell>
        <mxCell id="jFlGcLo877YmEgPMVWM7-16" style="edgeStyle=orthogonalEdgeStyle;rounded=0;orthogonalLoop=1;jettySize=auto;html=1;entryX=0.5;entryY=0;entryDx=0;entryDy=0;entryPerimeter=0;" edge="1" parent="1" source="jFlGcLo877YmEgPMVWM7-7" target="jFlGcLo877YmEgPMVWM7-5">
          <mxGeometry relative="1" as="geometry" />
        </mxCell>
        <mxCell id="jFlGcLo877YmEgPMVWM7-17" value="" style="group" vertex="1" connectable="0" parent="1">
          <mxGeometry x="60" y="50" width="240" height="230" as="geometry" />
        </mxCell>
        <mxCell id="jFlGcLo877YmEgPMVWM7-18" value="Portal Corporativo" style="rounded=1;whiteSpace=wrap;html=1;verticalAlign=top;fontStyle=1;container=0;" vertex="1" parent="jFlGcLo877YmEgPMVWM7-17">
          <mxGeometry width="240" height="230" as="geometry" />
        </mxCell>
        <mxCell id="jFlGcLo877YmEgPMVWM7-19" value="" style="shape=image;verticalLabelPosition=bottom;verticalAlign=top;imageAspect=0;aspect=fixed;image=data:image/png,iVBORw0KGgoAAAANSUhEUgAAAMsAAADLCAMAAAD3JZcBAAAAGXRFWHRTb2Z0d2FyZQBBZG9iZSBJbWFnZVJlYWR5ccllPAAAAw9pVFh0WE1MOmNvbS5hZG9iZS54bXAAAAAAADw/eHBhY2tldCBiZWdpbj0i77u/IiBpZD0iVzVNME1wQ2VoaUh6cmVTek5UY3prYzlkIj8+IDx4OnhtcG1ldGEgeG1sbnM6eD0iYWRvYmU6bnM6bWV0YS8iIHg6eG1wdGs9IkFkb2JlIFhNUCBDb3JlIDUuNS1jMDE0IDc5LjE1MTQ4MSwgMjAxMy8wMy8xMy0xMjowOToxNSAgICAgICAgIj4gPHJkZjpSREYgeG1sbnM6cmRmPSJodHRwOi8vd3d3LnczLm9yZy8xOTk5LzAyLzIyLXJkZi1zeW50YXgtbnMjIj4gPHJkZjpEZXNjcmlwdGlvbiByZGY6YWJvdXQ9IiIgeG1sbnM6eG1wTU09Imh0dHA6Ly9ucy5hZG9iZS5jb20veGFwLzEuMC9tbS8iIHhtbG5zOnN0UmVmPSJodHRwOi8vbnMuYWRvYmUuY29tL3hhcC8xLjAvc1R5cGUvUmVzb3VyY2VSZWYjIiB4bWxuczp4bXA9Imh0dHA6Ly9ucy5hZG9iZS5jb20veGFwLzEuMC8iIHhtcE1NOkRvY3VtZW50SUQ9InhtcC5kaWQ6Rjg0MkQzNzUwQTk4MTFFM0IyRjFFNUE3QTZFRDU4QjYiIHhtcE1NOkluc3RhbmNlSUQ9InhtcC5paWQ6Rjg0MkQzNzQwQTk4MTFFM0IyRjFFNUE3QTZFRDU4QjYiIHhtcDpDcmVhdG9yVG9vbD0iQWRvYmUgUGhvdG9zaG9wIENDIFdpbmRvd3MiPiA8eG1wTU06RGVyaXZlZEZyb20gc3RSZWY6aW5zdGFuY2VJRD0iMDRFQzRGQzM0N0FEMzQwMUI0N0RCMUZGMDUyNzAxNEMiIHN0UmVmOmRvY3VtZW50SUQ9IjA0RUM0RkMzNDdBRDM0MDFCNDdEQjFGRjA1MjcwMTRDIi8+IDwvcmRmOkRlc2NyaXB0aW9uPiA8L3JkZjpSREY+IDwveDp4bXBtZXRhPiA8P3hwYWNrZXQgZW5kPSJyIj8+Vcw2rAAAAt9QTFRFAHLF////IYTN8vj87/b7cbDf+/3+/f7/PpTT5/L6BXXGPJPTSpvW9/v9/P3+BnXG8/j88ff8A3TGIITM9fn9AXPFCXfH0+f13+34+vz+/v7/FX7KFH3KIoXNNY/RH4PMCnjH2er29vr9KonPP5XTzOPztNbu4/D5RpnVM47RCHbH1+n21uj2iL3kWKPZMI3QdbPgaKzd6/T6+Pv9AnPFv9zwEHvJOJHSG4HL8Pf8xN7ySZrW5PD5nMjocrHfBHTG7PT7GYDL4e74UZ/XR5nVlsXn7vb7JIbNYqjb1ej1rNHsx+DyE33Jz+T0QJXUGH/K6PL6D3rIjL/l7fX7EnzJRJjU0ub16fP6JofOUp/YzeP0jsHlPZTTe7bhI4XNxd/yYKfbK4rPib7kZ6vcf7jittfuHIHLsdTtvNrw4u/4Mo7Qd7TgqtDsDXnImcfoqc/r2uv3KIjOMY3QebXhgrrjDnrIDHnIC3jI5vH5B3bHSJrVr9PtLYvPO5PSQZbUZarclMTnTp3XbK7edrPgu9nwX6fbUJ7Xb6/eq9Hshbzj9Pn8y+LzT57XWaPZfrjiTJzWba7eXqbancnp1Of14O74Q5fUwd3xyuLzpM3qNpDRfLfh3ez3qM/rW6TaL4zQJ4jOj8HmLovPQpbUOZLSY6nc5fH5msfovdvwrdLsfbfhJYbNgLniVqLZU6DYudjv0eb1HoPMF3/Kwt3xOpLSjcDll8XnVKDYTZ3Xt9fvXKXabq/eYajbEXvJHYLMaazdgbnioszqps7rpc3rFn7K3u33+fz+NI/RocvqkMLmerXhg7rjwNzxvtvw6vP6oMrpcLDeKYnOa63duNjvhLvjp87rksPmVaHYyeHzk8Pmtdbuxt/y2+v3lcTnstTti7/lir7keLTgV6LZh73kc7Lfs9XudLLfutnvzuT0sNPt0OX0ZqrcRZjVaq3dm8joLIrPmMbonsnpN5DShrzjXaXaS5vWkWSPhAAACBVJREFUeNrs3fVDU10YB/DnAG7AhNEtJY10GkiJgmCBid0BIhaK+trd3f3a3R2v8drd8XZ3/wEvMri72+4mG+ds3OP5/uZO4Efw3nueczYAWFhYWFhYWFhYWFhYWFhYWFhYWFg+0MSn38juXpwsdsa4vqeLnq2JRQh5NBCvQp6+vf+t1ddtUFXMzUTJ8Np24E6xqz1Siegs8q6dzj041gwJREQWB8+kZRED/eyQtojDktj19PqbC1pKkc7UdYuDj6x/1kw3W1SD1GHL2KhFe/fkFKAap05axvm0aF7S2+pTpF/qmqXd35vyBzayQYak7lhc+i6MflZohQxPXbDIk2WXnv+Q4Y9qGRNbvKK6zdvTxg5hickscrMJ53a9CZYifDGJZdiOfoM32CPcMYnFAhGJSSz2FFksmOXDtsRbW8fTYLFuOyZoRUbGisH7P0oVtyUsJlDZ8PJ8qogt3k1Um+5NEq1lmcZVvyBTpJaFAo023cRpmSHU6v+RKC31BJv9EumxoAiKLOY+9FhQT4osgc70WOa3oseCllBkiaHIMoAiy2KKLLMosvxLkaXxxo+psSAkLQ6lxlLx7J/fkRoLQuEtTGCRtBxvZTXeyg6zBUnnpRrVMn/309mhPnleXl6eIwOW7WrjgdGCUJCX8Sx+M9QeAx1CU2puKXq/27WhkSwW0R00B4XW3FJfYFfH7tSUNvw/N7thFMsbwX8zSz1qSgcbq7fFNgUIm9WI90p7byNYWg+H2log6q5q08wtlS8PX88rnFk9Im4JkkPtLRDfZ4GyIfdrbkE5ilfQzLlG2JKj7U6mnwUgtce8ISuCg12HLJbxl8Zhz5UDDjkQtcRpfWDS1/Iu5Z6emt/lpRJuxB2ilq2A0yKcRdzhFGkIQUtauhEsEOlePaQ0kZwlS6Wf7x+rmh7v6ovdAv25MbeIWaQ9eL0ct173r3jJbuXc7HaYLfAFV/6PImXxC1N2CuCdqbTqdxRkOC3Wh6oHDSZluansY9ZFpSW42zqs+8iOaVWDPHoQsixV9lmu3nbXA6cFYrh7MyHLNK5LBwMOkullcehdvUjaTMQiVd4ovW0JW2By9Vc4adajk2VXF8wWm75cFxkibYHPq4bZvnuotstY+8IFp8ViENelrz9xyyqN9dmUeHwWu15cl7KhxC3OuRoznGmAzSLhLY+yyJ/t2as5xcoobNexCco+++xJW0a6CcyxcxsuC39/JDOOrKXDYeFHDy9Mlgf8XrMLiFpOapllOSbLW5XL4rZcgpYkbTcwiQyPxaOt6jP/fnNilolap5mIaf3yiVrPUQMJWfZpf8uAfys8lvkj1ftmtydiWapjnseY1vsjNDqbDSZhaY30+TsYWFM6qHl/Hi3BbnHorGOeBbgs7Xtp9l/SBbflQoaOeXZiq1uuuaA5YNRQzJYjaTrmscdXT14tULmcNBSvpZ2upV4axjp/E0eBHYuWWC3lfrr2AHHuv7gJbChG4r2OrdYxzxOs+2KSMb4agzZitXypY54IrBaEAn9VH7TFDqdllY55tuPee7Wdql7qTcFpCQvXOk0jF9yWiuV3gOoomRSjBR5rnWYOif39uOaqddNwnBZfbXd+1zIiZxXU/hf+iXUtFiD8ZGQ7GchYVA/i7cC73hc+0RANpCwS/iF8GV4L/C4wx2UgZkGvecN62eK1XNUsnM4BghYn3iIv3R6rpZWTxsOTDLBZhHYlmiqH5TXDaslXHd349UFDtsi11i33aF5bFiqHXYvFaRlU/bR6rGjX3JQBBwz8oBytP2OWfXR9X3wkOC2vBL4CTssE2KFWrTTnPf+H4ryOeVcXYjrLyVjqA7TN0Vpk6obRYl29LYaygZgFEiN4zX78t9/0xGgZwD1J+hK0AOwb01nxP8M2yKxmpUa9LRO4kxeRQNRS8RPgPWv91BO/JamM8ozFZhnJFRB3O5C2CGYTtvWLI3e+z2kzmMSyG5fFsZAb8hWYxPKfFJNli/LUZYLcJJZxrnrXLiYt6pl/YvQLtZOoIcHcgPEYPhTPEMtUPWtKng9fVt0NnXKn5/GK0+7Kp+Lan4TTYdFeAflez7rllJX8lg19ql4edoj36nkgafnpopYRt/WrJ3fU2JLYOLbi5eR+/LpUPSBqQc1+KRe68IzQr85/JFCzMTfZ8R+VIjIeis61WJs56u8aTr9dwzNLnKW5YGFXpbRvOx3IWxCyPzOjk1lVvW34sLNXa7b58l6LSgpmg1Eslad83AITilsnFA51N2Tv9b3vGflxFBjPYlBqbPmsA1BiyZkGQIflfs8yoMMS2x33Z/mazNJ9EAAtFgIfeGMySxFFlqcUWZpTZDlAj0W6jh6LWxk9luVAjyWAHssQZ2os7kkgQsu3gs2LQYyWGKHWK86itIwVqNtcKQdRWsC6n9rWpvtlBxCpBaBTgsoVzBJAvBaAkJQNlYcRnEpLJgOI2wIQ1rBFZGRIQzmA+C1GCbPUTYuEIktMVsLOOEos77YfN2eObv1zLBUWRQYd7/PqSak7FRbFHkuDJdEpa7pIaLBUJj5x3aYxQeGNabBUPRM2aDu95J6hv3ykLv6+pLxHp/avPWxBhaUyqe1k2d1nvvWnwaKIS8MW0Wt736fCosjRYWe/mRhuToWlMvKLIZeymri502CpWspHZe6dW9iSCovi0p2c1H/rQDcnGiyK+PaaFv1X4HgPGiyKeHpHRnznWvktihO7RXHpNgt4WJJQ6ggsLCwsLCwsLCwsLCwsLCwsLCwsLB9Q/hdgAMaHd6cT5/R8AAAAAElFTkSuQmCC;rounded=1;dashed=1;labelBackgroundColor=none;labelBorderColor=none;fillStyle=auto;strokeColor=default;fontSize=14;fontColor=#000000;fillColor=default;gradientColor=#CCE5FF;container=0;spacing=2;shadow=0;perimeterSpacing=1;" vertex="1" parent="jFlGcLo877YmEgPMVWM7-17">
          <mxGeometry x="10" y="10" width="30" height="30" as="geometry" />
        </mxCell>
        <mxCell id="jFlGcLo877YmEgPMVWM7-20" value="Validar Documento" style="rounded=1;whiteSpace=wrap;html=1;fillColor=#dae8fc;strokeColor=#6c8ebf;" vertex="1" parent="jFlGcLo877YmEgPMVWM7-17">
          <mxGeometry x="60" y="160" width="120" height="41.25" as="geometry" />
        </mxCell>
        <mxCell id="jFlGcLo877YmEgPMVWM7-23" value="Carga Documentos" style="rounded=1;whiteSpace=wrap;html=1;fillColor=#dae8fc;strokeColor=#6c8ebf;" vertex="1" parent="jFlGcLo877YmEgPMVWM7-17">
          <mxGeometry x="60" y="50" width="120" height="35" as="geometry" />
        </mxCell>
        <mxCell id="jFlGcLo877YmEgPMVWM7-24" value="Azure Active&lt;div&gt;Directory&lt;/div&gt;" style="image;aspect=fixed;html=1;points=[];align=center;fontSize=12;image=img/lib/azure2/identity/Azure_Active_Directory.svg;" vertex="1" parent="1">
          <mxGeometry x="773.85" y="80.80000000000001" width="70" height="64" as="geometry" />
        </mxCell>
        <mxCell id="jFlGcLo877YmEgPMVWM7-25" style="edgeStyle=orthogonalEdgeStyle;rounded=0;orthogonalLoop=1;jettySize=auto;html=1;entryX=-0.003;entryY=0.435;entryDx=0;entryDy=0;entryPerimeter=0;exitX=1;exitY=0.25;exitDx=0;exitDy=0;" edge="1" parent="1" source="jFlGcLo877YmEgPMVWM7-20" target="jFlGcLo877YmEgPMVWM7-24">
          <mxGeometry relative="1" as="geometry">
            <mxPoint x="240" y="177.52631578947376" as="sourcePoint" />
          </mxGeometry>
        </mxCell>
        <mxCell id="jFlGcLo877YmEgPMVWM7-26" value="Genera Token&amp;nbsp;" style="edgeLabel;html=1;align=center;verticalAlign=middle;resizable=0;points=[];fontSize=13;" vertex="1" connectable="0" parent="jFlGcLo877YmEgPMVWM7-25">
          <mxGeometry x="-0.683" y="2" relative="1" as="geometry">
            <mxPoint x="38" as="offset" />
          </mxGeometry>
        </mxCell>
        <mxCell id="jFlGcLo877YmEgPMVWM7-27" style="edgeStyle=orthogonalEdgeStyle;rounded=0;orthogonalLoop=1;jettySize=auto;html=1;entryX=0.015;entryY=0.519;entryDx=0;entryDy=0;entryPerimeter=0;" edge="1" parent="1" source="jFlGcLo877YmEgPMVWM7-20" target="jFlGcLo877YmEgPMVWM7-14">
          <mxGeometry relative="1" as="geometry" />
        </mxCell>
        <mxCell id="jFlGcLo877YmEgPMVWM7-28" value="File Server - Compensar" style="rounded=1;whiteSpace=wrap;html=1;fontStyle=1;verticalAlign=top;align=center;" vertex="1" parent="1">
          <mxGeometry x="70" y="383.95" width="220" height="160" as="geometry" />
        </mxCell>
        <mxCell id="jFlGcLo877YmEgPMVWM7-76" style="edgeStyle=orthogonalEdgeStyle;rounded=0;orthogonalLoop=1;jettySize=auto;html=1;" edge="1" parent="1" source="jFlGcLo877YmEgPMVWM7-29" target="jFlGcLo877YmEgPMVWM7-75">
          <mxGeometry relative="1" as="geometry" />
        </mxCell>
        <mxCell id="jFlGcLo877YmEgPMVWM7-29" value="Documents" style="sketch=0;outlineConnect=0;fontColor=#232F3E;gradientColor=none;fillColor=#232F3D;strokeColor=none;dashed=0;verticalLabelPosition=bottom;verticalAlign=top;align=center;html=1;fontSize=12;fontStyle=0;aspect=fixed;pointerEvents=1;shape=mxgraph.aws4.document;container=0;" vertex="1" parent="1">
          <mxGeometry x="166.65" y="454.05" width="27" height="36.95" as="geometry" />
        </mxCell>
        <mxCell id="jFlGcLo877YmEgPMVWM7-30" value="" style="image;sketch=0;aspect=fixed;html=1;points=[];align=center;fontSize=12;image=img/lib/mscae/Exchange_On_premises_Access.svg;" vertex="1" parent="1">
          <mxGeometry x="71" y="490" width="28.999999999999996" height="50" as="geometry" />
        </mxCell>
        <UserObject label="&lt;div style=&quot;font-size: 1px&quot;&gt;&lt;font style=&quot;font-size:15.52px;font-family:Segoe UI Semibold;color:#000000;direction:ltr;letter-spacing:0px;line-height:120%;opacity:1&quot;&gt;Secure and monitor&lt;/font&gt;&lt;font style=&quot;font-size:15.52px;font-family:Segoe UI Semibold;color:#feffff;direction:ltr;letter-spacing:0px;line-height:120%;opacity:1&quot;&gt;&lt;br/&gt;&lt;/font&gt;&lt;/div&gt;" tags="Background" id="jFlGcLo877YmEgPMVWM7-31">
          <mxCell style="verticalAlign=top;align=center;overflow=width;vsdxID=1383;shape=stencil(nZBLDoAgDERP0z3SIyjew0SURgSD+Lu9kMZoXLhwN9O+tukAlrNpJg1SzDH4QW/URgNYgZTkjA4UkwJUgGXng+6DX1zLfmoymdXo17xh5zmRJ6Q42BWCfc2oJfdAr+Yv+AP9Cb7OJ3H/2JG1HNGz/84klThPVCc=);points=[];labelBackgroundColor=none;rounded=0;html=1;whiteSpace=wrap;container=0;shadow=0;" vertex="1" parent="1">
            <mxGeometry x="820" y="680" width="654" height="134" as="geometry" />
          </mxCell>
        </UserObject>
        <mxCell id="jFlGcLo877YmEgPMVWM7-32" value="&lt;div style=&quot;font-size: 1px&quot;&gt;&lt;font style=&quot;font-size:15.52px;font-family:Segoe UI;color:#000000;direction:ltr;letter-spacing:0px;line-height:120%;opacity:1&quot;&gt;Azure Active Directory&lt;br/&gt;&lt;/font&gt;&lt;/div&gt;" style="verticalAlign=middle;align=center;overflow=width;vsdxID=1191;fillColor=none;gradientColor=none;shape=stencil(nZBLDoAgDERP0z3SIyjew0SURgSD+Lu9kMZoXLhwN9O+tukAlrNpJg1SzDH4QW/URgNYgZTkjA4UkwJUgGXng+6DX1zLfmoymdXo17xh5zmRJ6Q42BWCfc2oJfdAr+Yv+AP9Cb7OJ3H/2JG1HNGz/84klThPVCc=);strokeColor=none;points=[];labelBackgroundColor=none;rounded=0;html=1;whiteSpace=wrap;container=0;" vertex="1" parent="1">
          <mxGeometry x="853" y="753" width="114" height="50" as="geometry" />
        </mxCell>
        <mxCell id="jFlGcLo877YmEgPMVWM7-33" style="vsdxID=1159;fillColor=#50e6ff;gradientColor=none;shape=stencil(lZHNDoMgEISfhisBVq2crX0PE7GQUjCI/Xn7QklTNTUNt9nZbyeEQdBMshsFYmTyzl7EXfVeIjgixpSRwikfFIIWQTNYJ87OzqZP89hFMqqrvcWER7orcUXjESPPZBDM6rdxSrhWZoEXfMsfAJf7PC8w8HX+PkwJWaG0wjXNecsn4CeelZ35LX/xIL4NDErrVOByv20sWKltaF8=);strokeColor=none;spacingTop=-3;spacingBottom=-3;spacingLeft=-3;spacingRight=-3;points=[];labelBackgroundColor=none;rounded=0;html=1;whiteSpace=wrap;container=0;" vertex="1" parent="1">
          <mxGeometry x="886" y="737" width="47" height="18" as="geometry" />
        </mxCell>
        <mxCell id="jFlGcLo877YmEgPMVWM7-34" style="vsdxID=1160;fillColor=#FFFFFF;gradientColor=none;shape=stencil(UzV2Ls5ILEhVNTIoLinKz04tz0wpyVA1dlE1MsrMy0gtyiwBslSNXVWNndPyi1LTi/JL81Ig/IJEkEoQKze/DGRCBUSfAUiHkUElhGdmomdhDBZxgyjOycxDUmxiqWdiiaLBALdiQwMMsy0NSTEbZgBW5SS5m4BiIAMRPGmZOTmQ0EWWRw9OoBAkKoxdAQ==);strokeColor=none;spacingTop=-3;spacingBottom=-3;spacingLeft=-3;spacingRight=-3;points=[];labelBackgroundColor=none;rounded=0;html=1;whiteSpace=wrap;container=0;" vertex="1" parent="1">
          <mxGeometry x="890" y="713" width="38" height="35" as="geometry" />
        </mxCell>
        <mxCell id="jFlGcLo877YmEgPMVWM7-35" style="vsdxID=1161;fillColor=#50e6ff;gradientColor=none;shape=stencil(UzV2Ls5ILEhVNTIoLinKz04tz0wpyVA1dlE1MsrMy0gtyiwBslSNXVWNndPyi1LTi/JL81Ig/IJEkEoQKze/DGRCBUSfoYEBSI+RQSWED+G5QZTmZObhUQrjY1WMqtTMRM/CmHiTSXAEilIgA+HPtMycHEgwIcujhwtQCBKmxq4A);strokeColor=none;spacingTop=-3;spacingBottom=-3;spacingLeft=-3;spacingRight=-3;points=[];labelBackgroundColor=none;rounded=0;html=1;whiteSpace=wrap;container=0;" vertex="1" parent="1">
          <mxGeometry x="890" y="713" width="19" height="35" as="geometry" />
        </mxCell>
        <mxCell id="jFlGcLo877YmEgPMVWM7-36" style="vsdxID=1162;fillColor=#1988d9;gradientColor=#54aef0;shape=stencil(UzV2Ls5ILEhVNTIoLinKz04tz0wpyVA1dlE1MsrMy0gtyiwBslSNXVWNndPyi1LTi/JL81Ig/IJEkEoQKze/DGRCBUSfAUiHkUElMs8NojAnMw+nQkMDPEphkjDFZiZ6lobEmky0E1AUAhkIH6Zl5uRAAghZHj1EgEKQ0DR2BQA=);strokeColor=none;spacingTop=-3;spacingBottom=-3;spacingLeft=-3;spacingRight=-3;points=[];labelBackgroundColor=none;rounded=0;html=1;whiteSpace=wrap;container=0;" vertex="1" parent="1">
          <mxGeometry x="909" y="713" width="19" height="35" as="geometry" />
        </mxCell>
        <mxCell id="jFlGcLo877YmEgPMVWM7-37" style="vsdxID=1163;fillColor=#53b1e0;gradientColor=none;shape=stencil(UzV2Ls5ILEhVNTIoLinKz04tz0wpyVA1dlE1MsrMy0gtyiwBslSNXVWNndPyi1LTi/JL81Ig/IJEkEoQKze/DGRCBUSfAUiHkUElMs8NojAnMw9JoaEBqlIjcz1jC9zKURXDNBOhlDyFQAbCh2mZOTmQAEKWRw8RoBAkNI1dAQ==);strokeColor=none;spacingTop=-3;spacingBottom=-3;spacingLeft=-3;spacingRight=-3;points=[];labelBackgroundColor=none;rounded=0;html=1;whiteSpace=wrap;container=0;" vertex="1" parent="1">
          <mxGeometry x="909" y="731" width="19" height="17" as="geometry" />
        </mxCell>
        <mxCell id="jFlGcLo877YmEgPMVWM7-38" style="vsdxID=1164;fillColor=#9cebff;gradientColor=none;shape=stencil(UzV2Ls5ILEhVNTIoLinKz04tz0wpyVA1dlE1MsrMy0gtyiwBslSNXVWNndPyi1LTi/JL81Ig/IJEkEoQKze/DGRCBUSfoYEBSI+RQSUq3w2iOCczD0kxqlIjcz0jY9yK0U3GYy5JjiCgGMhA+DUtMycHElTI8uhhAxSChKuxKwA=);strokeColor=none;spacingTop=-3;spacingBottom=-3;spacingLeft=-3;spacingRight=-3;points=[];labelBackgroundColor=none;rounded=0;html=1;whiteSpace=wrap;container=0;" vertex="1" parent="1">
          <mxGeometry x="890" y="731" width="19" height="17" as="geometry" />
        </mxCell>
        <mxCell id="jFlGcLo877YmEgPMVWM7-39" style="vsdxID=1165;fillColor=#54aef0;gradientColor=#1988d9;shape=stencil(jZHBDsIgEES/Zq+EsrHlXut/NCktRISGYtW/F7JRWxOJtx32zWQzALaL7mcFgi8x+LO6mSFqwCMIYZxWwcQ0AXaA7eiDmoK/uoH03GcyTxe/5oQ7+Xh2CP4gVXHSJ0KtcRv0tXzDNZPVb1xKJuudoZC9T26QHf5liycX0TR8WhmNtVTqdv/dYnqiH8DuCQ==);strokeColor=none;spacingTop=-3;spacingBottom=-3;spacingLeft=-3;spacingRight=-3;points=[];labelBackgroundColor=none;rounded=0;html=1;whiteSpace=wrap;container=0;" vertex="1" parent="1">
          <mxGeometry x="909" y="737" width="23" height="18" as="geometry" />
        </mxCell>
        <mxCell id="jFlGcLo877YmEgPMVWM7-40" value="&lt;div style=&quot;font-size: 1px&quot;&gt;&lt;font style=&quot;font-size:15.52px;font-family:Segoe UI;color:#000000;direction:ltr;letter-spacing:0px;line-height:120%;opacity:1&quot;&gt;Azure Monitor&lt;br/&gt;&lt;/font&gt;&lt;/div&gt;" style="verticalAlign=middle;align=center;overflow=width;vsdxID=1192;fillColor=none;gradientColor=none;shape=stencil(nZBLDoAgDERP0z3SIyjew0SURgSD+Lu9kMZoXLhwN9O+tukAlrNpJg1SzDH4QW/URgNYgZTkjA4UkwJUgGXng+6DX1zLfmoymdXo17xh5zmRJ6Q42BWCfc2oJfdAr+Yv+AP9Cb7OJ3H/2JG1HNGz/84klThPVCc=);strokeColor=none;points=[];labelBackgroundColor=none;rounded=0;html=1;whiteSpace=wrap;container=0;" vertex="1" parent="1">
          <mxGeometry x="1027" y="753" width="95" height="50" as="geometry" />
        </mxCell>
        <mxCell id="jFlGcLo877YmEgPMVWM7-41" style="vsdxID=1178;fillColor=#5ea0ef;gradientColor=#0078d4;shape=stencil(vVHLDsIgEPwajiQI6RfU+h8bu22JCGRB2/69kG1iazx58DazM/vIjjBtmiCi0CplCjecbZ8nYc5Ca+snJJsLEqYTph0C4Ujh4XvmEaqzont41gkL96naodXKrGF6YSfQtUi0OXXDVlqPfJNP6usotUhYbJIUMmQb/GGrAxpRljVycDBuc1hKM2LclX8/7H9nFfB+82Cd45T2+mcspcSRmu4F);strokeColor=none;strokeWidth=48;spacingTop=-3;spacingBottom=-3;spacingLeft=-3;spacingRight=-3;points=[];labelBackgroundColor=none;rounded=0;html=1;whiteSpace=wrap;container=0;" vertex="1" parent="1">
          <mxGeometry x="1050" y="713" width="47" height="47" as="geometry" />
        </mxCell>
        <mxCell id="jFlGcLo877YmEgPMVWM7-42" style="vsdxID=1180;fillColor=#FFFFFF;gradientColor=none;shape=stencil(vVHLDsIgEPwajiQI6RfU+h8bu22JCGRB2/69kG1iazx58DazM/vIjjBtmiCi0CplCjecbZ8nYc5Ca+snJJsLEqYTph0C4Ujh4XvmEaqzont41gkL96naodXKrGF6YSfQtUi0OXXDVlqPfJNP6usotUhYbJIUMmQb/GGrAxpRljVycDBuc1hKM2LclX8/7H9nFfB+82Cd45T2+mcspcSRmu4F);strokeColor=none;strokeWidth=48;spacingTop=-3;spacingBottom=-3;spacingLeft=-3;spacingRight=-3;points=[];labelBackgroundColor=none;rounded=0;html=1;whiteSpace=wrap;container=0;" vertex="1" parent="1">
          <mxGeometry x="1053" y="716" width="41" height="41" as="geometry" />
        </mxCell>
        <mxCell id="jFlGcLo877YmEgPMVWM7-43" style="vsdxID=1182;fillColor=#9cebff;gradientColor=none;shape=stencil(rVLLEsIgDPwajmV4lGLPPv6DsbRlxNJJUevfSwdGW1/jwVuS3bBZEsTXQ6t6jRgZPLiDvpjKt4hvEGOmazUYHyLEt4ivawe6AXfqqpj3amJO0dGdpxfG2EemDkau82wXiQr2AYFEpAXHJYtsSHQqBM5prCVaLnEhFm9SkjTGTI1myMB55Y3rIlom0CpodBYks9qqZjHbcNG6fymnIa3pZm7uWklbEEzyz55KhqVYWlpJXOYLR5JjuXrzS3/zQz/7+bKdn4kheCy/NtbG25njz8cSSvHQ+PYG);strokeColor=none;strokeWidth=48;spacingTop=-3;spacingBottom=-3;spacingLeft=-3;spacingRight=-3;points=[];labelBackgroundColor=none;rounded=0;html=1;whiteSpace=wrap;container=0;" vertex="1" parent="1">
          <mxGeometry x="1056" y="737" width="10" height="11" as="geometry" />
        </mxCell>
        <mxCell id="jFlGcLo877YmEgPMVWM7-44" style="vsdxID=1184;fillColor=#32bedd;gradientColor=none;shape=stencil(vVXBboMwDP0ajlhJTEJy7rr/QGtoozGoAlu7v19Ysnamg7VS1Zux82yeXxxnuOp31d5mgvWD717twW2GXYZPmRCu3VnvhmBluM5wVXfebn333m7i974aT47WW/cxZjhGXGkA5YgS7DN6hAKhvz3PEVD5lxD1CaAYCBUBPiE4K4Fh9KVTBYI2JC1L8bw6uj733VANrmtjzKRgU/mtzUO9vG6qLcH1B2v3F+70h41r7VLtogQj5ymhAF1QSlIDCsIo8EZOskoDRt2XFZ9ndYVQNwPoVWC3ZOcGBG1HaJDC5SbLyyZL0mSUPzlO0mlQ/GFNvqzP5hmNkzC5NpwpMIZQmuvqIybhH0Wp/EoBKgIog6LFgqIFKEP5K35WK+VA4HQYObvzU7Cg56nWpPaffMI8o57qKaFQhJCWJwXTIVR3fwcWNL1CppsBwTjvh9o1TVwvv+PTfRJccRfh+gs=);strokeColor=none;strokeWidth=48;spacingTop=-3;spacingBottom=-3;spacingLeft=-3;spacingRight=-3;points=[];labelBackgroundColor=none;rounded=0;html=1;whiteSpace=wrap;container=0;" vertex="1" parent="1">
          <mxGeometry x="1062" y="719" width="28" height="16" as="geometry" />
        </mxCell>
        <mxCell id="jFlGcLo877YmEgPMVWM7-45" style="vsdxID=1186;fillColor=#50e6ff;gradientColor=none;shape=stencil(rVLLEsIgDPwajmUo9MW56n8wSltGLJ0Utf691Pho1Y4Xb8lms8lCiCj7RnWacNZ7cHt9NjvfELEinJu20WB8iIhYE1FWDnQN7tjuMO/UyByjgzuNCgP2xYyNPZxdME8FlekN2SDdmnZCTzgtklkDm5IVbEMFHtp5RjOJbLjT4yyliUBsmCo89J4LDZEaTB+B88ob12JV3otWQa2jMC6qrKpnOv1Z6+4D/uoml8/93qZ/98ME5dncjwwWi5md5Rf9m6V42dLP/wzB6xYqYy2e0rT+fjsBwrsT6ys=);strokeColor=none;strokeWidth=48;spacingTop=-3;spacingBottom=-3;spacingLeft=-3;spacingRight=-3;points=[];labelBackgroundColor=none;rounded=0;html=1;whiteSpace=wrap;container=0;" vertex="1" parent="1">
          <mxGeometry x="1056" y="725" width="9" height="10" as="geometry" />
        </mxCell>
        <mxCell id="jFlGcLo877YmEgPMVWM7-46" style="vsdxID=1188;fillColor=#f04049;gradientColor=none;shape=stencil(vVLLbsMgEPwajl7xcDCc0/Q/UINtVGqsNWnSvy8uRA2uavXU2zKzswvDEHFcRjNbwukSMbzaqzvHkYgnwrmbRosupoqIExHHPqAdMFymcz7PZu1cq7fwvk64ZZ3WoA+ritOPjDAKTH4hz1lg8CWxeBeA5Lkf7wIFrM1Q6VEdKFYNpYVvzM0tDYZoogtTmVhIb3CwTdrW9N4MlW65Wjv/gMv9vJseHkSrvbIDLn5vlqDazeN3RusWZO2VEKDVnlct23jVQXeovNr7gP/w6w8BSMV3fHrnfU7fI7+NW4JyVMXpEw==);strokeColor=none;strokeWidth=48;spacingTop=-3;spacingBottom=-3;spacingLeft=-3;spacingRight=-3;points=[];labelBackgroundColor=none;rounded=0;html=1;whiteSpace=wrap;container=0;" vertex="1" parent="1">
          <mxGeometry x="1074" y="730" width="13" height="6" as="geometry" />
        </mxCell>
        <mxCell id="jFlGcLo877YmEgPMVWM7-47" style="vsdxID=1190;fillColor=#8c8e90;gradientColor=#3e3f3f;shape=stencil(vVHLDsIgEPwajiQI6RfU+h8bu22JCGRB2/69kG1iazx58DazM/vIjjBtmiCi0CplCjecbZ8nYc5Ca+snJJsLEqYTph0C4Ujh4XvmEaqzont41gkL96naodXKrGF6YSfQtUi0OXXDVlqPfJNP6usotUhYbJIUMmQb/GGrAxpRljVycDBuc1hKM2LclX8/7H9nFfB+82Cd45T2+mcspcSRmu4F);strokeColor=none;strokeWidth=48;spacingTop=-3;spacingBottom=-3;spacingLeft=-3;spacingRight=-3;points=[];labelBackgroundColor=none;rounded=0;html=1;whiteSpace=wrap;container=0;" vertex="1" parent="1">
          <mxGeometry x="1070" y="733" width="6" height="6" as="geometry" />
        </mxCell>
        <mxCell id="jFlGcLo877YmEgPMVWM7-48" value="&lt;div style=&quot;font-size: 1px&quot;&gt;&lt;font style=&quot;font-size:15.52px;font-family:Segoe UI;color:#000000;direction:ltr;letter-spacing:0px;line-height:120%;opacity:1&quot;&gt;Azure Key Vault&lt;br/&gt;&lt;/font&gt;&lt;/div&gt;" style="verticalAlign=middle;align=center;overflow=width;vsdxID=1193;fillColor=none;gradientColor=none;shape=stencil(nZBLDoAgDERP0z3SIyjew0SURgSD+Lu9kMZoXLhwN9O+tukAlrNpJg1SzDH4QW/URgNYgZTkjA4UkwJUgGXng+6DX1zLfmoymdXo17xh5zmRJ6Q42BWCfc2oJfdAr+Yv+AP9Cb7OJ3H/2JG1HNGz/84klThPVCc=);strokeColor=none;points=[];labelBackgroundColor=none;rounded=0;html=1;whiteSpace=wrap;container=0;" vertex="1" parent="1">
          <mxGeometry x="1170" y="761" width="114" height="50" as="geometry" />
        </mxCell>
        <mxCell id="jFlGcLo877YmEgPMVWM7-49" style="vsdxID=1019;fillColor=#5ea0ef;gradientColor=#0078d4;shape=stencil(tVPbUsMgEP0aHsOwkKTyXOt/MC1JGDFkNmjr35e4qE2qps7o217OLmf3sExtx84MlkkxRgyP9ugOsWPqnknp+s6ii8liasfUtgloWwzP/YH8wUzIyXoKL1OHE9WVwEs5VUnxShHx5j0Q2OA+ZTCDK80zFjO4UhyAQhkDQszaJURdZ0RhTm4sMEQTXegprzPcG2xtkd4rGm/a3ItS49Ha4SK8wnBzTXEzo/jdzL8nKG4g6F1/+77XxHnf7tfDA4eFPmXF7+rZ8Bq41v+tEPxMEq5JVisKfXyrv9JoRnFNo8Xak/F5T43zns7xMr+8vxSi21W7Mw==);strokeColor=none;strokeWidth=48;spacingTop=-3;spacingBottom=-3;spacingLeft=-3;spacingRight=-3;points=[];labelBackgroundColor=none;rounded=0;html=1;whiteSpace=wrap;container=0;" vertex="1" parent="1">
          <mxGeometry x="1206" y="713" width="43" height="47" as="geometry" />
        </mxCell>
        <mxCell id="jFlGcLo877YmEgPMVWM7-50" style="vsdxID=1021;fillColor=#FFFFFF;gradientColor=none;shape=stencil(vVHLDsIgEPwajiQI6RfU+h8bu22JCGRB2/69kG1iazx58DazM/vIjjBtmiCi0CplCjecbZ8nYc5Ca+snJJsLEqYTph0C4Ujh4XvmEaqzont41gkL96naodXKrGF6YSfQtUi0OXXDVlqPfJNP6usotUhYbJIUMmQb/GGrAxpRljVycDBuc1hKM2LclX8/7H9nFfB+82Cd45T2+mcspcSRmu4F);strokeColor=none;strokeWidth=48;spacingTop=-3;spacingBottom=-3;spacingLeft=-3;spacingRight=-3;points=[];labelBackgroundColor=none;rounded=0;html=1;whiteSpace=wrap;container=0;" vertex="1" parent="1">
          <mxGeometry x="1203" y="716" width="43" height="44" as="geometry" />
        </mxCell>
        <mxCell id="jFlGcLo877YmEgPMVWM7-51" style="vsdxID=1023;fillColor=#ffd70f;gradientColor=#fea11b;shape=stencil(xVdLcsIwDD1Nlmhsy981pffIlACZpoQxaaG3r6kTwA5xgTJhZyQk6+lJspLhdLvKN0XGyLax9XuxK+fNKsOXjLFyvSps2bhThrMMp4vaFktbf67n/vcmP/zzcPqovw4e9t7OcJDiYMXIt5egAVS/kldvkNs3p7WtAdXgtcS2BpQCp1406JQh0Fayn+T7cjuxdZM3Zb1uLYhXVrldFhN342RR5Uuva1XbXVFseuI2xqpcn4GSDEwEChCTmGQPE4oAEyog7LLPMSCJYzy9jA5C0n/x1HN64n4MTEhBmuB+IYGyYVACKA8x4VHS+UQIWRIaUD8WEk1Aiq/XGowcRiSBsxiRYSEiAYQGPg0FRR8LKcESd4WvwvsNsETpcaDRhGAgwmYSrkEHXI4yHzgIHafUqGEDdWqdjlcFKlGpDnFUqTTOwQWfAoQZLwmu9kJetYs6BUmJGFI3YoZdEqDjdV8/pUolB8qpMG+gSXEwz6TJRWSSmO7gSZruBXwKTS4g8WiaXJPjiDT1RookQOQtBu6l4mbY4IpN7WaDcBcUJOzd9IJBQGBIiquqbiG66NCxdnytb2WEXlFl/w5Q37+kXhNftNGls+0Op519UVaVX/nP9fGO70T++wBnPw==);strokeColor=none;strokeWidth=48;spacingTop=-3;spacingBottom=-3;spacingLeft=-3;spacingRight=-3;points=[];labelBackgroundColor=none;rounded=0;html=1;whiteSpace=wrap;container=0;" vertex="1" parent="1">
          <mxGeometry x="1210" y="714" width="29" height="48" as="geometry" />
        </mxCell>
        <mxCell id="jFlGcLo877YmEgPMVWM7-52" style="vsdxID=1025;fillColor=#ff9300;gradientColor=none;fillOpacity=75;shape=stencil(vZPBUsMgEIafhmN2gAWanGt9D8aShBFDhlBb314iOJZGHS/2ttl//2U/whLcL6OeDeF0icE/m7M9xpHgA+HcTqMJNqaI4IHgvvfBDMGfpmP+nvVauUYv/nXtcMk+JkHtVhenbznTdcC6j8xjNujwlNRQDJKBVNkQikMCK5nPppTWLSWgKBWNvtilCT7qaP1U9FLudBhMk85reqeHrBVpORszb9JlQmenK6QE0NZIApT6hQihFbdE2FZEOwlCVj0pMPxHpHpE0QGyekQBHVYj0u+R73Hj27/9M4ri0GKNooDXt50epRSbRynvxvOHpUjB10r11rm8kdf67QqmVF5fPLwD);strokeColor=none;strokeWidth=48;spacingTop=-3;spacingBottom=-3;spacingLeft=-3;spacingRight=-3;points=[];labelBackgroundColor=none;rounded=0;html=1;whiteSpace=wrap;container=0;" vertex="1" parent="1">
          <mxGeometry x="1222" y="744" width="1" height="13" as="geometry" />
        </mxCell>
        <mxCell id="jFlGcLo877YmEgPMVWM7-53" style="vsdxID=1027;fillColor=#ff9300;gradientColor=none;fillOpacity=75;shape=stencil(vVTBbsMgDP0ajkEEwzLOXfcfqCUJGgsRYWv394UZLaU7TNGk3Izfs3kPxyFwWEY9G8LZEoN/Mxd7jiOBF8K5nUYTbEwRgSOBQ++DGYL/mM54nnVm5ujdf+YOV6xjlLW5iLMvTEhBOXxnXpGvwymhofAlFR3yQykQkkJpsXKg6tkyVgiNvtqlCT7qaP2EqCqg02EwTbqu6Z0eijyElosx8690EejsdGdICSpVdbtSVG00xFVl6Ef/+kat2M9R0l87Ek+0lf+bUX6mrmrKKDzv5ilJrD87ttHOw4Tq+SS863bz8vcKbeWnYN3X3jqH636PP+53SuG/AY43);strokeColor=none;strokeWidth=48;spacingTop=-3;spacingBottom=-3;spacingLeft=-3;spacingRight=-3;points=[];labelBackgroundColor=none;rounded=0;html=1;whiteSpace=wrap;container=0;" vertex="1" parent="1">
          <mxGeometry x="1217" y="728" width="15" height="1" as="geometry" />
        </mxCell>
        <mxCell id="jFlGcLo877YmEgPMVWM7-54" style="vsdxID=1029;fillColor=#ff9300;gradientColor=none;fillOpacity=75;shape=stencil(vVTBbsMgDP0ajkEEwzLOXfcfqCUJGgsRYWv394UZLaU7TNGk3Izfs3kPxyFwWEY9G8LZEoN/Mxd7jiOBF8K5nUYTbEwRgSOBQ++DGYL/mM54nnVm5ujdf+YOV6xjlLW5iLMvTEhBOXxnXpGvwymhofAlFR3yQykQkkJpsXKg6tkyVgiNvtqlCT7qaP2EqCqg02EwTbqu6Z0eijyElosx8690EejsdGdICSpVdbtSVG00xFVl6Ef/+kat2M9R0l87Ek+0lf+bUX6mrmrKKDzv5ilJrD87ttHOw4Tq+SS863bz8vcKbeWnYN3X3jqH636PP+53SuG/AY43);strokeColor=none;strokeWidth=48;spacingTop=-3;spacingBottom=-3;spacingLeft=-3;spacingRight=-3;points=[];labelBackgroundColor=none;rounded=0;html=1;whiteSpace=wrap;container=0;" vertex="1" parent="1">
          <mxGeometry x="1217" y="731" width="15" height="1" as="geometry" />
        </mxCell>
        <mxCell id="jFlGcLo877YmEgPMVWM7-55" value="&lt;div style=&quot;font-size: 1px&quot;&gt;&lt;font style=&quot;font-size:15.52px;font-family:Segoe UI;color:#000000;direction:ltr;letter-spacing:0px;line-height:120%;opacity:1&quot;&gt;Microsoft Cost Management&lt;br/&gt;&lt;/font&gt;&lt;/div&gt;" style="verticalAlign=middle;align=center;overflow=width;vsdxID=1194;fillColor=none;gradientColor=none;shape=stencil(nZBLDoAgDERP0z3SIyjew0SURgSD+Lu9kMZoXLhwN9O+tukAlrNpJg1SzDH4QW/URgNYgZTkjA4UkwJUgGXng+6DX1zLfmoymdXo17xh5zmRJ6Q42BWCfc2oJfdAr+Yv+AP9Cb7OJ3H/2JG1HNGz/84klThPVCc=);strokeColor=none;points=[];labelBackgroundColor=none;rounded=0;html=1;whiteSpace=wrap;container=0;" vertex="1" parent="1">
          <mxGeometry x="1305" y="758" width="114" height="50" as="geometry" />
        </mxCell>
        <mxCell id="jFlGcLo877YmEgPMVWM7-56" style="vsdxID=1168;fillColor=#258277;gradientColor=none;shape=stencil(vVfddpswDH4aLqNjWcY/1133HpyWJJxlIYfQNXn7KcMYjAvZupI7sGVZn/Tpxxk9nffFqcykOLdN/aN8r17bfUbfMimr475sqpa/MnrO6GlbN+Wuqd+Or93/qbhJ3r5+1r9uGi7dORTidkaKa/evDUj6s/K9Ey+aF95tvDjloPLuQONPoAUtuyUvZB0IjLRaBKe8zKa4VOdNU7dFW9XHbt/bcCiaXbnhGzfbQ7GLts7vZXkaLeO8jbkEa2IbpQFjIhtzA0rHNlqwtJ6Nh+pYLl3fB+JDcYVg/0ucwfm4fegyS5BT7DJFwYteSCZKCeSKUY0xJbdrC6jnIWkFQsWQiECrGJKA3EVaDd+DX4pJLLjdgJswVWmQGNmYBtNwEsr1bLzHpVyDWOJSDlNMOYi4QjiIVTJqtI+qD0qA0ZP6gKBiryOCkXHGGaCv9fqSjQ6cm9jIzNB3mIHigRmZXr9AIy54+GlZhiUWUt3YwJ5AOexPjJrSNKAEZkXSxZjS6yX3TbuQRiK0rABKDnk/4ykuk27F8nUnTkoBLgwP3C/EhNQqKcmpo3LW6h6VeLcBZ1Ic0gFnfmh6AJPuTmzxgJdmKdc/Pa8+lZfc5heIihyeCVF5uJn0WRci3/dihBV5+vLWdD7A9H4Mge6H1IsM84EHcu1XhspyocBY7w1xpc85dCofB8xgKP1DhP2YMANvfATD+KMohsdqBMX4NA7pR0lS9ysOpPyHKsDjibNL5o4NwXDGzxTB3DGofkkOxKJUimbcFdv7F/7lj+G9tK0Oh+65Nd6fvq94qXub0fNv);strokeColor=none;spacingTop=-3;spacingBottom=-3;spacingLeft=-3;spacingRight=-3;points=[];labelBackgroundColor=none;rounded=0;html=1;whiteSpace=wrap;container=0;" vertex="1" parent="1">
          <mxGeometry x="1357" y="730" width="8" height="15" as="geometry" />
        </mxCell>
        <mxCell id="jFlGcLo877YmEgPMVWM7-57" style="vsdxID=1169;fillColor=#ffca00;gradientColor=none;shape=stencil(rZLJEoMgDIafhqMMEB3suct7MC0qUypOpNW+fbHYqXQ79ZblC8kfQmDdN6rTRLDeozvqwRx8Q2BDhDBto9H4YBHYElhXDnWN7tweot+piZysk7tML4yxjjM21Qh2jT6jXN4Du0hb0y5osaIcfvIK9yGJM19KysvI41wggZY8hmYoHaAoHi+yMVOj6TN0Xnnj2oS2CmudhW5ZZVWdpPpB624R5t/15JKyImn/2MdHObyQNF+lejgAhTwR9LbTv8pJ5gvG82crY208jGX+9RJCKF4RbG8=);strokeColor=none;spacingTop=-3;spacingBottom=-3;spacingLeft=-3;spacingRight=-3;points=[];labelBackgroundColor=none;rounded=0;html=1;whiteSpace=wrap;container=0;" vertex="1" parent="1">
          <mxGeometry x="1369" y="739" width="14" height="17" as="geometry" />
        </mxCell>
        <mxCell id="jFlGcLo877YmEgPMVWM7-58" style="vsdxID=1170;fillColor=#76bc2d;gradientColor=#5e9624;shape=stencil(xVTRboMwDPyaPBIZRzTw3LX/Ea0BoqUEhWzt/n5hpi2M0kpV1b05Pp+di3JmYt3VqtUMoQvefeiD2YWaiTeGaJpaexNixMSGiXXpvK68+2x2dG5VX9lHe/fVdzgSLyt4IXsWwjdlpOQy+81siaD8e0T9QBCCY0oEPzBQ8lVBqcWuiFzkQ02ijqZLvAsqGNcQDoRZ5SudxIlJaVU1gbqD1u0onY7vaE1zUxQsCxoVnwRlMFEDk1Zn8DkyYFnG1bkPapg/SQovE7I8/EE157sPcC559ioxOXJIp46B0/+/7hjk+WrmGHHPMRcf/otjZmsgBpclUhpraQeN8b9LJ6ZoYYnNDw==);strokeColor=none;spacingTop=-3;spacingBottom=-3;spacingLeft=-3;spacingRight=-3;points=[];labelBackgroundColor=none;rounded=0;html=1;whiteSpace=wrap;container=0;" vertex="1" parent="1">
          <mxGeometry x="1338" y="715" width="38" height="46" as="geometry" />
        </mxCell>
        <mxCell id="jFlGcLo877YmEgPMVWM7-59" style="vsdxID=1171;fillColor=#cccccc;gradientColor=none;shape=stencil(rVLLDoMgEPwajhoETOrZtv9BKiopFbPQqn9fCNZX6sX2tjs7u7MLg2huat4KRLCxoO+ik4WtET0jQmRTC5DWRYheEM1LDaIC/WyKkLfcM3300C8/oQ992HcQPCyzayAq2fxOZCxO2WEyh5urwkhOWcxCGcMwQWlAPpw0JtlqaIJHkT7ivTQRaMut1M1qAcWhEpGTi0rFq1XJdEK0CzjZv2aS2kh/vSbL4lO2vmZedf/N/3XGsa92weykUioVjLisb53noOBaenkD);strokeColor=none;spacingTop=-3;spacingBottom=-3;spacingLeft=-3;spacingRight=-3;points=[];labelBackgroundColor=none;rounded=0;html=1;whiteSpace=wrap;container=0;" vertex="1" parent="1">
          <mxGeometry x="1360" y="713" width="27" height="27" as="geometry" />
        </mxCell>
        <mxCell id="jFlGcLo877YmEgPMVWM7-60" style="vsdxID=1172;fillColor=#999999;gradientColor=none;shape=stencil(rVLLDsIgEPwajiUUagtnrf9BlLZELM2Ctv69NJAoPuLF2+7M7C4TBrGtG+SkECXOgz2pWR/9gNgOUarHQYH2oUKsRWzbWVA92Mt4jP0kV+Vane113bDEuZKQdYaSW97vo1jCIXCQxIJjXkU5JL0QmLAIJRHFm2xj2r8UctGuAOul13bMOCOhV0W4VXRG9hnlZqWmNzi9zujxyQr5cPajsMaszk2XWDTfbfMaN7nrgPAmc80bzPOlosKE/tV7+d3Sj28MxSMAnTYm5ueZfw1MgGLYWHsH);strokeColor=none;spacingTop=-3;spacingBottom=-3;spacingLeft=-3;spacingRight=-3;points=[];labelBackgroundColor=none;rounded=0;html=1;whiteSpace=wrap;container=0;" vertex="1" parent="1">
          <mxGeometry x="1360" y="725" width="15" height="15" as="geometry" />
        </mxCell>
        <mxCell id="jFlGcLo877YmEgPMVWM7-61" style="edgeStyle=orthogonalEdgeStyle;rounded=0;orthogonalLoop=1;jettySize=auto;html=1;entryX=0;entryY=0.25;entryDx=0;entryDy=0;" edge="1" parent="1" source="jFlGcLo877YmEgPMVWM7-62" target="jFlGcLo877YmEgPMVWM7-23">
          <mxGeometry relative="1" as="geometry">
            <Array as="points">
              <mxPoint x="5" y="109" />
            </Array>
          </mxGeometry>
        </mxCell>
        <mxCell id="jFlGcLo877YmEgPMVWM7-62" value="Cliente" style="shape=umlActor;verticalLabelPosition=bottom;verticalAlign=top;html=1;outlineConnect=0;" vertex="1" parent="1">
          <mxGeometry x="-10" y="-62.72000000000001" width="30" height="60" as="geometry" />
        </mxCell>
        <mxCell id="jFlGcLo877YmEgPMVWM7-63" style="edgeStyle=orthogonalEdgeStyle;rounded=0;orthogonalLoop=1;jettySize=auto;html=1;" edge="1" parent="1" source="jFlGcLo877YmEgPMVWM7-23" target="jFlGcLo877YmEgPMVWM7-29">
          <mxGeometry relative="1" as="geometry">
            <Array as="points">
              <mxPoint y="117.5" />
              <mxPoint y="463.9450000000006" />
            </Array>
          </mxGeometry>
        </mxCell>
        <mxCell id="jFlGcLo877YmEgPMVWM7-64" style="edgeStyle=orthogonalEdgeStyle;rounded=0;orthogonalLoop=1;jettySize=auto;html=1;" edge="1" parent="1" source="jFlGcLo877YmEgPMVWM7-7" target="jFlGcLo877YmEgPMVWM7-8">
          <mxGeometry relative="1" as="geometry" />
        </mxCell>
        <mxCell id="jFlGcLo877YmEgPMVWM7-65" value="Applicaton Insight" style="image;aspect=fixed;html=1;points=[];align=center;fontSize=12;image=img/lib/azure2/devops/Application_Insights.svg;" vertex="1" parent="1">
          <mxGeometry x="1369" y="235" width="45.4" height="65" as="geometry" />
        </mxCell>
        <mxCell id="jFlGcLo877YmEgPMVWM7-66" value="&lt;span style=&quot;font-size: 16px;&quot;&gt;ONBASE CAJA&lt;/span&gt;" style="rounded=1;whiteSpace=wrap;html=1;fontStyle=1;verticalAlign=top;align=left;shadow=0;fillColor=#fff2cc;strokeColor=#d6b656;glass=1;" vertex="1" parent="1">
          <mxGeometry x="-10.5" y="1040" width="425" height="256" as="geometry" />
        </mxCell>
        <mxCell id="jFlGcLo877YmEgPMVWM7-67" value="" style="rounded=1;whiteSpace=wrap;html=1;" vertex="1" parent="1">
          <mxGeometry x="53.14999999999998" y="1080" width="290" height="163" as="geometry" />
        </mxCell>
        <mxCell id="jFlGcLo877YmEgPMVWM7-68" value="" style="shape=image;verticalLabelPosition=bottom;verticalAlign=top;imageAspect=0;aspect=fixed;image=data:image/jpeg,/9j/4AAQSkZJRgABAQAASABIAAD/4QBoRXhpZgAATU0AKgAAAAgAAYdpAAQAAAABAAAAGgAAAAAABJKGAAcAAAAQAAAAUKABAAMAAAABAAEAAKACAAQAAAABAAAA9qADAAQAAAABAAAA9gAAAABBU0NJSQAAAG1hZ2UgMTlN/+0AOFBob3Rvc2hvcCAzLjAAOEJJTQQEAAAAAAAAOEJJTQQlAAAAAAAQ1B2M2Y8AsgTpgAmY7PhCfv/AABEIAPYA9gMBIgACEQEDEQH/xAAfAAABBQEBAQEBAQAAAAAAAAAAAQIDBAUGBwgJCgv/xAC1EAACAQMDAgQDBQUEBAAAAX0BAgMABBEFEiExQQYTUWEHInEUMoGRoQgjQrHBFVLR8CQzYnKCCQoWFxgZGiUmJygpKjQ1Njc4OTpDREVGR0hJSlNUVVZXWFlaY2RlZmdoaWpzdHV2d3h5eoOEhYaHiImKkpOUlZaXmJmaoqOkpaanqKmqsrO0tba3uLm6wsPExcbHyMnK0tPU1dbX2Nna4eLj5OXm5+jp6vHy8/T19vf4+fr/xAAfAQADAQEBAQEBAQEBAAAAAAAAAQIDBAUGBwgJCgv/xAC1EQACAQIEBAMEBwUEBAABAncAAQIDEQQFITEGEkFRB2FxEyIygQgUQpGhscEJIzNS8BVictEKFiQ04SXxFxgZGiYnKCkqNTY3ODk6Q0RFRkdISUpTVFVWV1hZWmNkZWZnaGlqc3R1dnd4eXqCg4SFhoeIiYqSk5SVlpeYmZqio6Slpqeoqaqys7S1tre4ubrCw8TFxsfIycrS09TV1tfY2dri4+Tl5ufo6ery8/T19vf4+fr/2wBDAAICAgICAgMCAgMEAwMDBAUEBAQEBQcFBQUFBQcIBwcHBwcHCAgICAgICAgKCgoKCgoLCwsLCw0NDQ0NDQ0NDQ3/2wBDAQICAgMDAwYDAwYNCQcJDQ0NDQ0NDQ0NDQ0NDQ0NDQ0NDQ0NDQ0NDQ0NDQ0NDQ0NDQ0NDQ0NDQ0NDQ0NDQ0NDQ3/3QAEABD/2gAMAwEAAhEDEQA/AP38ooooAKKKKACiiigAooooAKKKKACiiigAooooAKKKKACiiigAooooAKKKKACiiigAooooAKKKKACiiigAooooA//Q/fyiiigAooooAKKKKACiiigAooooAKKyNc1/QvDOmzaz4j1C10uwgGZbq8mSCFB/tO5VR+dfDPxJ/wCCjPwJ8GPLZeE/tvjO9j4/4l6eRZ7ve5m25HvGjj3rpw+Dr13ajFs4MdmuDwUebFVFH1evyW7Pv2ivwj8a/wDBTH41647xeDdK0fwzbkna5jbULkDtl5SsWf8AtjXzH4j/AGqv2i/FLOdW+IOtqr9Y7O4+wx/982wiFe5R4WxctZtR/H8v8z4zF+JOWU3ajGU/lZfi7/gf08UzzI87dy59M1/JdqHjLxhqzmTVde1S9Y9TcXs8p/8AH3NZH9palu3/AGu43evmvn8812rhCXWr+H/BPJl4pU7+7hn/AOBf/an9ddFfyWaf408ZaQ4k0rX9VsmHQ297PEf/ABxxXr3hz9q39o3wqyHSviBrTqnSO9nF+n023IlGKzqcJVV8FRP1Vv8AM6KPihhW/wB7QkvRp/5H9OtFfhP4J/4KZ/GjRGSLxppGj+JrcEb3VG0+6I7/ADxF4s/9sq+4fhr/AMFFPgN42eKy8UPeeDb6TjGpIJbPcewuYdwA95FjFeTichxtHVwuvLX/AIP4H02A40yjFtRjV5X2lp+O34n3vRWZo2t6N4i06HV9Av7bUrG4G6K5tJUnhcequhKn8DWnXkNNOzPqU01dBRRRSGFFFFABRRRQAUUUUAFFFFAH/9H9/KKKKACiiigAooooAKKK4H4g/Ejwz8NtHOqeIJ/3kmRbWseDPcOOyL6Duxwq9+1ZVq9OjB1artFbtmVevTo03VqytFbtna3l5aafay31/PHbW8Cl5ZZWCIijqWYkAD614/8AHvxZ498KfB3xB4y+FFvZ6jrWnWf22BLlWmje2XDSyRqjDe6RZdAThsY5zivgH4l/F/xZ8Tbw/wBpy/ZdMRswadAx8lMdC54Mj/7TcDsBX1Z+y98S113RJPh3rcge70yMtZGTnzrPoY+epiJxj+4R6Gvmsq4ww2JzBYeMfd6N/aa6W6J9D4zC8XYfMMVLAUrxUk1GXW/p08j8A/iH8V/iJ8WNVOtfELX7zW58lo1nkxBDntDCu2KIeyKPevPq+qP2wvge3wO+MuoaXp0Bj8Pa5u1TRiB8iQysfMgB9YJMqB12FCetfK9f0VhKlOdGM6KtFrQ/D81o4iji6lLFtuadm3rfz+YUUhIAyeK9A8K/Cn4neOSv/CHeE9Z1lW6SWdjNLF/38C7B+Jrac4xV5OyOSlRqVZctOLb8lc4CivrPSP2G/wBqPWUEkXgmW1U/8/l7aW5/FXm3D8q6X/h3t+1H/wBC/Yf+DW1/+LrjlmeETs6sfvR6kOHc0krxw8//AAFnxPRX1hrH7D37UWjIZJfBE10o6mzvLS4P/fKTFj+ArwvxV8LfiX4HJ/4THwrrOiqvV72xmhj/AAkZNh/A1tTxdCppTmn6NHNiMqxtBXrUZRXnFr9Dg6KQEEZHNLXQeeek/Db4v/Er4Q6oNX+HniC70eQsGlhjfdaz47TQPuikH+8pI7EV/SB+zt428ffEP4P6B43+Jen2ml6tq0BuRFah0RrVv9TMySEmNpU+fbuIAYfQfgX+yf8ABGX47fGLS/Dd3EzaFpxGpa24yF+xwMP3WezTviMd8Fj/AA1+9/xk8YQ+GtCj8K6OVhub2LyysY2iC0X5cADpuxtUemfavz7jbH4bDQu4rmWrfXyXzP1zw/8ArFDC1cbXm/ZLSMb6N9Wvy08+x7hDNDcRJPbussbgMroQysD0II4IqSvg7wT8Rdd8FTqlq/2nT2bMlnITs56lDzsb6cHuDX2X4V8W6N4w04ahpEu7GBLC3EsLH+F1/keh7V8DlmcUcYuVaS7f5dz9Iy7NqWKVlpLt/kdNRRRXrnqBRRRQAUUUUAFFFFAH/9L9/KKKKACiiigAooriPiD470f4deGbnxHq53CP5LeBTh7ids7I1+vUnsoJ7VnWrQpQdWo7RWrZlXrU6NN1artFatmB8WPivovwu0T7XdYudTugy2NkGw0jDq791jX+I9+g5Nfl34q8V69401qfX/EVy1zdzn6JGnZI16Ki9gPqcnJp/i7xbrfjfX7rxHr83m3Vy3Cj7kUY+7HGOyKOnr1OSSa5qvxbiHiCrmNXljpTWy/V+f5fn+F8ScSVczq8sdKS2X6vz/IK2/DfiHU/Cmu2PiLR5PLu7CZZYz2bH3lb1V1yrDuDWJXsnwq+Cvib4n3IuYQdP0WN9s2oSLkEjqkK8eY/r/Cvc54PjYLD161aMMMm59Lfn5ep4mAw2Ir14wwqbn0t+flbue7/ALTPw00/9qv9nqLXvCEHneIdLQ6ppEYwZfPQbbmyJ9ZFBUDoZFQ9K+K/g5/wTQ8ZeIY4NZ+MWrr4btHCv/ZdhsudQKnBxJKcwQnHp5p9cGv2D8C+A/D3w70NdA8OROkG8yyvK5eSWUgAuxPGSAOAABjgV2Vf0plmc4/D4KNCTSl1t362P2irwphcdVhjMxheqopSSfutrr0bPnH4cfsl/AD4XpFJ4e8I2V1exAf6fqi/b7osP4g824If+uaoPavoxESNBHGoVVGAqjAAHYCnUVzVa9Sq+apJt+Z9JhsJQw8OShBRXZKwUUUVkdAUySOOaNopVV0cYZWGQQexB60+igD5r+I/7Iv7PvxPSWTXfCdpY30uf9P0kf2fchj/ABEw7Uc/9dFcV+afxk/4JqeO/DEc+s/CLVF8U2UeX/s27222pKo5wj8QzED/AK5k9lJr9wKK9TB5zi8O/clddnqv69D5zNOFMsx6ftaaUu8dH/wfmmfD/wCyD8Hbf9m/4HS+IPGFubXxHrqrqerI4xNCoGLaz/3kVuR2kdh2riPEGuX3iTWLrWtQbM1y+7HZFHCoPZRwK+9fFHhfS/F2lPpGrB/KLB0aNirI65ww7HGehBFfGfjn4c614Jn8ycfatPdtsV2gwuT0Vxzsb9D2Pavg+MamMxNT28leG7t38/JLRHm5pl08LhqeHoR/dQX493/XVnntbfh/xDq3hjUo9V0eYxTJww6pIvdXXup/+uMGsSivhYTlCSlF2aPnoTlFqUXZo++vA3jjTPG+li7tcRXUWFubYnLRse49UPY/h1rtq/O3w34j1Pwrq8OsaW+2WI4ZD9yVD95GHcH9DyORX3j4W8S6d4s0aHWdNb5JBtkjP3opB95G9x+owe9fomSZusXDkqfGvx8/8z7zJ80WJjyT+Nfj5nQ0UUV7x7QUUUUAFFFFAH//0/38ooooAKKKKAI5pYreJ553WOONS7uxwqqoySSegA61+Vfxt+J8/wAS/Fsk9s7DRtPLQadH0DLn5piP70pGfZQB619W/tS/ERvD3hmLwXpsuy+11SbgqcNHZKcMPbzW+X/dDV+d1fmPG+cuU/7PpPRay9ei+W/r6H5Rx7nblUWXUnotZevRfLf19Aoor1r4OfDC7+J/ilNPbfFpVltm1GdeCseeI1P9+Qggegy3avhMLhqmIqxo0leT2Pz7CYWria0aFFXlJ2R2HwM+B9z8Rbsa/r6vb+HbaTBxlXvZFPMaHqEB4dx/ujnJX9J7CwstLsodO02CO2tbZBHFDEoVERegAHAFN03TbHR7C30vTIEtrS1jWKGGMYVEUYAAq7X7dkmSUcuo8kNZvd9/+B2P3rIMho5ZQ5IazfxPv/wOyCiiivbPeCiiigAooooAKKKKACiiigAqteWdrqFrLZX0STwTKUkjcblZT2IqzRSaTVmJpNWZ8VfE34Z3Hg65OpaaGm0id8Kx5a3Y9Ec+h/hb8Dz18kr9Jb6xtNTs5tPv4lmt7hDHJG4yGU9RXwn8QPBdz4J117E7pLOfMlpMf4o8/dJ/vJ0P4HvXwGfZP9Xft6K9x/g/8j4jOsqVB+2pL3X+H/AOGr0v4X+OJPB2vKty5/sy9Kx3S9kPRZQPVe/qufavNKK8HD4idCoqtN6o8ShWnRqKpDdH6XKyuodCGVhkEcgg9xTq8S+CXi863oLaDePuu9KCqhJ5e2PCH/gB+U+2K9tr9VweKjiKMa0NmfpeFxMa9KNWPUKKKK6ToCiiigD/1P38ooooAKKKKAPzq+J3wp+M/j3xxqniRtAkME0pjtFa5txstovliGPN4yBuPuTXBf8ADO/xi/6F5v8AwJt//jtfqlRXx1fgnB1qkqtSpNtu71XX5HxGI4DwNarKtUqTcpNt6rr/ANun5W/8M7/GL/oXm/8AAm3/APjtfoP8Jvh7a/DfwbaaEgVr2QeffzL/AMtLlwN3PdU4VfYe5r0uivQynhnCZfVdak25NW1tp6WSPSybhXB5bVdai25NW1tp6WSCiiivoT6UKKKKACiiigAooooAKKKKACiiigAooooAK4f4g+EIfGXh2bTsAXcWZbSQ/wAMqjgZ9GHyn657V3FFZVqMKsHTmtGZ1aUakHTnsz4Y/wCFRfEP/oEt/wB/of8A45R/wqL4h/8AQJb/AL/Q/wDxyvueivnv9VsJ/NL71/keF/q1hv5pfh/kfI/gTwP8RfCniiy1c6W4gD+VcgTRHMEnD8B+dv3h7ivriiivXy/L4YSDp022nrr/AMMj1MDgYYWDhTbafcKKKK7ztCiiigD/1f38ooooAKz9V1XTNC0261nWbqGxsLKJp7i5uHEcUUSDLO7MQFAHUmtCvxd/4KT/AB7v7/xFb/Afw9ctFp2nRw3uu+W2PtF1KA8Fu+OqRIVkI6FnXPKCu/LcDLF11Rjp3fZHjZ9nNPK8HLFVFd7Jd29l/XQ9E+L/APwU40XSNQn0b4NaCmtiFin9r6qzw2shHGYbdNsrr6M7Rk/3cV8uTf8ABST9pGW486NtAhTOfKXTmK49MtMW/Wvmb4G/BPxd8e/Hdv4H8JBImKG4vb2YEwWVqhAaWTHJOSFRRyzEDgZI/W7TP+CX/wAGINKW31bxH4iu9Q24a6hktoI9/qsJgkwM9i7H3r6+vSyjAWpVY3f3s/LMHiuKM65sThp8sL9Gor0XV/j6nifw3/4KieIIb2G0+LPhW1ubJiFkvdDZ4Z4x3Y287usn0Eie2a/WP4ffETwb8U/C1p4y8CanFqmlXYIWWPIZHX70cqHDRyL/ABIwBH0Ir+e/9qf9k7xH+zdqtndrenW/C+rO0dlqXl+VJHMo3GC4QEqsm0FlZTtcAkAEEC9+xT8e7/4L/Fyw06+umXwt4pni07VYGb91HJKdkF0B0DROQGPeMsD0GOfHZLhcRh/rOB9fJ/5M7cn4tzHA49ZdnOqva7tdX2d1uv68j+jeiiiviT9fCioJ7q1tsfaZo4t3A3sFz9MkVMrBgGUgg8gjoaAufDv7a/7THjj9nPS/Cs3gmx0y7m8QTX0cz6jHLIIharCV2LHJHyfMOck9BX5vz/8ABSP9pOViY30CEeiacxH/AI9Mxr6W/wCCq3/II+G//X1q/wD6Ba18H/sc+A/CXxK/aC8PeD/HGnpqmj3kOoPPayO8au0NrLImWjZG4dQeDzjmvuspweE/s5YmtTTau38mz8b4mzXNHnzy/CV3FNxS1sk2l+rPa9J/4KXftC2MyvqNp4d1KMH5kkspYiR/vRTrj8jX238BP+CiHgT4m6zZ+EPiDpv/AAiOs3zrDbXPnefps8znCoZGCvAzHAUOCpPG/OBXWfEn/gnz+z/4s8O3dr4O0hvCmteUxs720uJ5IlmA+QTQyySI8ZPDYCtjoQa/n61GwudK1C60u9XZcWU8lvMoP3ZImKMAfZgarDYXLMypyVGHK18n/kzPH5lxDkFaDxdVVIS+adt1qk0z+vCivn79lXxhqvjz9nnwN4n1uVp7+fTFguJnOXle0ke3MjHuz+VuJ7k19A18PWpOnUlTlum19x+w4XERr0YV4bSSf3q4UVU+32Hm+T9ph8zps3ru/LOat1nY2TuFFFISAMngCgYtFVYr6ymfyobiKR/7qupP5A1aoBO4UUVBPdW1sA1zKkQPQuwUfqRQBPRTEkSVBJGwdT0ZTkH8RT6ACiiigAooooA//9b9/KKKKACv5TfjL4pn8bfFrxj4ruGLtqWt30yE9ovOZYh9FjCgewr+rBwSjBepBx9a/kW1hJI9Xv45v9Yl1Mr5/vB2B/WvseEYrnqy62X6/wCR+VeKNSSo4eC2bk/uS/zP2x/4JfeDbXTvhZ4l8ctGv2vWtZ+xB8fMLewiQqAfQyTPn6D0r9Oq+Cv+Cb8kT/s02yx/ej1vU1f/AHt6N/6CRX3rXg5zNyxtVvv+R9rwpSjTyjDxj/Kn9+rPlf8AbV8IWvjH9mjxrbzxh5tKsxq9sxHMctgwlLD3MYdT7Ma/mryw5UlWHII6g1/Ut+0XJFD8A/iJJMQEHhjVs597aQD9a/lpr6rhOTeHnF7J/ofmnidTisbRqLdx/Js/RL9tz4ha94m0D4MeIbbUruAa14LhvbmOGeSNHuHMe9mVWAJ3ZGTzXlfwZ/a/8f8AwY+G/izwpotxcXur63cWj6XeXspuYtMVUkW5kRJCwLsPL2LjYCCzA4wX/tLxyxfC74ArMCGPghm5/utcZX9CKp/sU/B/QvjP8c7HQ/FUAutE0izn1e+tm4W5WBkSOJ8fwNLIpcfxKCO9d1Olh44C9aN4xu/ukzycRicfUzxRwk2qk1FX/wAUFf8AO/8AwT5r8R+MPFHjHVJdb8V6xe6xf3DFnuL24eeQk+hYnA9AMAdhXr/wS/aV+KXwN8Q2up+HdXurrSVlU3ui3MzyWV1Dn5lCMSI3xnbIgDA+oyD/AEYeK/g/8N/F/gy88Cap4e00aTdWz26wxWsUYgyuFeHao8t0PKsuCCOK/ld1SxfS9TvNLkbc9ncS27N6mJyhP44pZbmFDMac6Tp2S6b6MOIMkxmQ1qWIhXcnK+qundWvfV33+Z+r/wDwUo8T6X418AfCHxfoj+Zp+tJqF/bMevlXEFo6g46EA4I7Gvjn9i7xl4W8A/tEeHfFPjPU4NI0m0g1FZru5bbEhltJUQE4P3mYAe5rv/j5czXX7In7PMk7FmRPEEQJ/uRXCIo/BVAr5Q+HXw68W/FbxbaeB/A9ot9rN8szwQPNHAGEEbSv88rKgwik8nmqwGHhHL5UJu0ffV/K7Vyc6x1aWe08ZSjzTapSS7vli7fefvf8S/29P2ffBfhy8vfDfiCHxTrAiYWen6ckjrJMR8nmTFRHHGDjcd27HQE8V+A2iaF4q+J3jOLRtAs5NT17xBeuY4IVyXmncu7HsqAkszHhVBJOBX0Prn7DX7UWg2T39x4Kluo4wWZbG8tbuXA9IopWdj7KpPtXAfB747/Ez9nfxHcXnhJbW3nMnk6hZajYxu0nlthoZHZVuYsEYKpImD1GajLcJQw9KbwMlOT7v7tjTP8ANMbj8TSWdU3SprtF9d3q9f07H9Hnwb+HsPwp+Fvhj4eRSCY6Hp0VtLKv3ZJ8b5nHs0rMR7GvwL/ag8V/HK4+OfjDwFrniDX9RSy1a5Fjp0U85iFlM3m23l28WF2mF0wduT35r9vv2b/2gvDn7RPgFfFekQmw1GzkFrq2ms+9rW5xuG1sDfFIPmjbAyMgjcpAt/FP45/A/wCB9y+pePdYsNN1e8iU+RBF5+p3EacLmOFWlKDorPhO2a+UwGKrYXFzU6XNN9Ot779T9MzvLsLmOW0nRxHs6Str0cbWtuvx27H81epeC/iHo1udU1fQNbsYFG83NzZXMKAepkdAB9c17N8Fv2s/jJ8FdWtptL1q51jREcfadF1KZ7i1liz8wjLlmgfHRoyOeoYcV+o2o/8ABTT4Ah5LSLRPEl9buCjMbO2VHU8EbZLkEgjsQK/GH4q6x4O8QfEfxFrvw/spdN8O6hfy3Wn2cyLE8EUuGMexGdVCsWCqGIC4Ar7DC1amLUqeMocq8z8rzPD0MqlDEZVjOeV9baNee9mv61P6LvFv7Sngzw9+zz/w0JZK15pt1YRXFhaFgkk13cMI47ZjztZZsrIRnaFY84r8Afil+0P8YvjPrEt74v8AEF5JBNIfI0uzkeCxhDHCpHAhAbHA3Nuc9ya+nIrfXPEn/BNxzbCSaDw144aSYLk7LRupP+ys10CfTrXxR8OPGUnw78feHvHcNnFqD6BqNvfraznEcxgcNtJwduccNg7Tg4OK5cny6lQVWUVzSUml8tl5HpcV59icW8NSqTcKcoRk7d3u/O3RHSj4NfHOwsl11fBXim3t9vmLcrpl4gC9d24Rgge9fp1/wTS1r4qeItR8Yy+Kte1a/wDD2jW9tYwWWo3Ek0cV9M5dtglLMjRxx4KggYcZHSvdvh3/AMFE/wBn7xkIbbxHcXvhC+kADJqcJktgx7C5g3rt/wBpxH74r6Q+IfxB0Dwr8G/FXxV8J3FleQW+j3mp295ZNHLDczpCRE3mJlXy4Vc5PAx2rycyzLE1abw1ehyuVkn8/wCup9Nw/wAP4DDVlmGDxfPGCba+XXXT0aPz0/bL/bm13wx4gvvhL8F7pbS709jBrGuqA8kc44e2tc5VWj6SSkEhsquCpavy1tdL+LXxZv7nULO18ReMLtW3XE8cd1qTqx5+dgJCD9TXBTT3F/dSXN7MXnuZGkmmkJZmeQ5Z2PUkkknua/fj4X/tWfsbfCrwJo/gTwz4sitrPS7aOJimm3waabaPNmkP2f5pJXyzE9z6Yr2KlNZZQjHC0nOT3aX4v9EfK0Kz4hxlSpmOKVKmtk2lvskm0vV6/ifi14N+KXxi+CHiIv4a1jVvDuoWcgE9hOZEiJHOye0mGxgfRkz6Y61+/H7J/wC0tpv7RvgeW/uYY9P8TaM0cGsWMZPl7nBMdxDklvKl2nAOSrAqScAn84f28vix+zr8aNC0HxL8Ntai1Dxbpt39luNllc27zadKjsd7ywxq3lSquwEkje2OprzL/gnb4svPD37Sem6PFIVtvEen32n3CdmMURuoyR6hocD0DH1rnzHDRxuBeJnT5KiV9tdN/VW2O7IsxqZTnMcvp11VozaWjutdnu7NPRn9ClFFFfAn7WFFFFAH/9f9/KKKKACv5cf2kfBNx8PPjt428LTRmOOLWLm5tsjG61vG+0Qke3lyAfUV/UdX5nf8FBP2YdV+JOl23xd8A2bXmv6HbG31OygXdNe2CEurxqOXlgJb5RyyEgcqAfoOHMdHD4nlqOylp8+h8Px7k9THZep0VeVN3t3XX/P5HFf8EuviPYy6B4r+FF3OqXlvdrrdlExwZIJkSCfb6+W8cZP+/X6zV/JX4O8ZeKfh54msvFvg/UJtK1jTJC8FxFwynlWVlIIZWGVZGBDDIIr9C9N/4Kh/F220pLXUfC2gXt8iBftebiFXYfxNCshGT3Cso9MV6mc8P162IdbD2alv01PnOFOOMHhcDHCY66cNE7Xuv81sfeX7fnxGsPA37O2taO8yrqPi1o9Hs4s/OyOwe5bHXasKsCexZR3FfzyWVjd6ne2+m6fG011dypBBGoyzyysFRQPUsQBXpvxg+NfxC+OXif8A4Sn4g6gLqaJDFa20K+VaWkROSkMWTtBPLMSWY/eJwMfcP/BP/wDZf1bxV4tsfjd4zsnt/DuiP5+ixzoVOoXy8JMoPWGA/MG6NIFxkK1enhKUcqwLlVeu/wA+iR89meJqcTZxCGFi1BWS8le7k/v/ACRg/wDBQvwungmf4SeDo8Y0Twgun5XoTbMkZP4lc1Z/4Jg/8lz1/wD7Fe4/9K7Wun/4Km/8lE8D/wDYFuv/AEoFcx/wTB/5Lnr/AP2K9x/6V2tc6k5ZI5Pdp/md8qcYcYRhHZSS/wDJUfuzX8k/jL/kcNe/7Cl7/wCj3r+tiv5J/GX/ACOGvf8AYUvf/R71w8I/HV+X6nr+KX8LD+sv0Prv45/8mgfs9/73iT/0qWs39gD/AJOn8K/9e+qf+kM1aXxz/wCTQP2e/wDe8Sf+lS18+/Av4t3vwO+Jml/ErT9Oi1WfTEuYxaTSNCji5heE5dQxBUPkcHkV71OnKpgqtOG7c1/5Mz47EYmnh85w1eq7RiqLfooRP6n6/n4/4KO6PoWlftHST6OkcU+paLY3eoLGAM3RaWPewH8TRRxk9z1PWvVdd/4KlfEG7sJIPDvgrSdNu3Uhbi5u5rxUJ/iEYSHJHu2K/Nzxn4z8S/EHxPqHjLxjfyalq+py+dc3MuAWOAAAAAqoigKqqAFUAAV5OQ5NicNXdatorWtff7j6TjbizL8fg1hcI3J3TvZpK3rrc+w/2IvinqPwnb4r+J7ZfOh07wXNqSwNny3vba5iitdw9N9wQe+Ca+Q7m98V/FDxuLnVLuTVfEPiXUI42nuHy01zdSBEyT91dzAADhV4AwMV+m/7LH7J3irVP2dfiPrmtWr2Or+P9FNhoNtcDy5Ps8H7+ORw2Cq3E6ptz/Aobowr8sopNb8JeII5dkunavot6r7ZF2y293ayAgMrDhkdeQe4r2MJUo1MTXlStzKy/D/M+WzXD4rD5fg6eJTVN3dvWX52s16n7T+Ev+CXvwvtdIhXxt4m1rUdUZAZ309oLS2VyORGrwyuVB6FmyeuB0r8m/jx4B0n4W/GDxV8PtCnuLmw0O++zW8t0VaZkMaP85RUUnLY4UV+jvhv/gqfLBo8MPi3wCbrU44wss9hqIhglcDlhHJC7R5643NivzR+MPxC/wCFsfE7xF8RjY/2Z/b139p+yeb53kgIqBfM2pu+7nO0da5MohmKryeM+G2m1r38j0uKa2QSwdNZUlz310d7We7fnY/Zn/gnHpem65+zHqujaxaxXtje+INTgubadBJFLFJBbKyOp4KsDgg1xHxT/wCCYnhPWry41X4T+I5PD5lJddM1GM3dohPO2OZWEyJ6BhKR61498DPj1qf7Pn7ENx4r8PRW1xrd/wCOJrCxivFZ4TmGCWZnVWRiBFGw4YYZga7HQf8Agqmy2ap4o+HvmXQHzSafqeyJj7JLAzKP+BtXk1MPmUcVVr4PZyfb8mfUUsdkE8vw+DzW3MoJp2el/Na/I/P/AOOP7NfxT/Z+u7VPHtlA1jqDvHZ6lYzefaTugyUyQro+3na6KSMkZwa3/gX8RfE9r4M+I3wfiuJp9G8TeF9Tu47MsWSG906L7X5sa/wl4YZEfH3vlJ+6K6X9qL9r3xJ+0mmm6NJo0GgaDpM7XUFqkpuZ5bhkMYkllKoPlRiFVUAG45J4x65/wTr+COo+NviHf/EbWbJj4Y0fT73TvMkUiO7utQha3eFCfvBIJHLkfdJUd696tWnDAOpjklJa/O+nzPisJhaNTO1QyaTdN6XfZr3u2lr7n5zRKryIjuI1ZgC56KCeSfYda/TW2/4JffEy8t4ru18a+HpYZ0WSN1juirI4ypB8voQcivjb9oH4IeJPgJ8RtQ8Ga1DI1g0jzaRfMp8u9sSx8t1boXUYWRequD2IJ+kPgZ/wUH+JXwl8N2fgzxHpdv4u0fTo1gsmnna1vYIUGFi84LIsiIOFDJuAwN2AAKx1TF1aUauXyT+7X7zLJqGWYfFVMLnkGraJ66Nb3t37noH/AA62+Kf/AEOXh/8A793X/wAbr2/9nL9gXx18GvjFoPxI1/xLpGoWej/ama3tEnEztPbyQrguoXAMmTk9BXn2s/8ABVPV5LYr4e+HlvBORw97qbTID7pHBGT/AN9Cvrz9iv8AaS8Q/tE+E/EV14xhtINa0TUlRksUaKH7HdJugwrs7ZVkkUksc4FfPY6vnEMPKWIso7Pbrp0Pu8nwnC1bH06eBu6i95fFa8dep9p0UUV8gfqIUUUUAf/Q/fyiiigAooooA+Ufi9+xf8B/jHfTa3rGkSaPrVwS0upaNILWWZz/ABSxlXhkb1Zoyx7tXy5N/wAEsPAbXG638d6ykGfuPa27vj/fG0f+O1+p+9P7w/Ojen94fnXpUc2xlKPJCo7ff+Z4OL4ZyrEzdStQi5Prt+Vj4Z+G/wDwT1/Z+8BXsOq6tbXvi28gIZP7ZlVrVWHIP2aJI43+km8e1fccEEFrDHbW0axQxKEjjRQqIijAVQOAAOAB0p+5P7w/OnVy4jFVq75q0m/U9DA5bhcHDkwtNRXkvz7nyx+0J+yV4A/aN1TSta8Wanq2nXekW0lrAdPkhVGjkfed6yxSZOehBHFZ37P/AOxz8O/2ePE154t8LarrGo6he2Lae/8AaEkJiELyRyEqsUMZ3boxyWPGeK+uKK0WPxCo+w53y9jF5JgXivrrpL2nfqFfnFrX/BM34NaxrN3q48ReJIPtlxLcSRLLasA0rF2Ck22cZPGc1+jtFThsZXw7boytcvMMpwmOUVi6alba58Z+MP2H/hZ4y+GXhD4W3uqa5b6f4J+2f2dcRTwfaHN84kl87dAUb5h8u1VwPWvn66/4JY/D52Js/HGtxL2EttbSH8wEr9TaK6KWb4ymrQqPv95w4nhfKq8lKrRTdkuuyVls+iR+WVl/wSx+H0cgOo+ONanQdVhtraEn8WEn8q+jfhl+wx+zz8Mb+HWLfRZdf1K3YPFc65KLsRuvRlhCpACDyCYyR2NfYFFFXN8ZUXLOo7fd+Q8LwvlWHkp0qEbr5/ncAABgV8wfGb9kD4I/HC+fW/E+lS6frcgAfVdKkFtcyYGB5oKtFKR6uhbHGcV9P0VxUa9SjLnpSafkeri8HQxVP2WIgpR7NXPyvuv+CWHgJ5i1l461mGLPCy2tvK2P94bB+ldT4d/4Jh/BbTpVl8Ra94g1kL/yyEsFpG318uIv+Tiv0nor0JZ5jmrOo/wPDhwfk0Zcyw6/F/qfLOufsafALW/h1Z/C/wDsS4sdF0+9l1G2+yXs6zx3k6COSYyO772ZFAIcMvHAFfLup/8ABLP4czTs+keNdctISfljngtrggem5Viz+VfqRRWdHNsZSvyVH+f5nTiuGsrxNva0Iu2m1tPlY/OjwT/wTQ+B/h69jvvFOo6x4o8pg32aeVLS1bHZ1gVZCPbzAK+/9A8P6H4V0e18PeGrC30zTLGMRW9paxrFDEg7KqgAep7k8nmtiisMTja+Id602zry/KMFgU1hKajftv8AfucN8Qfhp4E+Kmgv4a+IGi2utaex3LHcL88T9N8UikPG/wDtIyn3r4I8S/8ABMD4QaldPceGvEeu6LGxyIHMN5GnspdFkx/vOx96/S3zI/7w/MUeZH/eH5irw2PxWHVqM2kZZhkuX4582KpKT79fvVmfl7pf/BLX4aQTK+s+M9dvIweUgitrYn/gRSXFfanwV/Z2+F/wBsr61+HdjcQy6p5X226urmS4muPI3eXu3EIu3e2AiqOa9u8yP+8Pzp9ViczxdaPJVm2uxngOHstwc/a4ailJdd397CiiiuA9oKKKKAP/0f38ooooAKKKKAPjz4i6FL4d8T3EUZZba7JuYME4CufmUf7rZH0xXC+ZJ/fb/vo19c/EvwsfEmgM9qm69sczQY6sMfOn/Ah09wK+Q6/SclxyxOGV/ijo/wDP5n4NxZlMsBj5KPwT1j+q+T/Cw/zJP77f99GvrT4aeLh4k0VbW6fOoWIWObPV06JJ+IGD7j3FfJFbfh7Xr3w3q0OrWB+eI4dD92SM/eRvY/ocGrzbL1i6HIviWq/rzMeG88lluLVSWsHpJeXf1X+a6n3LRWNoGvaf4j0yLVNOfdHIMMp+9G46qw7Ef/X6Vs1+azhKEnCSs0fvdKrCrBVKbunqmFFFFSaBRRRQAUUUUAFFFFABRRRQAUUUUAFfPv7QPxJXwd4ZOg6bLt1fWUaNNp+aC2PEknsT91PfJ/hr1Lxz420bwD4fn17WH4QbYIFOJJ5iPljT3Pc9AMk1+XvivxPqvjHXrvxFrMm+5unztH3I0HCxoOyqOB+Z5Jr7rgnhx43ELF11+6g//An29F1+4/GPF/j6GUYF5Zg5f7RVVtPsRe79XtH5vor4Xnz/APPV/wDvo0v2i4/56v8A99GoaVVZmCqCzMQAAMkk9AB61+42R/HHNLue2/AbwlceMPHtrJcl3sNIxfXOSSpZD+6Q/wC8+DjuFNfpNXkPwV8Af8ID4Mht7xNup6gRdXx7q7D5Iv8AtmvH+9uPevXq/n3i/OFmGYSdN+5D3V+r+b/Cx/cvhXwpLI8jhGurVqnvz7q+0fkt/NsKKKK+WP0kKKKKAP/S/fyiiigAooooAK+XPir4MOi6gde0+P8A0G9fMgUcQztyfor9R75HpX1HVPULC01Sym0++jEsE6FHQ9wf5EdQexr0cszCWErKotuq8jxM/wAlp5nhXRlpJaxfZ/5PqfBdFdj408H3vhDUzbyZks5iTbT9mX+63o69x36iuOr9Lo1oVYKpTd0z8CxWFq4arKhWVpLdHV+EfF2o+EdQ+1Wn7yCTAuLcnCyKO49GHY/nxX11oHiHS/EtguoaXKJEPDoeHjb+647H9D2r4arX0TXdV8PXq3+kzmGQcMOqOv8AddehH8u1ePm2Swxa54aT/P1/zPpuG+K6uWv2NX3qT6dV5r/I+6aK5Xwx4jk1jw3Dr+rQppysrOxdwI9i/wDLTLY2qeoz2711IIIBByDyCK/PqtN05unLdH7Zh68K9KNantJJrpoxaKKKg2CiiigAooooAKKKa7rGpdyFVQSSTgADqSaAHVxnjjx54e8AaO2r69PtzlYLdMGadx/Ci9/cngDqawfi14+1D4e+FDr2l6f/AGg8kiwhy2IYDIDtkkx8xUngAYySORX5teJPE+u+LtVk1nxDdvd3UnGW4VF7KijhVHYD+dfbcLcIzzP/AGmtK1JPpu/Ly9X8j8g8SfFKlw9fAYSHNiWrq6fLFPZv+byS07tbPc+IHxB1z4ia42r6u2yJMra2qHMdvGew9WP8TdSfQAAcLRRX7hh8PToU40aMbRWiSP45x2OxGNxE8VipuVSTu292/wCvu2QV9Q/s5/C9te1VfHGtRf8AEu06T/Q0ccT3K/x47pEfzfH9015r8JvhdqPxJ1sRkPBpFoyte3QGOOoijPeRh/3yOT2B/S/TNNsdH0+30rTIUt7S1jWKGJBhVRRgD/6/U18DxvxMsNSeAwz/AHkt3/Kv83+C+R+2+Dvh3LMMTHO8wj+4g/cT+3Jdf8MX9706MvUUUV+Ln9cBRRRQAUUUUAf/0/38ooooAKKKKACiiigDK1rRdO1/T5NM1OISQyD6MrDoynsw7Gvkfxj4K1PwhebZwZrKRv3FyB8rf7Lf3X9u/avs2qt7Y2mpWsllfwpPBKNrxuMgivWyvNqmDlbeL3X6o+a4h4aoZnTv8NRbS/R+X5fn8E12XgbwtJ4r12OzYEWkOJbpx2jB+6D6ueB7ZPauz8Y/CXUNMZ77w2r3tqTk2/WeP6f31/8AHvr1r0bT00b4Q/D2+8Qa84jWzt3vr+QdWdRxGvqc4RR3Y+9fUZln1CnhHVoy1f4d2/Q/Osn4SxDzD2eOhaENW+jXRJ+fXyv1Plj9tb4pRaLoNn8JNCkCTakiXGpCPjy7KM4ih46ea65I/upjo1fIHw3/AGjfip8MhFaaTqZ1DTI8AadqObiAKO0bZEkY9kYD2rzTxx4w1Xx94t1TxhrTZutTuGmK5yIk6Rxr/sxoAo9hXK1/NOPzitWxksTTk10Xp/WrPexmZ1amJdek2uit2P1N8F/ty+BNUWO38baVeaFOcBpoB9stc9z8oWVR7bG+tfS3h34z/CnxWqnQvFWl3DN0ie4WGX/v3KUf/wAdr8HKQqG4YA/WvRw3FmLgrVUpfg/w0/A76HE2JgrVEpfg/wCvkf0WRTQ3CCSCRZEPRkIYH8RUtfzuWup6nY4+w3lxbY6eTM8f/oJFav8AwmHi8rs/t7VNuMY+2z4x/wB916MeMo21pfj/AMA71xXHrT/H/gH9BE9xb2sZluZUiQdWdgoH4mvMvEfxu+EnhNWOueK9MidesUU63E308uHe+fwr8LrrUdQvjm+up7kn/ntK0n/oRNUgAowBj6VjV4xm1+7pJerv/kZVOKpv+HT+93/yP1F8aft0+DtOWS38C6Nd6xOAQtxdkWdsD2O35pWHsVT618SfEj9oH4ofFASWuv6q1tprk/8AEtsAbe1x6OAS8v8A20ZvpXi1FeDjM7xmJXLUnZdlov8Ag/M8XF5visQrTlp2WiP1t/Zf8fWHxe+E1z4C8UkXN9osI066Vz881k4It5cnncoGwnqGQN1Ir5c8c+ENQ8C+J7zw5qGWNu26GXGBNA3Mcg+o6+jAjtXiXwO+Jk/wo+I2m+Jyzf2e7fZNSjX+OzmIDnHcxkCRfdcd6/Uz48eAIfH/AIQh8TaAoudQ02L7RbtF832q0cbmRcfe4+dMdTkD71ft/hLxf7KSwuIl7rsn5P7Mv0f39D5HxC4Y/wBYcj+t0FfE4dfOUOq831XmmvtH55V6z8LvhLrnxJvw6BrPR4Hxc3rDg46xxA8M/wCi9T2B9Q+F/wCzhqOsNDrXjxXsLHh0sAdtxMO3mHrEp9Pvn/Zr7e07TrDSbKHTdMgjtbW3QJFDEoVEUdgBX6lxNxxSwyeGy981TrLovTu/w/I+E8PPBvE4+UcwzyLhR3UNpT9esY/+TPpbcoeHPDmj+E9Ht9C0K3W2tLZcKo5LE9WY9WZjySetblFFfjdSpKpJzm7t7s/rGhQp0KcaNGKjGKsktEktkkFFFFQahRRRQAUUUUAf/9T9/KKKKACiiigAooooAKKKKACvMvi38MdO+Lng+bwhqd/d6dE8qTrLasP9ZFkoJEYESICcleOQDkEV6bRWdWlCpB05q6ZFSnGpFwmrpn4z/Eb9lH4r+AWlu7Ky/wCEj0xMkXWmKXlVfWS35kU467d6j1r5pkR4pGhlVkkQ7WRgVZSOxB5B+tf0XV534y+Evw3+ICn/AIS7w/ZX8pGBcGPy7kfSaPbIP++sV8hjOEISfNhp28n/AJ7/AJny2L4Xg9cPK3k/8/8Ahz8E6K/UrxP+wp4Dv2aXwprmo6OxyRFOEvYQfQZ8uTH1c14brX7C/wATbIs2i6xpGpIPuh2ltZD+BR1/8er56tw7j6f2L+jv/wAE8KtkWNp/Yv6f1c+J6K+lrz9kX49WhIXQYbkDvBfW5B/76dT+lZf/AAyx8e/+hUl/8C7X/wCPVwvLMYt6Uvuf+RyPLsUt6cvuZ8+0V9MWf7IXx5uyA+hwWwP8U99bgD8Edz+lei6J+wr8SLwq2u63pOmofvCLzbqQfhtjX/x6taeTY6btGk/mrfmaQyrGT0VN/db8z4iqSGGa5mS2to3mmkO1I41LOxPYKAST9K/U7wv+wv8ADzTWWXxTq+o624wTHHtsoT7EJvkx9JBX1F4P+F/w+8ARhPCGg2WmtjBmjiDTt/vTPukb8Wr18Nwlipu9ZqK+9/5fieph+GcRPWq1Ffe/8vxPyv8Ahx+yP8U/HLRXmsWw8MaW+CZ9QU/aGX/pnbAh846bygr9XPAHhCLwD4O0rwfBfXOoxaVAII7i7KmVlBJAO0ABVB2qOygDJxmuwor7DLMmw+Cu6d3J7tn1OX5VQwmtPVvqwooor1j0wooooAKKKKACiiigAooooA//1f38ooooAKKKKACiiigAooooAKKKKACiiigAooooAKKKKACiiigAooooAKKKKACiiigAooooAKKKKACiiigAooooA//W/fyiiigAooooAKKKKACiiigAooooAKKKKACiiigAooooAKKKKACiiigAooooAKKKKACiiigAooooAKKKKACiiigD/9k=" vertex="1" parent="1">
          <mxGeometry x="53.14999999999998" y="1080" width="40" height="40" as="geometry" />
        </mxCell>
        <mxCell id="jFlGcLo877YmEgPMVWM7-69" style="edgeStyle=orthogonalEdgeStyle;rounded=0;orthogonalLoop=1;jettySize=auto;html=1;startArrow=classic;startFill=1;" edge="1" parent="1" source="jFlGcLo877YmEgPMVWM7-74" target="jFlGcLo877YmEgPMVWM7-29">
          <mxGeometry relative="1" as="geometry">
            <Array as="points">
              <mxPoint x="180" y="920" />
            </Array>
          </mxGeometry>
        </mxCell>
        <mxCell id="jFlGcLo877YmEgPMVWM7-70" value="&lt;div style=&quot;&quot;&gt;&lt;br&gt;&lt;/div&gt;" style="outlineConnect=0;dashed=0;verticalLabelPosition=top;verticalAlign=bottom;align=center;html=1;shape=mxgraph.aws3.maintenance_window;fillColor=#bac8d3;strokeColor=#23445d;labelPosition=center;" vertex="1" parent="1">
          <mxGeometry x="150.14999999999998" y="1140" width="60" height="63" as="geometry" />
        </mxCell>
        <mxCell id="jFlGcLo877YmEgPMVWM7-71" value="Proceso DIP" style="text;html=1;align=center;verticalAlign=middle;whiteSpace=wrap;rounded=0;" vertex="1" parent="1">
          <mxGeometry x="150" y="1203" width="60" height="30" as="geometry" />
        </mxCell>
        <mxCell id="jFlGcLo877YmEgPMVWM7-72" value="" style="edgeStyle=orthogonalEdgeStyle;rounded=0;orthogonalLoop=1;jettySize=auto;html=1;startArrow=classic;startFill=1;" edge="1" parent="1" source="jFlGcLo877YmEgPMVWM7-70" target="jFlGcLo877YmEgPMVWM7-74">
          <mxGeometry relative="1" as="geometry">
            <mxPoint x="180" y="1140" as="sourcePoint" />
            <mxPoint x="180" y="482" as="targetPoint" />
            <Array as="points">
              <mxPoint x="180" y="920" />
            </Array>
          </mxGeometry>
        </mxCell>
        <mxCell id="jFlGcLo877YmEgPMVWM7-73" value="Cargue DIP" style="edgeLabel;html=1;align=center;verticalAlign=middle;resizable=0;points=[];" vertex="1" connectable="0" parent="jFlGcLo877YmEgPMVWM7-72">
          <mxGeometry x="0.0585" y="2" relative="1" as="geometry">
            <mxPoint as="offset" />
          </mxGeometry>
        </mxCell>
        <mxCell id="jFlGcLo877YmEgPMVWM7-74" value="Documentos &lt;br&gt;Soporte" style="shape=image;html=1;verticalAlign=top;verticalLabelPosition=bottom;labelBackgroundColor=none;imageAspect=0;aspect=fixed;image=https://cdn1.iconfinder.com/data/icons/bootstrap-vol-3/16/images-128.png" vertex="1" parent="1">
          <mxGeometry x="162.66000000000003" y="760.5" width="34.99" height="34.99" as="geometry" />
        </mxCell>
        <mxCell id="jFlGcLo877YmEgPMVWM7-75" value="MFT - GAW" style="rounded=1;whiteSpace=wrap;html=1;" vertex="1" parent="1">
          <mxGeometry x="354" y="442.53" width="120" height="60" as="geometry" />
        </mxCell>
        <mxCell id="jFlGcLo877YmEgPMVWM7-77" style="edgeStyle=orthogonalEdgeStyle;rounded=0;orthogonalLoop=1;jettySize=auto;html=1;entryX=0;entryY=0.5;entryDx=0;entryDy=0;entryPerimeter=0;" edge="1" parent="1" source="jFlGcLo877YmEgPMVWM7-75" target="jFlGcLo877YmEgPMVWM7-5">
          <mxGeometry relative="1" as="geometry" />
        </mxCell>
        <mxCell id="jFlGcLo877YmEgPMVWM7-78" value="1" style="ellipse;whiteSpace=wrap;html=1;aspect=fixed;fillColor=#d5e8d4;gradientColor=#97d077;strokeColor=#82b366;fontStyle=1;fontSize=15;" vertex="1" parent="1">
          <mxGeometry x="-10" y="46" width="30" height="30" as="geometry" />
        </mxCell>
        <mxCell id="jFlGcLo877YmEgPMVWM7-81" value="2" style="ellipse;whiteSpace=wrap;html=1;aspect=fixed;fillColor=#d5e8d4;gradientColor=#97d077;strokeColor=#82b366;fontStyle=1;fontSize=15;" vertex="1" parent="1">
          <mxGeometry x="-15" y="284.47" width="30" height="30" as="geometry" />
        </mxCell>
        <mxCell id="jFlGcLo877YmEgPMVWM7-82" value="5" style="ellipse;whiteSpace=wrap;html=1;aspect=fixed;fillColor=#d5e8d4;gradientColor=#97d077;strokeColor=#82b366;fontStyle=1;fontSize=15;" vertex="1" parent="1">
          <mxGeometry x="295" y="197.80000000000004" width="30" height="30" as="geometry" />
        </mxCell>
        <mxCell id="jFlGcLo877YmEgPMVWM7-85" value="6" style="ellipse;whiteSpace=wrap;html=1;aspect=fixed;fillColor=#d5e8d4;gradientColor=#97d077;strokeColor=#82b366;fontStyle=1;fontSize=15;" vertex="1" parent="1">
          <mxGeometry x="460" y="221.8" width="30" height="30" as="geometry" />
        </mxCell>
        <mxCell id="jFlGcLo877YmEgPMVWM7-86" value="7" style="ellipse;whiteSpace=wrap;html=1;aspect=fixed;fillColor=#d5e8d4;gradientColor=#97d077;strokeColor=#82b366;fontStyle=1;fontSize=15;" vertex="1" parent="1">
          <mxGeometry x="699" y="254.47000000000003" width="30" height="30" as="geometry" />
        </mxCell>
        <mxCell id="jFlGcLo877YmEgPMVWM7-88" value="8" style="ellipse;whiteSpace=wrap;html=1;aspect=fixed;fillColor=#d5e8d4;gradientColor=#97d077;strokeColor=#82b366;fontStyle=1;fontSize=15;" vertex="1" parent="1">
          <mxGeometry x="921" y="256.94000000000005" width="30" height="30" as="geometry" />
        </mxCell>
        <mxCell id="jFlGcLo877YmEgPMVWM7-89" value="9" style="ellipse;whiteSpace=wrap;html=1;aspect=fixed;fillColor=#d5e8d4;gradientColor=#97d077;strokeColor=#82b366;fontStyle=1;fontSize=15;" vertex="1" parent="1">
          <mxGeometry x="1181" y="375.2900000000001" width="30" height="30" as="geometry" />
        </mxCell>
        <mxCell id="jFlGcLo877YmEgPMVWM7-90" value="10" style="ellipse;whiteSpace=wrap;html=1;aspect=fixed;fillColor=#d5e8d4;gradientColor=#97d077;strokeColor=#82b366;fontStyle=1;fontSize=15;" vertex="1" parent="1">
          <mxGeometry x="1181" y="180.00000000000009" width="30" height="30" as="geometry" />
        </mxCell>
        <mxCell id="jFlGcLo877YmEgPMVWM7-91" value="11" style="ellipse;whiteSpace=wrap;html=1;aspect=fixed;fillColor=#d5e8d4;gradientColor=#97d077;strokeColor=#82b366;fontStyle=1;fontSize=15;" vertex="1" parent="1">
          <mxGeometry x="1275" y="251.00000000000009" width="30" height="30" as="geometry" />
        </mxCell>
        <mxCell id="jFlGcLo877YmEgPMVWM7-94" value="3" style="ellipse;whiteSpace=wrap;html=1;aspect=fixed;fillColor=#d5e8d4;gradientColor=#97d077;strokeColor=#82b366;fontStyle=1;fontSize=15;" vertex="1" parent="1">
          <mxGeometry x="250" y="456.53" width="30" height="30" as="geometry" />
        </mxCell>
        <mxCell id="jFlGcLo877YmEgPMVWM7-95" value="4" style="ellipse;whiteSpace=wrap;html=1;aspect=fixed;fillColor=#d5e8d4;gradientColor=#97d077;strokeColor=#82b366;fontStyle=1;fontSize=15;" vertex="1" parent="1">
          <mxGeometry x="745" y="458" width="30" height="30" as="geometry" />
        </mxCell>
        <mxCell id="jFlGcLo877YmEgPMVWM7-96" value="12" style="ellipse;whiteSpace=wrap;html=1;aspect=fixed;fillColor=#d5e8d4;gradientColor=#97d077;strokeColor=#82b366;fontStyle=1;fontSize=15;" vertex="1" parent="1">
          <mxGeometry x="167.64999999999998" y="699" width="30" height="30" as="geometry" />
        </mxCell>
      </root>
    </mxGraphModel>
  </diagram>
  <diagram id="I2PeUPm7R9qhivisOPEY" name="Page-4">
    <mxGraphModel dx="2555" dy="2084" grid="1" gridSize="10" guides="1" tooltips="1" connect="1" arrows="1" fold="1" page="1" pageScale="1" pageWidth="827" pageHeight="1169" math="0" shadow="0">
      <root>
        <mxCell id="0" />
        <mxCell id="1" parent="0" />
        <mxCell id="huZJwnv4xgB_R8jsP4eI-91" value="Compensar - CCF" style="rounded=1;whiteSpace=wrap;html=1;verticalAlign=top;align=center;fontStyle=1;container=0;glass=1;shadow=1;spacing=26;spacingTop=0;spacingLeft=-13;fontSize=16;dashed=1;" parent="1" vertex="1">
          <mxGeometry x="-128" y="-140" width="598" height="1469.43" as="geometry" />
        </mxCell>
        <mxCell id="huZJwnv4xgB_R8jsP4eI-1" value="&lt;font style=&quot;font-size: 16px;&quot;&gt;&lt;span style=&quot;white-space: pre; font-size: 16px;&quot;&gt;&#x9;&lt;/span&gt;&lt;span style=&quot;white-space: pre; font-size: 16px;&quot;&gt;&#x9;&lt;/span&gt;&amp;nbsp; Azure Suscription - Compensar&lt;/font&gt;" style="rounded=1;whiteSpace=wrap;html=1;verticalAlign=top;align=left;fontStyle=1;strokeColor=#6c8ebf;fillColor=#dae8fc;container=0;glass=0;shadow=1;spacing=26;spacingTop=0;spacingLeft=-13;fontSize=16;gradientColor=#7ea6e0;" parent="1" vertex="1">
          <mxGeometry x="561" y="-99.43" width="1266" height="999.43" as="geometry" />
        </mxCell>
        <mxCell id="huZJwnv4xgB_R8jsP4eI-2" value="" style="image;sketch=0;aspect=fixed;html=1;points=[];align=center;fontSize=12;image=img/lib/mscae/Key.svg;container=0;" parent="1" vertex="1">
          <mxGeometry x="609.9997862638928" y="-90" width="30.287489975942258" height="48.849394546912585" as="geometry" />
        </mxCell>
        <mxCell id="huZJwnv4xgB_R8jsP4eI-3" value="&lt;b&gt;Grupo de Recursos&amp;nbsp; - Clientes&lt;/b&gt;" style="rounded=1;whiteSpace=wrap;html=1;horizontal=1;align=center;verticalAlign=top;container=0;" parent="1" vertex="1">
          <mxGeometry x="1096" y="28.94" width="514" height="581.06" as="geometry" />
        </mxCell>
        <mxCell id="huZJwnv4xgB_R8jsP4eI-4" value="&lt;span style=&quot;color: rgba(0, 0, 0, 0); font-family: monospace; font-size: 0px; text-align: start; background-color: rgb(251, 251, 251);&quot;&gt;%3CmxGraphModel%3E%3Croot%3E%3CmxCell%20id%3D%220%22%2F%3E%3CmxCell%20id%3D%221%22%20parent%3D%220%22%2F%3E%3CmxCell%20id%3D%222%22%20value%3D%22%26amp%3Bnbsp%3B%20%26amp%3Bnbsp%3B%20%26amp%3Bnbsp%3B%20%26amp%3Bnbsp%3B%20%26amp%3Bnbsp%3B%20%26amp%3Bnbsp%3B%20%26amp%3Bnbsp%3B%20%26amp%3Bnbsp%3B%20%26amp%3Bnbsp%3B%20%26amp%3Bnbsp%3B%20%26amp%3Bnbsp%3B%26lt%3Bb%26gt%3BResource%20Group%20-%26amp%3Bnbsp%3Brg-gclint-syncro-stream-%5Benv%5D-i%26lt%3B%2Fb%26gt%3B%22%20style%3D%22rounded%3D0%3BwhiteSpace%3Dwrap%3Bhtml%3D1%3Bhorizontal%3D1%3Balign%3Dleft%3BverticalAlign%3Dtop%3Bcontainer%3D0%3B%22%20vertex%3D%221%22%20parent%3D%221%22%3E%3CmxGeometry%20x%3D%2220.000000000000007%22%20y%3D%22120%22%20width%3D%221060%22%20height%3D%22680%22%20as%3D%22geometry%22%2F%3E%3C%2FmxCell%3E%3C%2Froot%3E%3C%2FmxGraphModel%3E&lt;/span&gt;" style="image;sketch=0;aspect=fixed;html=1;points=[];align=center;fontSize=12;image=img/lib/mscae/ResourceGroup.svg;container=0;" parent="1" vertex="1">
          <mxGeometry x="1115.2408184343615" y="17.002174529411768" width="53.75708940495526" height="42.99793112232203" as="geometry" />
        </mxCell>
        <mxCell id="huZJwnv4xgB_R8jsP4eI-5" value="Azure Blob Storeage" style="verticalLabelPosition=bottom;html=1;verticalAlign=top;align=center;strokeColor=none;fillColor=#00BEF2;shape=mxgraph.azure.storage_blob;container=0;" parent="1" vertex="1">
          <mxGeometry x="1178" y="459.99999999999994" width="50" height="45" as="geometry" />
        </mxCell>
        <mxCell id="huZJwnv4xgB_R8jsP4eI-6" style="edgeStyle=orthogonalEdgeStyle;rounded=0;orthogonalLoop=1;jettySize=auto;html=1;" parent="1" source="huZJwnv4xgB_R8jsP4eI-7" target="huZJwnv4xgB_R8jsP4eI-64" edge="1">
          <mxGeometry relative="1" as="geometry" />
        </mxCell>
        <mxCell id="huZJwnv4xgB_R8jsP4eI-7" value="Azure Function" style="image;aspect=fixed;html=1;points=[];align=center;fontSize=12;image=img/lib/azure2/compute/Function_Apps.svg;container=0;" parent="1" vertex="1">
          <mxGeometry x="1169" y="246.8" width="68" height="60" as="geometry" />
        </mxCell>
        <mxCell id="huZJwnv4xgB_R8jsP4eI-8" value="&lt;div&gt;Form Recognizer API&lt;br&gt;&lt;/div&gt;" style="image;aspect=fixed;html=1;points=[];align=center;fontSize=12;image=img/lib/azure2/ai_machine_learning/Form_Recognizers.svg;container=0;" parent="1" vertex="1">
          <mxGeometry x="1171.4" y="81.8" width="63.2" height="68" as="geometry" />
        </mxCell>
        <mxCell id="huZJwnv4xgB_R8jsP4eI-9" value="&lt;b&gt;Grupo de Recursos - Interoperabilidad&lt;/b&gt;" style="rounded=1;whiteSpace=wrap;html=1;horizontal=1;align=center;verticalAlign=top;container=0;labelBorderColor=none;" parent="1" vertex="1">
          <mxGeometry x="630" y="28.94" width="350" height="561.06" as="geometry" />
        </mxCell>
        <mxCell id="huZJwnv4xgB_R8jsP4eI-10" value="&lt;span style=&quot;color: rgba(0, 0, 0, 0); font-family: monospace; font-size: 0px; text-align: start; background-color: rgb(251, 251, 251);&quot;&gt;%3CmxGraphModel%3E%3Croot%3E%3CmxCell%20id%3D%220%22%2F%3E%3CmxCell%20id%3D%221%22%20parent%3D%220%22%2F%3E%3CmxCell%20id%3D%222%22%20value%3D%22%26amp%3Bnbsp%3B%20%26amp%3Bnbsp%3B%20%26amp%3Bnbsp%3B%20%26amp%3Bnbsp%3B%20%26amp%3Bnbsp%3B%20%26amp%3Bnbsp%3B%20%26amp%3Bnbsp%3B%20%26amp%3Bnbsp%3B%20%26amp%3Bnbsp%3B%20%26amp%3Bnbsp%3B%20%26amp%3Bnbsp%3B%26lt%3Bb%26gt%3BResource%20Group%20-%26amp%3Bnbsp%3Brg-gclint-syncro-stream-%5Benv%5D-i%26lt%3B%2Fb%26gt%3B%22%20style%3D%22rounded%3D0%3BwhiteSpace%3Dwrap%3Bhtml%3D1%3Bhorizontal%3D1%3Balign%3Dleft%3BverticalAlign%3Dtop%3Bcontainer%3D0%3B%22%20vertex%3D%221%22%20parent%3D%221%22%3E%3CmxGeometry%20x%3D%2220.000000000000007%22%20y%3D%22120%22%20width%3D%221060%22%20height%3D%22680%22%20as%3D%22geometry%22%2F%3E%3C%2FmxCell%3E%3C%2Froot%3E%3C%2FmxGraphModel%3E&lt;/span&gt;" style="image;sketch=0;aspect=fixed;html=1;points=[];align=center;fontSize=12;image=img/lib/mscae/ResourceGroup.svg;container=0;" parent="1" vertex="1">
          <mxGeometry x="630.2908184343614" y="10.00178793895396" width="52.80923140537166" height="42.23978120328864" as="geometry" />
        </mxCell>
        <mxCell id="huZJwnv4xgB_R8jsP4eI-11" style="edgeStyle=orthogonalEdgeStyle;rounded=0;orthogonalLoop=1;jettySize=auto;html=1;" parent="1" source="huZJwnv4xgB_R8jsP4eI-13" target="huZJwnv4xgB_R8jsP4eI-7" edge="1">
          <mxGeometry relative="1" as="geometry">
            <mxPoint x="1014" y="385.6171284634761" as="targetPoint" />
          </mxGeometry>
        </mxCell>
        <mxCell id="huZJwnv4xgB_R8jsP4eI-12" value="Trigger" style="edgeLabel;html=1;align=center;verticalAlign=middle;resizable=0;points=[];fontSize=13;" parent="huZJwnv4xgB_R8jsP4eI-11" vertex="1" connectable="0">
          <mxGeometry x="0.0607" y="2" relative="1" as="geometry">
            <mxPoint as="offset" />
          </mxGeometry>
        </mxCell>
        <mxCell id="huZJwnv4xgB_R8jsP4eI-13" value="APi Managment" style="image;aspect=fixed;html=1;points=[];align=center;fontSize=12;image=img/lib/azure2/app_services/API_Management_Services.svg;container=0;" parent="1" vertex="1">
          <mxGeometry x="790" y="248.0005037783376" width="63.85390428211587" height="58.94206549118388" as="geometry" />
        </mxCell>
        <mxCell id="huZJwnv4xgB_R8jsP4eI-14" value="WAF" style="image;aspect=fixed;html=1;points=[];align=center;fontSize=12;image=img/lib/azure2/networking/Web_Application_Firewall_Policies_WAF.svg;container=0;" parent="1" vertex="1">
          <mxGeometry x="600" y="207.2205037783376" width="66.80100755667506" height="66.80100755667506" as="geometry" />
        </mxCell>
        <mxCell id="huZJwnv4xgB_R8jsP4eI-15" style="edgeStyle=orthogonalEdgeStyle;rounded=0;orthogonalLoop=1;jettySize=auto;html=1;entryX=0.042;entryY=0.553;entryDx=0;entryDy=0;entryPerimeter=0;" parent="1" source="huZJwnv4xgB_R8jsP4eI-14" target="huZJwnv4xgB_R8jsP4eI-13" edge="1">
          <mxGeometry relative="1" as="geometry" />
        </mxCell>
        <mxCell id="huZJwnv4xgB_R8jsP4eI-16" style="edgeStyle=orthogonalEdgeStyle;rounded=0;orthogonalLoop=1;jettySize=auto;html=1;entryX=0.5;entryY=0;entryDx=0;entryDy=0;entryPerimeter=0;" parent="1" source="huZJwnv4xgB_R8jsP4eI-7" target="huZJwnv4xgB_R8jsP4eI-5" edge="1">
          <mxGeometry relative="1" as="geometry" />
        </mxCell>
        <mxCell id="huZJwnv4xgB_R8jsP4eI-17" value="" style="group" parent="1" vertex="1" connectable="0">
          <mxGeometry x="70" y="60" width="240" height="230" as="geometry" />
        </mxCell>
        <mxCell id="huZJwnv4xgB_R8jsP4eI-18" value="Portal Corporativo" style="rounded=1;whiteSpace=wrap;html=1;verticalAlign=top;fontStyle=1;container=0;" parent="huZJwnv4xgB_R8jsP4eI-17" vertex="1">
          <mxGeometry width="240" height="230" as="geometry" />
        </mxCell>
        <mxCell id="huZJwnv4xgB_R8jsP4eI-19" value="" style="shape=image;verticalLabelPosition=bottom;verticalAlign=top;imageAspect=0;aspect=fixed;image=data:image/png,iVBORw0KGgoAAAANSUhEUgAAAMsAAADLCAMAAAD3JZcBAAAAGXRFWHRTb2Z0d2FyZQBBZG9iZSBJbWFnZVJlYWR5ccllPAAAAw9pVFh0WE1MOmNvbS5hZG9iZS54bXAAAAAAADw/eHBhY2tldCBiZWdpbj0i77u/IiBpZD0iVzVNME1wQ2VoaUh6cmVTek5UY3prYzlkIj8+IDx4OnhtcG1ldGEgeG1sbnM6eD0iYWRvYmU6bnM6bWV0YS8iIHg6eG1wdGs9IkFkb2JlIFhNUCBDb3JlIDUuNS1jMDE0IDc5LjE1MTQ4MSwgMjAxMy8wMy8xMy0xMjowOToxNSAgICAgICAgIj4gPHJkZjpSREYgeG1sbnM6cmRmPSJodHRwOi8vd3d3LnczLm9yZy8xOTk5LzAyLzIyLXJkZi1zeW50YXgtbnMjIj4gPHJkZjpEZXNjcmlwdGlvbiByZGY6YWJvdXQ9IiIgeG1sbnM6eG1wTU09Imh0dHA6Ly9ucy5hZG9iZS5jb20veGFwLzEuMC9tbS8iIHhtbG5zOnN0UmVmPSJodHRwOi8vbnMuYWRvYmUuY29tL3hhcC8xLjAvc1R5cGUvUmVzb3VyY2VSZWYjIiB4bWxuczp4bXA9Imh0dHA6Ly9ucy5hZG9iZS5jb20veGFwLzEuMC8iIHhtcE1NOkRvY3VtZW50SUQ9InhtcC5kaWQ6Rjg0MkQzNzUwQTk4MTFFM0IyRjFFNUE3QTZFRDU4QjYiIHhtcE1NOkluc3RhbmNlSUQ9InhtcC5paWQ6Rjg0MkQzNzQwQTk4MTFFM0IyRjFFNUE3QTZFRDU4QjYiIHhtcDpDcmVhdG9yVG9vbD0iQWRvYmUgUGhvdG9zaG9wIENDIFdpbmRvd3MiPiA8eG1wTU06RGVyaXZlZEZyb20gc3RSZWY6aW5zdGFuY2VJRD0iMDRFQzRGQzM0N0FEMzQwMUI0N0RCMUZGMDUyNzAxNEMiIHN0UmVmOmRvY3VtZW50SUQ9IjA0RUM0RkMzNDdBRDM0MDFCNDdEQjFGRjA1MjcwMTRDIi8+IDwvcmRmOkRlc2NyaXB0aW9uPiA8L3JkZjpSREY+IDwveDp4bXBtZXRhPiA8P3hwYWNrZXQgZW5kPSJyIj8+Vcw2rAAAAt9QTFRFAHLF////IYTN8vj87/b7cbDf+/3+/f7/PpTT5/L6BXXGPJPTSpvW9/v9/P3+BnXG8/j88ff8A3TGIITM9fn9AXPFCXfH0+f13+34+vz+/v7/FX7KFH3KIoXNNY/RH4PMCnjH2er29vr9KonPP5XTzOPztNbu4/D5RpnVM47RCHbH1+n21uj2iL3kWKPZMI3QdbPgaKzd6/T6+Pv9AnPFv9zwEHvJOJHSG4HL8Pf8xN7ySZrW5PD5nMjocrHfBHTG7PT7GYDL4e74UZ/XR5nVlsXn7vb7JIbNYqjb1ej1rNHsx+DyE33Jz+T0QJXUGH/K6PL6D3rIjL/l7fX7EnzJRJjU0ub16fP6JofOUp/YzeP0jsHlPZTTe7bhI4XNxd/yYKfbK4rPib7kZ6vcf7jittfuHIHLsdTtvNrw4u/4Mo7Qd7TgqtDsDXnImcfoqc/r2uv3KIjOMY3QebXhgrrjDnrIDHnIC3jI5vH5B3bHSJrVr9PtLYvPO5PSQZbUZarclMTnTp3XbK7edrPgu9nwX6fbUJ7Xb6/eq9Hshbzj9Pn8y+LzT57XWaPZfrjiTJzWba7eXqbancnp1Of14O74Q5fUwd3xyuLzpM3qNpDRfLfh3ez3qM/rW6TaL4zQJ4jOj8HmLovPQpbUOZLSY6nc5fH5msfovdvwrdLsfbfhJYbNgLniVqLZU6DYudjv0eb1HoPMF3/Kwt3xOpLSjcDll8XnVKDYTZ3Xt9fvXKXabq/eYajbEXvJHYLMaazdgbnioszqps7rpc3rFn7K3u33+fz+NI/RocvqkMLmerXhg7rjwNzxvtvw6vP6oMrpcLDeKYnOa63duNjvhLvjp87rksPmVaHYyeHzk8Pmtdbuxt/y2+v3lcTnstTti7/lir7keLTgV6LZh73kc7Lfs9XudLLfutnvzuT0sNPt0OX0ZqrcRZjVaq3dm8joLIrPmMbonsnpN5DShrzjXaXaS5vWkWSPhAAACBVJREFUeNrs3fVDU10YB/DnAG7AhNEtJY10GkiJgmCBid0BIhaK+trd3f3a3R2v8drd8XZ3/wEvMri72+4mG+ds3OP5/uZO4Efw3nueczYAWFhYWFhYWFhYWFhYWFhYWFhYWFg+0MSn38juXpwsdsa4vqeLnq2JRQh5NBCvQp6+vf+t1ddtUFXMzUTJ8Np24E6xqz1Siegs8q6dzj041gwJREQWB8+kZRED/eyQtojDktj19PqbC1pKkc7UdYuDj6x/1kw3W1SD1GHL2KhFe/fkFKAap05axvm0aF7S2+pTpF/qmqXd35vyBzayQYak7lhc+i6MflZohQxPXbDIk2WXnv+Q4Y9qGRNbvKK6zdvTxg5hickscrMJ53a9CZYifDGJZdiOfoM32CPcMYnFAhGJSSz2FFksmOXDtsRbW8fTYLFuOyZoRUbGisH7P0oVtyUsJlDZ8PJ8qogt3k1Um+5NEq1lmcZVvyBTpJaFAo023cRpmSHU6v+RKC31BJv9EumxoAiKLOY+9FhQT4osgc70WOa3oseCllBkiaHIMoAiy2KKLLMosvxLkaXxxo+psSAkLQ6lxlLx7J/fkRoLQuEtTGCRtBxvZTXeyg6zBUnnpRrVMn/309mhPnleXl6eIwOW7WrjgdGCUJCX8Sx+M9QeAx1CU2puKXq/27WhkSwW0R00B4XW3FJfYFfH7tSUNvw/N7thFMsbwX8zSz1qSgcbq7fFNgUIm9WI90p7byNYWg+H2log6q5q08wtlS8PX88rnFk9Im4JkkPtLRDfZ4GyIfdrbkE5ilfQzLlG2JKj7U6mnwUgtce8ISuCg12HLJbxl8Zhz5UDDjkQtcRpfWDS1/Iu5Z6emt/lpRJuxB2ilq2A0yKcRdzhFGkIQUtauhEsEOlePaQ0kZwlS6Wf7x+rmh7v6ovdAv25MbeIWaQ9eL0ct173r3jJbuXc7HaYLfAFV/6PImXxC1N2CuCdqbTqdxRkOC3Wh6oHDSZluansY9ZFpSW42zqs+8iOaVWDPHoQsixV9lmu3nbXA6cFYrh7MyHLNK5LBwMOkullcehdvUjaTMQiVd4ovW0JW2By9Vc4adajk2VXF8wWm75cFxkibYHPq4bZvnuotstY+8IFp8ViENelrz9xyyqN9dmUeHwWu15cl7KhxC3OuRoznGmAzSLhLY+yyJ/t2as5xcoobNexCco+++xJW0a6CcyxcxsuC39/JDOOrKXDYeFHDy9Mlgf8XrMLiFpOapllOSbLW5XL4rZcgpYkbTcwiQyPxaOt6jP/fnNilolap5mIaf3yiVrPUQMJWfZpf8uAfys8lvkj1ftmtydiWapjnseY1vsjNDqbDSZhaY30+TsYWFM6qHl/Hi3BbnHorGOeBbgs7Xtp9l/SBbflQoaOeXZiq1uuuaA5YNRQzJYjaTrmscdXT14tULmcNBSvpZ2upV4axjp/E0eBHYuWWC3lfrr2AHHuv7gJbChG4r2OrdYxzxOs+2KSMb4agzZitXypY54IrBaEAn9VH7TFDqdllY55tuPee7Wdql7qTcFpCQvXOk0jF9yWiuV3gOoomRSjBR5rnWYOif39uOaqddNwnBZfbXd+1zIiZxXU/hf+iXUtFiD8ZGQ7GchYVA/i7cC73hc+0RANpCwS/iF8GV4L/C4wx2UgZkGvecN62eK1XNUsnM4BghYn3iIv3R6rpZWTxsOTDLBZhHYlmiqH5TXDaslXHd349UFDtsi11i33aF5bFiqHXYvFaRlU/bR6rGjX3JQBBwz8oBytP2OWfXR9X3wkOC2vBL4CTssE2KFWrTTnPf+H4ryOeVcXYjrLyVjqA7TN0Vpk6obRYl29LYaygZgFEiN4zX78t9/0xGgZwD1J+hK0AOwb01nxP8M2yKxmpUa9LRO4kxeRQNRS8RPgPWv91BO/JamM8ozFZhnJFRB3O5C2CGYTtvWLI3e+z2kzmMSyG5fFsZAb8hWYxPKfFJNli/LUZYLcJJZxrnrXLiYt6pl/YvQLtZOoIcHcgPEYPhTPEMtUPWtKng9fVt0NnXKn5/GK0+7Kp+Lan4TTYdFeAflez7rllJX8lg19ql4edoj36nkgafnpopYRt/WrJ3fU2JLYOLbi5eR+/LpUPSBqQc1+KRe68IzQr85/JFCzMTfZ8R+VIjIeis61WJs56u8aTr9dwzNLnKW5YGFXpbRvOx3IWxCyPzOjk1lVvW34sLNXa7b58l6LSgpmg1Eslad83AITilsnFA51N2Tv9b3vGflxFBjPYlBqbPmsA1BiyZkGQIflfs8yoMMS2x33Z/mazNJ9EAAtFgIfeGMySxFFlqcUWZpTZDlAj0W6jh6LWxk9luVAjyWAHssQZ2os7kkgQsu3gs2LQYyWGKHWK86itIwVqNtcKQdRWsC6n9rWpvtlBxCpBaBTgsoVzBJAvBaAkJQNlYcRnEpLJgOI2wIQ1rBFZGRIQzmA+C1GCbPUTYuEIktMVsLOOEos77YfN2eObv1zLBUWRQYd7/PqSak7FRbFHkuDJdEpa7pIaLBUJj5x3aYxQeGNabBUPRM2aDu95J6hv3ykLv6+pLxHp/avPWxBhaUyqe1k2d1nvvWnwaKIS8MW0Wt736fCosjRYWe/mRhuToWlMvKLIZeymri502CpWspHZe6dW9iSCovi0p2c1H/rQDcnGiyK+PaaFv1X4HgPGiyKeHpHRnznWvktihO7RXHpNgt4WJJQ6ggsLCwsLCwsLCwsLCwsLCwsLCwsLB9Q/hdgAMaHd6cT5/R8AAAAAElFTkSuQmCC;rounded=1;dashed=1;labelBackgroundColor=none;labelBorderColor=none;fillStyle=auto;strokeColor=default;fontSize=14;fontColor=#000000;fillColor=default;gradientColor=#CCE5FF;container=0;spacing=2;shadow=0;perimeterSpacing=1;" parent="huZJwnv4xgB_R8jsP4eI-17" vertex="1">
          <mxGeometry x="10" y="10" width="30" height="30" as="geometry" />
        </mxCell>
        <mxCell id="huZJwnv4xgB_R8jsP4eI-20" value="Validar Documento" style="rounded=1;whiteSpace=wrap;html=1;fillColor=#dae8fc;strokeColor=#6c8ebf;" parent="huZJwnv4xgB_R8jsP4eI-17" vertex="1">
          <mxGeometry x="60" y="160" width="120" height="41.25" as="geometry" />
        </mxCell>
        <mxCell id="huZJwnv4xgB_R8jsP4eI-88" style="edgeStyle=orthogonalEdgeStyle;rounded=0;orthogonalLoop=1;jettySize=auto;html=1;" parent="huZJwnv4xgB_R8jsP4eI-17" source="huZJwnv4xgB_R8jsP4eI-21" target="huZJwnv4xgB_R8jsP4eI-20" edge="1">
          <mxGeometry relative="1" as="geometry" />
        </mxCell>
        <mxCell id="huZJwnv4xgB_R8jsP4eI-89" value="Documentos Base64" style="edgeLabel;html=1;align=center;verticalAlign=middle;resizable=0;points=[];" parent="huZJwnv4xgB_R8jsP4eI-88" vertex="1" connectable="0">
          <mxGeometry x="-0.0844" y="-3" relative="1" as="geometry">
            <mxPoint as="offset" />
          </mxGeometry>
        </mxCell>
        <mxCell id="huZJwnv4xgB_R8jsP4eI-21" value="Carga Documentos" style="rounded=1;whiteSpace=wrap;html=1;fillColor=#dae8fc;strokeColor=#6c8ebf;" parent="huZJwnv4xgB_R8jsP4eI-17" vertex="1">
          <mxGeometry x="60" y="50" width="120" height="35" as="geometry" />
        </mxCell>
        <mxCell id="huZJwnv4xgB_R8jsP4eI-90" value="2" style="ellipse;whiteSpace=wrap;html=1;aspect=fixed;fillColor=#d5e8d4;gradientColor=#97d077;strokeColor=#82b366;fontStyle=1;fontSize=15;" parent="huZJwnv4xgB_R8jsP4eI-17" vertex="1">
          <mxGeometry x="106" y="85.00000000000003" width="30" height="30" as="geometry" />
        </mxCell>
        <mxCell id="huZJwnv4xgB_R8jsP4eI-22" value="Azure Active&lt;div&gt;Directory&lt;/div&gt;" style="image;aspect=fixed;html=1;points=[];align=center;fontSize=12;image=img/lib/azure2/identity/Azure_Active_Directory.svg;" parent="1" vertex="1">
          <mxGeometry x="783.85" y="90.80000000000001" width="70" height="64" as="geometry" />
        </mxCell>
        <mxCell id="huZJwnv4xgB_R8jsP4eI-23" style="edgeStyle=orthogonalEdgeStyle;rounded=0;orthogonalLoop=1;jettySize=auto;html=1;entryX=-0.003;entryY=0.435;entryDx=0;entryDy=0;entryPerimeter=0;exitX=1;exitY=0.25;exitDx=0;exitDy=0;" parent="1" source="huZJwnv4xgB_R8jsP4eI-20" target="huZJwnv4xgB_R8jsP4eI-22" edge="1">
          <mxGeometry relative="1" as="geometry">
            <mxPoint x="250" y="187.52631578947376" as="sourcePoint" />
          </mxGeometry>
        </mxCell>
        <mxCell id="huZJwnv4xgB_R8jsP4eI-24" value="Genera Token&amp;nbsp;" style="edgeLabel;html=1;align=center;verticalAlign=middle;resizable=0;points=[];fontSize=13;" parent="huZJwnv4xgB_R8jsP4eI-23" vertex="1" connectable="0">
          <mxGeometry x="-0.683" y="2" relative="1" as="geometry">
            <mxPoint x="38" as="offset" />
          </mxGeometry>
        </mxCell>
        <mxCell id="huZJwnv4xgB_R8jsP4eI-25" style="edgeStyle=orthogonalEdgeStyle;rounded=0;orthogonalLoop=1;jettySize=auto;html=1;entryX=0.015;entryY=0.519;entryDx=0;entryDy=0;entryPerimeter=0;" parent="1" source="huZJwnv4xgB_R8jsP4eI-20" target="huZJwnv4xgB_R8jsP4eI-14" edge="1">
          <mxGeometry relative="1" as="geometry" />
        </mxCell>
        <mxCell id="huZJwnv4xgB_R8jsP4eI-26" value="File Server - Compensar" style="rounded=1;whiteSpace=wrap;html=1;fontStyle=1;verticalAlign=top;align=center;" parent="1" vertex="1">
          <mxGeometry x="80" y="393.95" width="220" height="160" as="geometry" />
        </mxCell>
        <mxCell id="huZJwnv4xgB_R8jsP4eI-28" value="Documents" style="sketch=0;outlineConnect=0;fontColor=#232F3E;gradientColor=none;fillColor=#232F3D;strokeColor=none;dashed=0;verticalLabelPosition=bottom;verticalAlign=top;align=center;html=1;fontSize=12;fontStyle=0;aspect=fixed;pointerEvents=1;shape=mxgraph.aws4.document;container=0;" parent="1" vertex="1">
          <mxGeometry x="176.65" y="464.05" width="27" height="36.95" as="geometry" />
        </mxCell>
        <mxCell id="huZJwnv4xgB_R8jsP4eI-29" value="" style="image;sketch=0;aspect=fixed;html=1;points=[];align=center;fontSize=12;image=img/lib/mscae/Exchange_On_premises_Access.svg;" parent="1" vertex="1">
          <mxGeometry x="81" y="500" width="28.999999999999996" height="50" as="geometry" />
        </mxCell>
        <UserObject label="&lt;div style=&quot;font-size: 1px&quot;&gt;&lt;font style=&quot;font-size:15.52px;font-family:Segoe UI Semibold;color:#000000;direction:ltr;letter-spacing:0px;line-height:120%;opacity:1&quot;&gt;Secure and monitor&lt;/font&gt;&lt;font style=&quot;font-size:15.52px;font-family:Segoe UI Semibold;color:#feffff;direction:ltr;letter-spacing:0px;line-height:120%;opacity:1&quot;&gt;&lt;br/&gt;&lt;/font&gt;&lt;/div&gt;" tags="Background" id="huZJwnv4xgB_R8jsP4eI-30">
          <mxCell style="verticalAlign=top;align=center;overflow=width;vsdxID=1383;shape=stencil(nZBLDoAgDERP0z3SIyjew0SURgSD+Lu9kMZoXLhwN9O+tukAlrNpJg1SzDH4QW/URgNYgZTkjA4UkwJUgGXng+6DX1zLfmoymdXo17xh5zmRJ6Q42BWCfc2oJfdAr+Yv+AP9Cb7OJ3H/2JG1HNGz/84klThPVCc=);points=[];labelBackgroundColor=none;rounded=0;html=1;whiteSpace=wrap;container=0;shadow=0;" parent="1" vertex="1">
            <mxGeometry x="830" y="690" width="654" height="134" as="geometry" />
          </mxCell>
        </UserObject>
        <mxCell id="huZJwnv4xgB_R8jsP4eI-31" value="&lt;div style=&quot;font-size: 1px&quot;&gt;&lt;font style=&quot;font-size:15.52px;font-family:Segoe UI;color:#000000;direction:ltr;letter-spacing:0px;line-height:120%;opacity:1&quot;&gt;Azure Active Directory&lt;br/&gt;&lt;/font&gt;&lt;/div&gt;" style="verticalAlign=middle;align=center;overflow=width;vsdxID=1191;fillColor=none;gradientColor=none;shape=stencil(nZBLDoAgDERP0z3SIyjew0SURgSD+Lu9kMZoXLhwN9O+tukAlrNpJg1SzDH4QW/URgNYgZTkjA4UkwJUgGXng+6DX1zLfmoymdXo17xh5zmRJ6Q42BWCfc2oJfdAr+Yv+AP9Cb7OJ3H/2JG1HNGz/84klThPVCc=);strokeColor=none;points=[];labelBackgroundColor=none;rounded=0;html=1;whiteSpace=wrap;container=0;" parent="1" vertex="1">
          <mxGeometry x="863" y="763" width="114" height="50" as="geometry" />
        </mxCell>
        <mxCell id="huZJwnv4xgB_R8jsP4eI-32" style="vsdxID=1159;fillColor=#50e6ff;gradientColor=none;shape=stencil(lZHNDoMgEISfhisBVq2crX0PE7GQUjCI/Xn7QklTNTUNt9nZbyeEQdBMshsFYmTyzl7EXfVeIjgixpSRwikfFIIWQTNYJ87OzqZP89hFMqqrvcWER7orcUXjESPPZBDM6rdxSrhWZoEXfMsfAJf7PC8w8HX+PkwJWaG0wjXNecsn4CeelZ35LX/xIL4NDErrVOByv20sWKltaF8=);strokeColor=none;spacingTop=-3;spacingBottom=-3;spacingLeft=-3;spacingRight=-3;points=[];labelBackgroundColor=none;rounded=0;html=1;whiteSpace=wrap;container=0;" parent="1" vertex="1">
          <mxGeometry x="896" y="747" width="47" height="18" as="geometry" />
        </mxCell>
        <mxCell id="huZJwnv4xgB_R8jsP4eI-33" style="vsdxID=1160;fillColor=#FFFFFF;gradientColor=none;shape=stencil(UzV2Ls5ILEhVNTIoLinKz04tz0wpyVA1dlE1MsrMy0gtyiwBslSNXVWNndPyi1LTi/JL81Ig/IJEkEoQKze/DGRCBUSfAUiHkUElhGdmomdhDBZxgyjOycxDUmxiqWdiiaLBALdiQwMMsy0NSTEbZgBW5SS5m4BiIAMRPGmZOTmQ0EWWRw9OoBAkKoxdAQ==);strokeColor=none;spacingTop=-3;spacingBottom=-3;spacingLeft=-3;spacingRight=-3;points=[];labelBackgroundColor=none;rounded=0;html=1;whiteSpace=wrap;container=0;" parent="1" vertex="1">
          <mxGeometry x="900" y="723" width="38" height="35" as="geometry" />
        </mxCell>
        <mxCell id="huZJwnv4xgB_R8jsP4eI-34" style="vsdxID=1161;fillColor=#50e6ff;gradientColor=none;shape=stencil(UzV2Ls5ILEhVNTIoLinKz04tz0wpyVA1dlE1MsrMy0gtyiwBslSNXVWNndPyi1LTi/JL81Ig/IJEkEoQKze/DGRCBUSfoYEBSI+RQSWED+G5QZTmZObhUQrjY1WMqtTMRM/CmHiTSXAEilIgA+HPtMycHEgwIcujhwtQCBKmxq4A);strokeColor=none;spacingTop=-3;spacingBottom=-3;spacingLeft=-3;spacingRight=-3;points=[];labelBackgroundColor=none;rounded=0;html=1;whiteSpace=wrap;container=0;" parent="1" vertex="1">
          <mxGeometry x="900" y="723" width="19" height="35" as="geometry" />
        </mxCell>
        <mxCell id="huZJwnv4xgB_R8jsP4eI-35" style="vsdxID=1162;fillColor=#1988d9;gradientColor=#54aef0;shape=stencil(UzV2Ls5ILEhVNTIoLinKz04tz0wpyVA1dlE1MsrMy0gtyiwBslSNXVWNndPyi1LTi/JL81Ig/IJEkEoQKze/DGRCBUSfAUiHkUElMs8NojAnMw+nQkMDPEphkjDFZiZ6lobEmky0E1AUAhkIH6Zl5uRAAghZHj1EgEKQ0DR2BQA=);strokeColor=none;spacingTop=-3;spacingBottom=-3;spacingLeft=-3;spacingRight=-3;points=[];labelBackgroundColor=none;rounded=0;html=1;whiteSpace=wrap;container=0;" parent="1" vertex="1">
          <mxGeometry x="919" y="723" width="19" height="35" as="geometry" />
        </mxCell>
        <mxCell id="huZJwnv4xgB_R8jsP4eI-36" style="vsdxID=1163;fillColor=#53b1e0;gradientColor=none;shape=stencil(UzV2Ls5ILEhVNTIoLinKz04tz0wpyVA1dlE1MsrMy0gtyiwBslSNXVWNndPyi1LTi/JL81Ig/IJEkEoQKze/DGRCBUSfAUiHkUElMs8NojAnMw9JoaEBqlIjcz1jC9zKURXDNBOhlDyFQAbCh2mZOTmQAEKWRw8RoBAkNI1dAQ==);strokeColor=none;spacingTop=-3;spacingBottom=-3;spacingLeft=-3;spacingRight=-3;points=[];labelBackgroundColor=none;rounded=0;html=1;whiteSpace=wrap;container=0;" parent="1" vertex="1">
          <mxGeometry x="919" y="741" width="19" height="17" as="geometry" />
        </mxCell>
        <mxCell id="huZJwnv4xgB_R8jsP4eI-37" style="vsdxID=1164;fillColor=#9cebff;gradientColor=none;shape=stencil(UzV2Ls5ILEhVNTIoLinKz04tz0wpyVA1dlE1MsrMy0gtyiwBslSNXVWNndPyi1LTi/JL81Ig/IJEkEoQKze/DGRCBUSfoYEBSI+RQSUq3w2iOCczD0kxqlIjcz0jY9yK0U3GYy5JjiCgGMhA+DUtMycHElTI8uhhAxSChKuxKwA=);strokeColor=none;spacingTop=-3;spacingBottom=-3;spacingLeft=-3;spacingRight=-3;points=[];labelBackgroundColor=none;rounded=0;html=1;whiteSpace=wrap;container=0;" parent="1" vertex="1">
          <mxGeometry x="900" y="741" width="19" height="17" as="geometry" />
        </mxCell>
        <mxCell id="huZJwnv4xgB_R8jsP4eI-38" style="vsdxID=1165;fillColor=#54aef0;gradientColor=#1988d9;shape=stencil(jZHBDsIgEES/Zq+EsrHlXut/NCktRISGYtW/F7JRWxOJtx32zWQzALaL7mcFgi8x+LO6mSFqwCMIYZxWwcQ0AXaA7eiDmoK/uoH03GcyTxe/5oQ7+Xh2CP4gVXHSJ0KtcRv0tXzDNZPVb1xKJuudoZC9T26QHf5liycX0TR8WhmNtVTqdv/dYnqiH8DuCQ==);strokeColor=none;spacingTop=-3;spacingBottom=-3;spacingLeft=-3;spacingRight=-3;points=[];labelBackgroundColor=none;rounded=0;html=1;whiteSpace=wrap;container=0;" parent="1" vertex="1">
          <mxGeometry x="919" y="747" width="23" height="18" as="geometry" />
        </mxCell>
        <mxCell id="huZJwnv4xgB_R8jsP4eI-39" value="&lt;div style=&quot;font-size: 1px&quot;&gt;&lt;font style=&quot;font-size:15.52px;font-family:Segoe UI;color:#000000;direction:ltr;letter-spacing:0px;line-height:120%;opacity:1&quot;&gt;Azure Monitor&lt;br/&gt;&lt;/font&gt;&lt;/div&gt;" style="verticalAlign=middle;align=center;overflow=width;vsdxID=1192;fillColor=none;gradientColor=none;shape=stencil(nZBLDoAgDERP0z3SIyjew0SURgSD+Lu9kMZoXLhwN9O+tukAlrNpJg1SzDH4QW/URgNYgZTkjA4UkwJUgGXng+6DX1zLfmoymdXo17xh5zmRJ6Q42BWCfc2oJfdAr+Yv+AP9Cb7OJ3H/2JG1HNGz/84klThPVCc=);strokeColor=none;points=[];labelBackgroundColor=none;rounded=0;html=1;whiteSpace=wrap;container=0;" parent="1" vertex="1">
          <mxGeometry x="1037" y="763" width="95" height="50" as="geometry" />
        </mxCell>
        <mxCell id="huZJwnv4xgB_R8jsP4eI-40" style="vsdxID=1178;fillColor=#5ea0ef;gradientColor=#0078d4;shape=stencil(vVHLDsIgEPwajiQI6RfU+h8bu22JCGRB2/69kG1iazx58DazM/vIjjBtmiCi0CplCjecbZ8nYc5Ca+snJJsLEqYTph0C4Ujh4XvmEaqzont41gkL96naodXKrGF6YSfQtUi0OXXDVlqPfJNP6usotUhYbJIUMmQb/GGrAxpRljVycDBuc1hKM2LclX8/7H9nFfB+82Cd45T2+mcspcSRmu4F);strokeColor=none;strokeWidth=48;spacingTop=-3;spacingBottom=-3;spacingLeft=-3;spacingRight=-3;points=[];labelBackgroundColor=none;rounded=0;html=1;whiteSpace=wrap;container=0;" parent="1" vertex="1">
          <mxGeometry x="1060" y="723" width="47" height="47" as="geometry" />
        </mxCell>
        <mxCell id="huZJwnv4xgB_R8jsP4eI-41" style="vsdxID=1180;fillColor=#FFFFFF;gradientColor=none;shape=stencil(vVHLDsIgEPwajiQI6RfU+h8bu22JCGRB2/69kG1iazx58DazM/vIjjBtmiCi0CplCjecbZ8nYc5Ca+snJJsLEqYTph0C4Ujh4XvmEaqzont41gkL96naodXKrGF6YSfQtUi0OXXDVlqPfJNP6usotUhYbJIUMmQb/GGrAxpRljVycDBuc1hKM2LclX8/7H9nFfB+82Cd45T2+mcspcSRmu4F);strokeColor=none;strokeWidth=48;spacingTop=-3;spacingBottom=-3;spacingLeft=-3;spacingRight=-3;points=[];labelBackgroundColor=none;rounded=0;html=1;whiteSpace=wrap;container=0;" parent="1" vertex="1">
          <mxGeometry x="1063" y="726" width="41" height="41" as="geometry" />
        </mxCell>
        <mxCell id="huZJwnv4xgB_R8jsP4eI-42" style="vsdxID=1182;fillColor=#9cebff;gradientColor=none;shape=stencil(rVLLEsIgDPwajmV4lGLPPv6DsbRlxNJJUevfSwdGW1/jwVuS3bBZEsTXQ6t6jRgZPLiDvpjKt4hvEGOmazUYHyLEt4ivawe6AXfqqpj3amJO0dGdpxfG2EemDkau82wXiQr2AYFEpAXHJYtsSHQqBM5prCVaLnEhFm9SkjTGTI1myMB55Y3rIlom0CpodBYks9qqZjHbcNG6fymnIa3pZm7uWklbEEzyz55KhqVYWlpJXOYLR5JjuXrzS3/zQz/7+bKdn4kheCy/NtbG25njz8cSSvHQ+PYG);strokeColor=none;strokeWidth=48;spacingTop=-3;spacingBottom=-3;spacingLeft=-3;spacingRight=-3;points=[];labelBackgroundColor=none;rounded=0;html=1;whiteSpace=wrap;container=0;" parent="1" vertex="1">
          <mxGeometry x="1066" y="747" width="10" height="11" as="geometry" />
        </mxCell>
        <mxCell id="huZJwnv4xgB_R8jsP4eI-43" style="vsdxID=1184;fillColor=#32bedd;gradientColor=none;shape=stencil(vVXBboMwDP0ajlhJTEJy7rr/QGtoozGoAlu7v19Ysnamg7VS1Zux82yeXxxnuOp31d5mgvWD717twW2GXYZPmRCu3VnvhmBluM5wVXfebn333m7i974aT47WW/cxZjhGXGkA5YgS7DN6hAKhvz3PEVD5lxD1CaAYCBUBPiE4K4Fh9KVTBYI2JC1L8bw6uj733VANrmtjzKRgU/mtzUO9vG6qLcH1B2v3F+70h41r7VLtogQj5ymhAF1QSlIDCsIo8EZOskoDRt2XFZ9ndYVQNwPoVWC3ZOcGBG1HaJDC5SbLyyZL0mSUPzlO0mlQ/GFNvqzP5hmNkzC5NpwpMIZQmuvqIybhH0Wp/EoBKgIog6LFgqIFKEP5K35WK+VA4HQYObvzU7Cg56nWpPaffMI8o57qKaFQhJCWJwXTIVR3fwcWNL1CppsBwTjvh9o1TVwvv+PTfRJccRfh+gs=);strokeColor=none;strokeWidth=48;spacingTop=-3;spacingBottom=-3;spacingLeft=-3;spacingRight=-3;points=[];labelBackgroundColor=none;rounded=0;html=1;whiteSpace=wrap;container=0;" parent="1" vertex="1">
          <mxGeometry x="1072" y="729" width="28" height="16" as="geometry" />
        </mxCell>
        <mxCell id="huZJwnv4xgB_R8jsP4eI-44" style="vsdxID=1186;fillColor=#50e6ff;gradientColor=none;shape=stencil(rVLLEsIgDPwajmUo9MW56n8wSltGLJ0Utf691Pho1Y4Xb8lms8lCiCj7RnWacNZ7cHt9NjvfELEinJu20WB8iIhYE1FWDnQN7tjuMO/UyByjgzuNCgP2xYyNPZxdME8FlekN2SDdmnZCTzgtklkDm5IVbEMFHtp5RjOJbLjT4yyliUBsmCo89J4LDZEaTB+B88ob12JV3otWQa2jMC6qrKpnOv1Z6+4D/uoml8/93qZ/98ME5dncjwwWi5md5Rf9m6V42dLP/wzB6xYqYy2e0rT+fjsBwrsT6ys=);strokeColor=none;strokeWidth=48;spacingTop=-3;spacingBottom=-3;spacingLeft=-3;spacingRight=-3;points=[];labelBackgroundColor=none;rounded=0;html=1;whiteSpace=wrap;container=0;" parent="1" vertex="1">
          <mxGeometry x="1066" y="735" width="9" height="10" as="geometry" />
        </mxCell>
        <mxCell id="huZJwnv4xgB_R8jsP4eI-45" style="vsdxID=1188;fillColor=#f04049;gradientColor=none;shape=stencil(vVLLbsMgEPwajl7xcDCc0/Q/UINtVGqsNWnSvy8uRA2uavXU2zKzswvDEHFcRjNbwukSMbzaqzvHkYgnwrmbRosupoqIExHHPqAdMFymcz7PZu1cq7fwvk64ZZ3WoA+ritOPjDAKTH4hz1lg8CWxeBeA5Lkf7wIFrM1Q6VEdKFYNpYVvzM0tDYZoogtTmVhIb3CwTdrW9N4MlW65Wjv/gMv9vJseHkSrvbIDLn5vlqDazeN3RusWZO2VEKDVnlct23jVQXeovNr7gP/w6w8BSMV3fHrnfU7fI7+NW4JyVMXpEw==);strokeColor=none;strokeWidth=48;spacingTop=-3;spacingBottom=-3;spacingLeft=-3;spacingRight=-3;points=[];labelBackgroundColor=none;rounded=0;html=1;whiteSpace=wrap;container=0;" parent="1" vertex="1">
          <mxGeometry x="1084" y="740" width="13" height="6" as="geometry" />
        </mxCell>
        <mxCell id="huZJwnv4xgB_R8jsP4eI-46" style="vsdxID=1190;fillColor=#8c8e90;gradientColor=#3e3f3f;shape=stencil(vVHLDsIgEPwajiQI6RfU+h8bu22JCGRB2/69kG1iazx58DazM/vIjjBtmiCi0CplCjecbZ8nYc5Ca+snJJsLEqYTph0C4Ujh4XvmEaqzont41gkL96naodXKrGF6YSfQtUi0OXXDVlqPfJNP6usotUhYbJIUMmQb/GGrAxpRljVycDBuc1hKM2LclX8/7H9nFfB+82Cd45T2+mcspcSRmu4F);strokeColor=none;strokeWidth=48;spacingTop=-3;spacingBottom=-3;spacingLeft=-3;spacingRight=-3;points=[];labelBackgroundColor=none;rounded=0;html=1;whiteSpace=wrap;container=0;" parent="1" vertex="1">
          <mxGeometry x="1080" y="743" width="6" height="6" as="geometry" />
        </mxCell>
        <mxCell id="huZJwnv4xgB_R8jsP4eI-47" value="&lt;div style=&quot;font-size: 1px&quot;&gt;&lt;font style=&quot;font-size:15.52px;font-family:Segoe UI;color:#000000;direction:ltr;letter-spacing:0px;line-height:120%;opacity:1&quot;&gt;Azure Key Vault&lt;br/&gt;&lt;/font&gt;&lt;/div&gt;" style="verticalAlign=middle;align=center;overflow=width;vsdxID=1193;fillColor=none;gradientColor=none;shape=stencil(nZBLDoAgDERP0z3SIyjew0SURgSD+Lu9kMZoXLhwN9O+tukAlrNpJg1SzDH4QW/URgNYgZTkjA4UkwJUgGXng+6DX1zLfmoymdXo17xh5zmRJ6Q42BWCfc2oJfdAr+Yv+AP9Cb7OJ3H/2JG1HNGz/84klThPVCc=);strokeColor=none;points=[];labelBackgroundColor=none;rounded=0;html=1;whiteSpace=wrap;container=0;" parent="1" vertex="1">
          <mxGeometry x="1180" y="771" width="114" height="50" as="geometry" />
        </mxCell>
        <mxCell id="huZJwnv4xgB_R8jsP4eI-48" style="vsdxID=1019;fillColor=#5ea0ef;gradientColor=#0078d4;shape=stencil(tVPbUsMgEP0aHsOwkKTyXOt/MC1JGDFkNmjr35e4qE2qps7o217OLmf3sExtx84MlkkxRgyP9ugOsWPqnknp+s6ii8liasfUtgloWwzP/YH8wUzIyXoKL1OHE9WVwEs5VUnxShHx5j0Q2OA+ZTCDK80zFjO4UhyAQhkDQszaJURdZ0RhTm4sMEQTXegprzPcG2xtkd4rGm/a3ItS49Ha4SK8wnBzTXEzo/jdzL8nKG4g6F1/+77XxHnf7tfDA4eFPmXF7+rZ8Bq41v+tEPxMEq5JVisKfXyrv9JoRnFNo8Xak/F5T43zns7xMr+8vxSi21W7Mw==);strokeColor=none;strokeWidth=48;spacingTop=-3;spacingBottom=-3;spacingLeft=-3;spacingRight=-3;points=[];labelBackgroundColor=none;rounded=0;html=1;whiteSpace=wrap;container=0;" parent="1" vertex="1">
          <mxGeometry x="1216" y="723" width="43" height="47" as="geometry" />
        </mxCell>
        <mxCell id="huZJwnv4xgB_R8jsP4eI-49" style="vsdxID=1021;fillColor=#FFFFFF;gradientColor=none;shape=stencil(vVHLDsIgEPwajiQI6RfU+h8bu22JCGRB2/69kG1iazx58DazM/vIjjBtmiCi0CplCjecbZ8nYc5Ca+snJJsLEqYTph0C4Ujh4XvmEaqzont41gkL96naodXKrGF6YSfQtUi0OXXDVlqPfJNP6usotUhYbJIUMmQb/GGrAxpRljVycDBuc1hKM2LclX8/7H9nFfB+82Cd45T2+mcspcSRmu4F);strokeColor=none;strokeWidth=48;spacingTop=-3;spacingBottom=-3;spacingLeft=-3;spacingRight=-3;points=[];labelBackgroundColor=none;rounded=0;html=1;whiteSpace=wrap;container=0;" parent="1" vertex="1">
          <mxGeometry x="1213" y="726" width="43" height="44" as="geometry" />
        </mxCell>
        <mxCell id="huZJwnv4xgB_R8jsP4eI-50" style="vsdxID=1023;fillColor=#ffd70f;gradientColor=#fea11b;shape=stencil(xVdLcsIwDD1Nlmhsy981pffIlACZpoQxaaG3r6kTwA5xgTJhZyQk6+lJspLhdLvKN0XGyLax9XuxK+fNKsOXjLFyvSps2bhThrMMp4vaFktbf67n/vcmP/zzcPqovw4e9t7OcJDiYMXIt5egAVS/kldvkNs3p7WtAdXgtcS2BpQCp1406JQh0Fayn+T7cjuxdZM3Zb1uLYhXVrldFhN342RR5Uuva1XbXVFseuI2xqpcn4GSDEwEChCTmGQPE4oAEyog7LLPMSCJYzy9jA5C0n/x1HN64n4MTEhBmuB+IYGyYVACKA8x4VHS+UQIWRIaUD8WEk1Aiq/XGowcRiSBsxiRYSEiAYQGPg0FRR8LKcESd4WvwvsNsETpcaDRhGAgwmYSrkEHXI4yHzgIHafUqGEDdWqdjlcFKlGpDnFUqTTOwQWfAoQZLwmu9kJetYs6BUmJGFI3YoZdEqDjdV8/pUolB8qpMG+gSXEwz6TJRWSSmO7gSZruBXwKTS4g8WiaXJPjiDT1RookQOQtBu6l4mbY4IpN7WaDcBcUJOzd9IJBQGBIiquqbiG66NCxdnytb2WEXlFl/w5Q37+kXhNftNGls+0Op519UVaVX/nP9fGO70T++wBnPw==);strokeColor=none;strokeWidth=48;spacingTop=-3;spacingBottom=-3;spacingLeft=-3;spacingRight=-3;points=[];labelBackgroundColor=none;rounded=0;html=1;whiteSpace=wrap;container=0;" parent="1" vertex="1">
          <mxGeometry x="1220" y="724" width="29" height="48" as="geometry" />
        </mxCell>
        <mxCell id="huZJwnv4xgB_R8jsP4eI-51" style="vsdxID=1025;fillColor=#ff9300;gradientColor=none;fillOpacity=75;shape=stencil(vZPBUsMgEIafhmN2gAWanGt9D8aShBFDhlBb314iOJZGHS/2ttl//2U/whLcL6OeDeF0icE/m7M9xpHgA+HcTqMJNqaI4IHgvvfBDMGfpmP+nvVauUYv/nXtcMk+JkHtVhenbznTdcC6j8xjNujwlNRQDJKBVNkQikMCK5nPppTWLSWgKBWNvtilCT7qaP1U9FLudBhMk85reqeHrBVpORszb9JlQmenK6QE0NZIApT6hQihFbdE2FZEOwlCVj0pMPxHpHpE0QGyekQBHVYj0u+R73Hj27/9M4ri0GKNooDXt50epRSbRynvxvOHpUjB10r11rm8kdf67QqmVF5fPLwD);strokeColor=none;strokeWidth=48;spacingTop=-3;spacingBottom=-3;spacingLeft=-3;spacingRight=-3;points=[];labelBackgroundColor=none;rounded=0;html=1;whiteSpace=wrap;container=0;" parent="1" vertex="1">
          <mxGeometry x="1232" y="754" width="1" height="13" as="geometry" />
        </mxCell>
        <mxCell id="huZJwnv4xgB_R8jsP4eI-52" style="vsdxID=1027;fillColor=#ff9300;gradientColor=none;fillOpacity=75;shape=stencil(vVTBbsMgDP0ajkEEwzLOXfcfqCUJGgsRYWv394UZLaU7TNGk3Izfs3kPxyFwWEY9G8LZEoN/Mxd7jiOBF8K5nUYTbEwRgSOBQ++DGYL/mM54nnVm5ujdf+YOV6xjlLW5iLMvTEhBOXxnXpGvwymhofAlFR3yQykQkkJpsXKg6tkyVgiNvtqlCT7qaP2EqCqg02EwTbqu6Z0eijyElosx8690EejsdGdICSpVdbtSVG00xFVl6Ef/+kat2M9R0l87Ek+0lf+bUX6mrmrKKDzv5ilJrD87ttHOw4Tq+SS863bz8vcKbeWnYN3X3jqH636PP+53SuG/AY43);strokeColor=none;strokeWidth=48;spacingTop=-3;spacingBottom=-3;spacingLeft=-3;spacingRight=-3;points=[];labelBackgroundColor=none;rounded=0;html=1;whiteSpace=wrap;container=0;" parent="1" vertex="1">
          <mxGeometry x="1227" y="738" width="15" height="1" as="geometry" />
        </mxCell>
        <mxCell id="huZJwnv4xgB_R8jsP4eI-53" style="vsdxID=1029;fillColor=#ff9300;gradientColor=none;fillOpacity=75;shape=stencil(vVTBbsMgDP0ajkEEwzLOXfcfqCUJGgsRYWv394UZLaU7TNGk3Izfs3kPxyFwWEY9G8LZEoN/Mxd7jiOBF8K5nUYTbEwRgSOBQ++DGYL/mM54nnVm5ujdf+YOV6xjlLW5iLMvTEhBOXxnXpGvwymhofAlFR3yQykQkkJpsXKg6tkyVgiNvtqlCT7qaP2EqCqg02EwTbqu6Z0eijyElosx8690EejsdGdICSpVdbtSVG00xFVl6Ef/+kat2M9R0l87Ek+0lf+bUX6mrmrKKDzv5ilJrD87ttHOw4Tq+SS863bz8vcKbeWnYN3X3jqH636PP+53SuG/AY43);strokeColor=none;strokeWidth=48;spacingTop=-3;spacingBottom=-3;spacingLeft=-3;spacingRight=-3;points=[];labelBackgroundColor=none;rounded=0;html=1;whiteSpace=wrap;container=0;" parent="1" vertex="1">
          <mxGeometry x="1227" y="741" width="15" height="1" as="geometry" />
        </mxCell>
        <mxCell id="huZJwnv4xgB_R8jsP4eI-54" value="&lt;div style=&quot;font-size: 1px&quot;&gt;&lt;font style=&quot;font-size:15.52px;font-family:Segoe UI;color:#000000;direction:ltr;letter-spacing:0px;line-height:120%;opacity:1&quot;&gt;Microsoft Cost Management&lt;br/&gt;&lt;/font&gt;&lt;/div&gt;" style="verticalAlign=middle;align=center;overflow=width;vsdxID=1194;fillColor=none;gradientColor=none;shape=stencil(nZBLDoAgDERP0z3SIyjew0SURgSD+Lu9kMZoXLhwN9O+tukAlrNpJg1SzDH4QW/URgNYgZTkjA4UkwJUgGXng+6DX1zLfmoymdXo17xh5zmRJ6Q42BWCfc2oJfdAr+Yv+AP9Cb7OJ3H/2JG1HNGz/84klThPVCc=);strokeColor=none;points=[];labelBackgroundColor=none;rounded=0;html=1;whiteSpace=wrap;container=0;" parent="1" vertex="1">
          <mxGeometry x="1315" y="768" width="114" height="50" as="geometry" />
        </mxCell>
        <mxCell id="huZJwnv4xgB_R8jsP4eI-55" style="vsdxID=1168;fillColor=#258277;gradientColor=none;shape=stencil(vVfddpswDH4aLqNjWcY/1133HpyWJJxlIYfQNXn7KcMYjAvZupI7sGVZn/Tpxxk9nffFqcykOLdN/aN8r17bfUbfMimr475sqpa/MnrO6GlbN+Wuqd+Or93/qbhJ3r5+1r9uGi7dORTidkaKa/evDUj6s/K9Ey+aF95tvDjloPLuQONPoAUtuyUvZB0IjLRaBKe8zKa4VOdNU7dFW9XHbt/bcCiaXbnhGzfbQ7GLts7vZXkaLeO8jbkEa2IbpQFjIhtzA0rHNlqwtJ6Nh+pYLl3fB+JDcYVg/0ucwfm4fegyS5BT7DJFwYteSCZKCeSKUY0xJbdrC6jnIWkFQsWQiECrGJKA3EVaDd+DX4pJLLjdgJswVWmQGNmYBtNwEsr1bLzHpVyDWOJSDlNMOYi4QjiIVTJqtI+qD0qA0ZP6gKBiryOCkXHGGaCv9fqSjQ6cm9jIzNB3mIHigRmZXr9AIy54+GlZhiUWUt3YwJ5AOexPjJrSNKAEZkXSxZjS6yX3TbuQRiK0rABKDnk/4ykuk27F8nUnTkoBLgwP3C/EhNQqKcmpo3LW6h6VeLcBZ1Ic0gFnfmh6AJPuTmzxgJdmKdc/Pa8+lZfc5heIihyeCVF5uJn0WRci3/dihBV5+vLWdD7A9H4Mge6H1IsM84EHcu1XhspyocBY7w1xpc85dCofB8xgKP1DhP2YMANvfATD+KMohsdqBMX4NA7pR0lS9ysOpPyHKsDjibNL5o4NwXDGzxTB3DGofkkOxKJUimbcFdv7F/7lj+G9tK0Oh+65Nd6fvq94qXub0fNv);strokeColor=none;spacingTop=-3;spacingBottom=-3;spacingLeft=-3;spacingRight=-3;points=[];labelBackgroundColor=none;rounded=0;html=1;whiteSpace=wrap;container=0;" parent="1" vertex="1">
          <mxGeometry x="1367" y="740" width="8" height="15" as="geometry" />
        </mxCell>
        <mxCell id="huZJwnv4xgB_R8jsP4eI-56" style="vsdxID=1169;fillColor=#ffca00;gradientColor=none;shape=stencil(rZLJEoMgDIafhqMMEB3suct7MC0qUypOpNW+fbHYqXQ79ZblC8kfQmDdN6rTRLDeozvqwRx8Q2BDhDBto9H4YBHYElhXDnWN7tweot+piZysk7tML4yxjjM21Qh2jT6jXN4Du0hb0y5osaIcfvIK9yGJM19KysvI41wggZY8hmYoHaAoHi+yMVOj6TN0Xnnj2oS2CmudhW5ZZVWdpPpB624R5t/15JKyImn/2MdHObyQNF+lejgAhTwR9LbTv8pJ5gvG82crY208jGX+9RJCKF4RbG8=);strokeColor=none;spacingTop=-3;spacingBottom=-3;spacingLeft=-3;spacingRight=-3;points=[];labelBackgroundColor=none;rounded=0;html=1;whiteSpace=wrap;container=0;" parent="1" vertex="1">
          <mxGeometry x="1379" y="749" width="14" height="17" as="geometry" />
        </mxCell>
        <mxCell id="huZJwnv4xgB_R8jsP4eI-57" style="vsdxID=1170;fillColor=#76bc2d;gradientColor=#5e9624;shape=stencil(xVTRboMwDPyaPBIZRzTw3LX/Ea0BoqUEhWzt/n5hpi2M0kpV1b05Pp+di3JmYt3VqtUMoQvefeiD2YWaiTeGaJpaexNixMSGiXXpvK68+2x2dG5VX9lHe/fVdzgSLyt4IXsWwjdlpOQy+81siaD8e0T9QBCCY0oEPzBQ8lVBqcWuiFzkQ02ijqZLvAsqGNcQDoRZ5SudxIlJaVU1gbqD1u0onY7vaE1zUxQsCxoVnwRlMFEDk1Zn8DkyYFnG1bkPapg/SQovE7I8/EE157sPcC559ioxOXJIp46B0/+/7hjk+WrmGHHPMRcf/otjZmsgBpclUhpraQeN8b9LJ6ZoYYnNDw==);strokeColor=none;spacingTop=-3;spacingBottom=-3;spacingLeft=-3;spacingRight=-3;points=[];labelBackgroundColor=none;rounded=0;html=1;whiteSpace=wrap;container=0;" parent="1" vertex="1">
          <mxGeometry x="1348" y="725" width="38" height="46" as="geometry" />
        </mxCell>
        <mxCell id="huZJwnv4xgB_R8jsP4eI-58" style="vsdxID=1171;fillColor=#cccccc;gradientColor=none;shape=stencil(rVLLDoMgEPwajhoETOrZtv9BKiopFbPQqn9fCNZX6sX2tjs7u7MLg2huat4KRLCxoO+ik4WtET0jQmRTC5DWRYheEM1LDaIC/WyKkLfcM3300C8/oQ992HcQPCyzayAq2fxOZCxO2WEyh5urwkhOWcxCGcMwQWlAPpw0JtlqaIJHkT7ivTQRaMut1M1qAcWhEpGTi0rFq1XJdEK0CzjZv2aS2kh/vSbL4lO2vmZedf/N/3XGsa92weykUioVjLisb53noOBaenkD);strokeColor=none;spacingTop=-3;spacingBottom=-3;spacingLeft=-3;spacingRight=-3;points=[];labelBackgroundColor=none;rounded=0;html=1;whiteSpace=wrap;container=0;" parent="1" vertex="1">
          <mxGeometry x="1370" y="723" width="27" height="27" as="geometry" />
        </mxCell>
        <mxCell id="huZJwnv4xgB_R8jsP4eI-59" style="vsdxID=1172;fillColor=#999999;gradientColor=none;shape=stencil(rVLLDsIgEPwajiUUagtnrf9BlLZELM2Ctv69NJAoPuLF2+7M7C4TBrGtG+SkECXOgz2pWR/9gNgOUarHQYH2oUKsRWzbWVA92Mt4jP0kV+Vane113bDEuZKQdYaSW97vo1jCIXCQxIJjXkU5JL0QmLAIJRHFm2xj2r8UctGuAOul13bMOCOhV0W4VXRG9hnlZqWmNzi9zujxyQr5cPajsMaszk2XWDTfbfMaN7nrgPAmc80bzPOlosKE/tV7+d3Sj28MxSMAnTYm5ueZfw1MgGLYWHsH);strokeColor=none;spacingTop=-3;spacingBottom=-3;spacingLeft=-3;spacingRight=-3;points=[];labelBackgroundColor=none;rounded=0;html=1;whiteSpace=wrap;container=0;" parent="1" vertex="1">
          <mxGeometry x="1370" y="735" width="15" height="15" as="geometry" />
        </mxCell>
        <mxCell id="huZJwnv4xgB_R8jsP4eI-60" style="edgeStyle=orthogonalEdgeStyle;rounded=0;orthogonalLoop=1;jettySize=auto;html=1;entryX=0;entryY=0.25;entryDx=0;entryDy=0;" parent="1" source="huZJwnv4xgB_R8jsP4eI-61" target="huZJwnv4xgB_R8jsP4eI-21" edge="1">
          <mxGeometry relative="1" as="geometry">
            <Array as="points">
              <mxPoint x="15" y="119" />
            </Array>
          </mxGeometry>
        </mxCell>
        <mxCell id="huZJwnv4xgB_R8jsP4eI-92" value="Afiliación" style="edgeLabel;html=1;align=center;verticalAlign=middle;resizable=0;points=[];fontSize=14;" parent="huZJwnv4xgB_R8jsP4eI-60" vertex="1" connectable="0">
          <mxGeometry x="-0.3635" y="-1" relative="1" as="geometry">
            <mxPoint as="offset" />
          </mxGeometry>
        </mxCell>
        <mxCell id="huZJwnv4xgB_R8jsP4eI-61" value="Cliente" style="shape=umlActor;verticalLabelPosition=bottom;verticalAlign=top;html=1;outlineConnect=0;" parent="1" vertex="1">
          <mxGeometry x="-210" y="-41.15000000000001" width="30" height="60" as="geometry" />
        </mxCell>
        <mxCell id="huZJwnv4xgB_R8jsP4eI-62" style="edgeStyle=orthogonalEdgeStyle;rounded=0;orthogonalLoop=1;jettySize=auto;html=1;exitX=0;exitY=0.25;exitDx=0;exitDy=0;" parent="1" source="huZJwnv4xgB_R8jsP4eI-20" target="huZJwnv4xgB_R8jsP4eI-28" edge="1">
          <mxGeometry relative="1" as="geometry">
            <Array as="points">
              <mxPoint x="130" y="240" />
              <mxPoint x="10" y="240" />
              <mxPoint x="10" y="474" />
            </Array>
          </mxGeometry>
        </mxCell>
        <mxCell id="huZJwnv4xgB_R8jsP4eI-63" style="edgeStyle=orthogonalEdgeStyle;rounded=0;orthogonalLoop=1;jettySize=auto;html=1;" parent="1" source="huZJwnv4xgB_R8jsP4eI-7" target="huZJwnv4xgB_R8jsP4eI-8" edge="1">
          <mxGeometry relative="1" as="geometry" />
        </mxCell>
        <mxCell id="huZJwnv4xgB_R8jsP4eI-64" value="Applicaton Insight" style="image;aspect=fixed;html=1;points=[];align=center;fontSize=12;image=img/lib/azure2/devops/Application_Insights.svg;" parent="1" vertex="1">
          <mxGeometry x="1379" y="245" width="45.4" height="65" as="geometry" />
        </mxCell>
        <mxCell id="huZJwnv4xgB_R8jsP4eI-65" value="&lt;span style=&quot;font-size: 16px;&quot;&gt;ONBASE CAJA&lt;/span&gt;" style="rounded=1;whiteSpace=wrap;html=1;fontStyle=1;verticalAlign=top;align=left;shadow=0;fillColor=#fff2cc;strokeColor=#d6b656;glass=1;" parent="1" vertex="1">
          <mxGeometry x="-0.5" y="1050" width="425" height="256" as="geometry" />
        </mxCell>
        <mxCell id="huZJwnv4xgB_R8jsP4eI-66" value="" style="rounded=1;whiteSpace=wrap;html=1;" parent="1" vertex="1">
          <mxGeometry x="63.14999999999998" y="1090" width="290" height="163" as="geometry" />
        </mxCell>
        <mxCell id="huZJwnv4xgB_R8jsP4eI-67" value="" style="shape=image;verticalLabelPosition=bottom;verticalAlign=top;imageAspect=0;aspect=fixed;image=data:image/jpeg,/9j/4AAQSkZJRgABAQAASABIAAD/4QBoRXhpZgAATU0AKgAAAAgAAYdpAAQAAAABAAAAGgAAAAAABJKGAAcAAAAQAAAAUKABAAMAAAABAAEAAKACAAQAAAABAAAA9qADAAQAAAABAAAA9gAAAABBU0NJSQAAAG1hZ2UgMTlN/+0AOFBob3Rvc2hvcCAzLjAAOEJJTQQEAAAAAAAAOEJJTQQlAAAAAAAQ1B2M2Y8AsgTpgAmY7PhCfv/AABEIAPYA9gMBIgACEQEDEQH/xAAfAAABBQEBAQEBAQAAAAAAAAAAAQIDBAUGBwgJCgv/xAC1EAACAQMDAgQDBQUEBAAAAX0BAgMABBEFEiExQQYTUWEHInEUMoGRoQgjQrHBFVLR8CQzYnKCCQoWFxgZGiUmJygpKjQ1Njc4OTpDREVGR0hJSlNUVVZXWFlaY2RlZmdoaWpzdHV2d3h5eoOEhYaHiImKkpOUlZaXmJmaoqOkpaanqKmqsrO0tba3uLm6wsPExcbHyMnK0tPU1dbX2Nna4eLj5OXm5+jp6vHy8/T19vf4+fr/xAAfAQADAQEBAQEBAQEBAAAAAAAAAQIDBAUGBwgJCgv/xAC1EQACAQIEBAMEBwUEBAABAncAAQIDEQQFITEGEkFRB2FxEyIygQgUQpGhscEJIzNS8BVictEKFiQ04SXxFxgZGiYnKCkqNTY3ODk6Q0RFRkdISUpTVFVWV1hZWmNkZWZnaGlqc3R1dnd4eXqCg4SFhoeIiYqSk5SVlpeYmZqio6Slpqeoqaqys7S1tre4ubrCw8TFxsfIycrS09TV1tfY2dri4+Tl5ufo6ery8/T19vf4+fr/2wBDAAICAgICAgMCAgMEAwMDBAUEBAQEBQcFBQUFBQcIBwcHBwcHCAgICAgICAgKCgoKCgoLCwsLCw0NDQ0NDQ0NDQ3/2wBDAQICAgMDAwYDAwYNCQcJDQ0NDQ0NDQ0NDQ0NDQ0NDQ0NDQ0NDQ0NDQ0NDQ0NDQ0NDQ0NDQ0NDQ0NDQ0NDQ0NDQ3/3QAEABD/2gAMAwEAAhEDEQA/AP38ooooAKKKKACiiigAooooAKKKKACiiigAooooAKKKKACiiigAooooAKKKKACiiigAooooAKKKKACiiigAooooA//Q/fyiiigAooooAKKKKACiiigAooooAKKyNc1/QvDOmzaz4j1C10uwgGZbq8mSCFB/tO5VR+dfDPxJ/wCCjPwJ8GPLZeE/tvjO9j4/4l6eRZ7ve5m25HvGjj3rpw+Dr13ajFs4MdmuDwUebFVFH1evyW7Pv2ivwj8a/wDBTH41647xeDdK0fwzbkna5jbULkDtl5SsWf8AtjXzH4j/AGqv2i/FLOdW+IOtqr9Y7O4+wx/982wiFe5R4WxctZtR/H8v8z4zF+JOWU3ajGU/lZfi7/gf08UzzI87dy59M1/JdqHjLxhqzmTVde1S9Y9TcXs8p/8AH3NZH9palu3/AGu43evmvn8812rhCXWr+H/BPJl4pU7+7hn/AOBf/an9ddFfyWaf408ZaQ4k0rX9VsmHQ297PEf/ABxxXr3hz9q39o3wqyHSviBrTqnSO9nF+n023IlGKzqcJVV8FRP1Vv8AM6KPihhW/wB7QkvRp/5H9OtFfhP4J/4KZ/GjRGSLxppGj+JrcEb3VG0+6I7/ADxF4s/9sq+4fhr/AMFFPgN42eKy8UPeeDb6TjGpIJbPcewuYdwA95FjFeTichxtHVwuvLX/AIP4H02A40yjFtRjV5X2lp+O34n3vRWZo2t6N4i06HV9Av7bUrG4G6K5tJUnhcequhKn8DWnXkNNOzPqU01dBRRRSGFFFFABRRRQAUUUUAFFFFAH/9H9/KKKKACiiigAooooAKKK4H4g/Ejwz8NtHOqeIJ/3kmRbWseDPcOOyL6Duxwq9+1ZVq9OjB1artFbtmVevTo03VqytFbtna3l5aafay31/PHbW8Cl5ZZWCIijqWYkAD614/8AHvxZ498KfB3xB4y+FFvZ6jrWnWf22BLlWmje2XDSyRqjDe6RZdAThsY5zivgH4l/F/xZ8Tbw/wBpy/ZdMRswadAx8lMdC54Mj/7TcDsBX1Z+y98S113RJPh3rcge70yMtZGTnzrPoY+epiJxj+4R6Gvmsq4ww2JzBYeMfd6N/aa6W6J9D4zC8XYfMMVLAUrxUk1GXW/p08j8A/iH8V/iJ8WNVOtfELX7zW58lo1nkxBDntDCu2KIeyKPevPq+qP2wvge3wO+MuoaXp0Bj8Pa5u1TRiB8iQysfMgB9YJMqB12FCetfK9f0VhKlOdGM6KtFrQ/D81o4iji6lLFtuadm3rfz+YUUhIAyeK9A8K/Cn4neOSv/CHeE9Z1lW6SWdjNLF/38C7B+Jrac4xV5OyOSlRqVZctOLb8lc4CivrPSP2G/wBqPWUEkXgmW1U/8/l7aW5/FXm3D8q6X/h3t+1H/wBC/Yf+DW1/+LrjlmeETs6sfvR6kOHc0krxw8//AAFnxPRX1hrH7D37UWjIZJfBE10o6mzvLS4P/fKTFj+ArwvxV8LfiX4HJ/4THwrrOiqvV72xmhj/AAkZNh/A1tTxdCppTmn6NHNiMqxtBXrUZRXnFr9Dg6KQEEZHNLXQeeek/Db4v/Er4Q6oNX+HniC70eQsGlhjfdaz47TQPuikH+8pI7EV/SB+zt428ffEP4P6B43+Jen2ml6tq0BuRFah0RrVv9TMySEmNpU+fbuIAYfQfgX+yf8ABGX47fGLS/Dd3EzaFpxGpa24yF+xwMP3WezTviMd8Fj/AA1+9/xk8YQ+GtCj8K6OVhub2LyysY2iC0X5cADpuxtUemfavz7jbH4bDQu4rmWrfXyXzP1zw/8ArFDC1cbXm/ZLSMb6N9Wvy08+x7hDNDcRJPbussbgMroQysD0II4IqSvg7wT8Rdd8FTqlq/2nT2bMlnITs56lDzsb6cHuDX2X4V8W6N4w04ahpEu7GBLC3EsLH+F1/keh7V8DlmcUcYuVaS7f5dz9Iy7NqWKVlpLt/kdNRRRXrnqBRRRQAUUUUAFFFFAH/9L9/KKKKACiiigAooriPiD470f4deGbnxHq53CP5LeBTh7ids7I1+vUnsoJ7VnWrQpQdWo7RWrZlXrU6NN1artFatmB8WPivovwu0T7XdYudTugy2NkGw0jDq791jX+I9+g5Nfl34q8V69401qfX/EVy1zdzn6JGnZI16Ki9gPqcnJp/i7xbrfjfX7rxHr83m3Vy3Cj7kUY+7HGOyKOnr1OSSa5qvxbiHiCrmNXljpTWy/V+f5fn+F8ScSVczq8sdKS2X6vz/IK2/DfiHU/Cmu2PiLR5PLu7CZZYz2bH3lb1V1yrDuDWJXsnwq+Cvib4n3IuYQdP0WN9s2oSLkEjqkK8eY/r/Cvc54PjYLD161aMMMm59Lfn5ep4mAw2Ir14wwqbn0t+flbue7/ALTPw00/9qv9nqLXvCEHneIdLQ6ppEYwZfPQbbmyJ9ZFBUDoZFQ9K+K/g5/wTQ8ZeIY4NZ+MWrr4btHCv/ZdhsudQKnBxJKcwQnHp5p9cGv2D8C+A/D3w70NdA8OROkG8yyvK5eSWUgAuxPGSAOAABjgV2Vf0plmc4/D4KNCTSl1t362P2irwphcdVhjMxheqopSSfutrr0bPnH4cfsl/AD4XpFJ4e8I2V1exAf6fqi/b7osP4g824If+uaoPavoxESNBHGoVVGAqjAAHYCnUVzVa9Sq+apJt+Z9JhsJQw8OShBRXZKwUUUVkdAUySOOaNopVV0cYZWGQQexB60+igD5r+I/7Iv7PvxPSWTXfCdpY30uf9P0kf2fchj/ABEw7Uc/9dFcV+afxk/4JqeO/DEc+s/CLVF8U2UeX/s27222pKo5wj8QzED/AK5k9lJr9wKK9TB5zi8O/clddnqv69D5zNOFMsx6ftaaUu8dH/wfmmfD/wCyD8Hbf9m/4HS+IPGFubXxHrqrqerI4xNCoGLaz/3kVuR2kdh2riPEGuX3iTWLrWtQbM1y+7HZFHCoPZRwK+9fFHhfS/F2lPpGrB/KLB0aNirI65ww7HGehBFfGfjn4c614Jn8ycfatPdtsV2gwuT0Vxzsb9D2Pavg+MamMxNT28leG7t38/JLRHm5pl08LhqeHoR/dQX493/XVnntbfh/xDq3hjUo9V0eYxTJww6pIvdXXup/+uMGsSivhYTlCSlF2aPnoTlFqUXZo++vA3jjTPG+li7tcRXUWFubYnLRse49UPY/h1rtq/O3w34j1Pwrq8OsaW+2WI4ZD9yVD95GHcH9DyORX3j4W8S6d4s0aHWdNb5JBtkjP3opB95G9x+owe9fomSZusXDkqfGvx8/8z7zJ80WJjyT+Nfj5nQ0UUV7x7QUUUUAFFFFAH//0/38ooooAKKKKAI5pYreJ553WOONS7uxwqqoySSegA61+Vfxt+J8/wAS/Fsk9s7DRtPLQadH0DLn5piP70pGfZQB619W/tS/ERvD3hmLwXpsuy+11SbgqcNHZKcMPbzW+X/dDV+d1fmPG+cuU/7PpPRay9ei+W/r6H5Rx7nblUWXUnotZevRfLf19Aoor1r4OfDC7+J/ilNPbfFpVltm1GdeCseeI1P9+Qggegy3avhMLhqmIqxo0leT2Pz7CYWria0aFFXlJ2R2HwM+B9z8Rbsa/r6vb+HbaTBxlXvZFPMaHqEB4dx/ujnJX9J7CwstLsodO02CO2tbZBHFDEoVERegAHAFN03TbHR7C30vTIEtrS1jWKGGMYVEUYAAq7X7dkmSUcuo8kNZvd9/+B2P3rIMho5ZQ5IazfxPv/wOyCiiivbPeCiiigAooooAKKKKACiiigAqteWdrqFrLZX0STwTKUkjcblZT2IqzRSaTVmJpNWZ8VfE34Z3Hg65OpaaGm0id8Kx5a3Y9Ec+h/hb8Dz18kr9Jb6xtNTs5tPv4lmt7hDHJG4yGU9RXwn8QPBdz4J117E7pLOfMlpMf4o8/dJ/vJ0P4HvXwGfZP9Xft6K9x/g/8j4jOsqVB+2pL3X+H/AOGr0v4X+OJPB2vKty5/sy9Kx3S9kPRZQPVe/qufavNKK8HD4idCoqtN6o8ShWnRqKpDdH6XKyuodCGVhkEcgg9xTq8S+CXi863oLaDePuu9KCqhJ5e2PCH/gB+U+2K9tr9VweKjiKMa0NmfpeFxMa9KNWPUKKKK6ToCiiigD/1P38ooooAKKKKAPzq+J3wp+M/j3xxqniRtAkME0pjtFa5txstovliGPN4yBuPuTXBf8ADO/xi/6F5v8AwJt//jtfqlRXx1fgnB1qkqtSpNtu71XX5HxGI4DwNarKtUqTcpNt6rr/ANun5W/8M7/GL/oXm/8AAm3/APjtfoP8Jvh7a/DfwbaaEgVr2QeffzL/AMtLlwN3PdU4VfYe5r0uivQynhnCZfVdak25NW1tp6WSPSybhXB5bVdai25NW1tp6WSCiiivoT6UKKKKACiiigAooooAKKKKACiiigAooooAK4f4g+EIfGXh2bTsAXcWZbSQ/wAMqjgZ9GHyn657V3FFZVqMKsHTmtGZ1aUakHTnsz4Y/wCFRfEP/oEt/wB/of8A45R/wqL4h/8AQJb/AL/Q/wDxyvueivnv9VsJ/NL71/keF/q1hv5pfh/kfI/gTwP8RfCniiy1c6W4gD+VcgTRHMEnD8B+dv3h7ivriiivXy/L4YSDp022nrr/AMMj1MDgYYWDhTbafcKKKK7ztCiiigD/1f38ooooAKz9V1XTNC0261nWbqGxsLKJp7i5uHEcUUSDLO7MQFAHUmtCvxd/4KT/AB7v7/xFb/Afw9ctFp2nRw3uu+W2PtF1KA8Fu+OqRIVkI6FnXPKCu/LcDLF11Rjp3fZHjZ9nNPK8HLFVFd7Jd29l/XQ9E+L/APwU40XSNQn0b4NaCmtiFin9r6qzw2shHGYbdNsrr6M7Rk/3cV8uTf8ABST9pGW486NtAhTOfKXTmK49MtMW/Wvmb4G/BPxd8e/Hdv4H8JBImKG4vb2YEwWVqhAaWTHJOSFRRyzEDgZI/W7TP+CX/wAGINKW31bxH4iu9Q24a6hktoI9/qsJgkwM9i7H3r6+vSyjAWpVY3f3s/LMHiuKM65sThp8sL9Gor0XV/j6nifw3/4KieIIb2G0+LPhW1ubJiFkvdDZ4Z4x3Y287usn0Eie2a/WP4ffETwb8U/C1p4y8CanFqmlXYIWWPIZHX70cqHDRyL/ABIwBH0Ir+e/9qf9k7xH+zdqtndrenW/C+rO0dlqXl+VJHMo3GC4QEqsm0FlZTtcAkAEEC9+xT8e7/4L/Fyw06+umXwt4pni07VYGb91HJKdkF0B0DROQGPeMsD0GOfHZLhcRh/rOB9fJ/5M7cn4tzHA49ZdnOqva7tdX2d1uv68j+jeiiiviT9fCioJ7q1tsfaZo4t3A3sFz9MkVMrBgGUgg8gjoaAufDv7a/7THjj9nPS/Cs3gmx0y7m8QTX0cz6jHLIIharCV2LHJHyfMOck9BX5vz/8ABSP9pOViY30CEeiacxH/AI9Mxr6W/wCCq3/II+G//X1q/wD6Ba18H/sc+A/CXxK/aC8PeD/HGnpqmj3kOoPPayO8au0NrLImWjZG4dQeDzjmvuspweE/s5YmtTTau38mz8b4mzXNHnzy/CV3FNxS1sk2l+rPa9J/4KXftC2MyvqNp4d1KMH5kkspYiR/vRTrj8jX238BP+CiHgT4m6zZ+EPiDpv/AAiOs3zrDbXPnefps8znCoZGCvAzHAUOCpPG/OBXWfEn/gnz+z/4s8O3dr4O0hvCmteUxs720uJ5IlmA+QTQyySI8ZPDYCtjoQa/n61GwudK1C60u9XZcWU8lvMoP3ZImKMAfZgarDYXLMypyVGHK18n/kzPH5lxDkFaDxdVVIS+adt1qk0z+vCivn79lXxhqvjz9nnwN4n1uVp7+fTFguJnOXle0ke3MjHuz+VuJ7k19A18PWpOnUlTlum19x+w4XERr0YV4bSSf3q4UVU+32Hm+T9ph8zps3ru/LOat1nY2TuFFFISAMngCgYtFVYr6ymfyobiKR/7qupP5A1aoBO4UUVBPdW1sA1zKkQPQuwUfqRQBPRTEkSVBJGwdT0ZTkH8RT6ACiiigAooooA//9b9/KKKKACv5TfjL4pn8bfFrxj4ruGLtqWt30yE9ovOZYh9FjCgewr+rBwSjBepBx9a/kW1hJI9Xv45v9Yl1Mr5/vB2B/WvseEYrnqy62X6/wCR+VeKNSSo4eC2bk/uS/zP2x/4JfeDbXTvhZ4l8ctGv2vWtZ+xB8fMLewiQqAfQyTPn6D0r9Oq+Cv+Cb8kT/s02yx/ej1vU1f/AHt6N/6CRX3rXg5zNyxtVvv+R9rwpSjTyjDxj/Kn9+rPlf8AbV8IWvjH9mjxrbzxh5tKsxq9sxHMctgwlLD3MYdT7Ma/mryw5UlWHII6g1/Ut+0XJFD8A/iJJMQEHhjVs597aQD9a/lpr6rhOTeHnF7J/ofmnidTisbRqLdx/Js/RL9tz4ha94m0D4MeIbbUruAa14LhvbmOGeSNHuHMe9mVWAJ3ZGTzXlfwZ/a/8f8AwY+G/izwpotxcXur63cWj6XeXspuYtMVUkW5kRJCwLsPL2LjYCCzA4wX/tLxyxfC74ArMCGPghm5/utcZX9CKp/sU/B/QvjP8c7HQ/FUAutE0izn1e+tm4W5WBkSOJ8fwNLIpcfxKCO9d1Olh44C9aN4xu/ukzycRicfUzxRwk2qk1FX/wAUFf8AO/8AwT5r8R+MPFHjHVJdb8V6xe6xf3DFnuL24eeQk+hYnA9AMAdhXr/wS/aV+KXwN8Q2up+HdXurrSVlU3ui3MzyWV1Dn5lCMSI3xnbIgDA+oyD/AEYeK/g/8N/F/gy88Cap4e00aTdWz26wxWsUYgyuFeHao8t0PKsuCCOK/ld1SxfS9TvNLkbc9ncS27N6mJyhP44pZbmFDMac6Tp2S6b6MOIMkxmQ1qWIhXcnK+qundWvfV33+Z+r/wDwUo8T6X418AfCHxfoj+Zp+tJqF/bMevlXEFo6g46EA4I7Gvjn9i7xl4W8A/tEeHfFPjPU4NI0m0g1FZru5bbEhltJUQE4P3mYAe5rv/j5czXX7In7PMk7FmRPEEQJ/uRXCIo/BVAr5Q+HXw68W/FbxbaeB/A9ot9rN8szwQPNHAGEEbSv88rKgwik8nmqwGHhHL5UJu0ffV/K7Vyc6x1aWe08ZSjzTapSS7vli7fefvf8S/29P2ffBfhy8vfDfiCHxTrAiYWen6ckjrJMR8nmTFRHHGDjcd27HQE8V+A2iaF4q+J3jOLRtAs5NT17xBeuY4IVyXmncu7HsqAkszHhVBJOBX0Prn7DX7UWg2T39x4Kluo4wWZbG8tbuXA9IopWdj7KpPtXAfB747/Ez9nfxHcXnhJbW3nMnk6hZajYxu0nlthoZHZVuYsEYKpImD1GajLcJQw9KbwMlOT7v7tjTP8ANMbj8TSWdU3SprtF9d3q9f07H9Hnwb+HsPwp+Fvhj4eRSCY6Hp0VtLKv3ZJ8b5nHs0rMR7GvwL/ag8V/HK4+OfjDwFrniDX9RSy1a5Fjp0U85iFlM3m23l28WF2mF0wduT35r9vv2b/2gvDn7RPgFfFekQmw1GzkFrq2ms+9rW5xuG1sDfFIPmjbAyMgjcpAt/FP45/A/wCB9y+pePdYsNN1e8iU+RBF5+p3EacLmOFWlKDorPhO2a+UwGKrYXFzU6XNN9Ot779T9MzvLsLmOW0nRxHs6Str0cbWtuvx27H81epeC/iHo1udU1fQNbsYFG83NzZXMKAepkdAB9c17N8Fv2s/jJ8FdWtptL1q51jREcfadF1KZ7i1liz8wjLlmgfHRoyOeoYcV+o2o/8ABTT4Ah5LSLRPEl9buCjMbO2VHU8EbZLkEgjsQK/GH4q6x4O8QfEfxFrvw/spdN8O6hfy3Wn2cyLE8EUuGMexGdVCsWCqGIC4Ar7DC1amLUqeMocq8z8rzPD0MqlDEZVjOeV9baNee9mv61P6LvFv7Sngzw9+zz/w0JZK15pt1YRXFhaFgkk13cMI47ZjztZZsrIRnaFY84r8Afil+0P8YvjPrEt74v8AEF5JBNIfI0uzkeCxhDHCpHAhAbHA3Nuc9ya+nIrfXPEn/BNxzbCSaDw144aSYLk7LRupP+ys10CfTrXxR8OPGUnw78feHvHcNnFqD6BqNvfraznEcxgcNtJwduccNg7Tg4OK5cny6lQVWUVzSUml8tl5HpcV59icW8NSqTcKcoRk7d3u/O3RHSj4NfHOwsl11fBXim3t9vmLcrpl4gC9d24Rgge9fp1/wTS1r4qeItR8Yy+Kte1a/wDD2jW9tYwWWo3Ek0cV9M5dtglLMjRxx4KggYcZHSvdvh3/AMFE/wBn7xkIbbxHcXvhC+kADJqcJktgx7C5g3rt/wBpxH74r6Q+IfxB0Dwr8G/FXxV8J3FleQW+j3mp295ZNHLDczpCRE3mJlXy4Vc5PAx2rycyzLE1abw1ehyuVkn8/wCup9Nw/wAP4DDVlmGDxfPGCba+XXXT0aPz0/bL/bm13wx4gvvhL8F7pbS709jBrGuqA8kc44e2tc5VWj6SSkEhsquCpavy1tdL+LXxZv7nULO18ReMLtW3XE8cd1qTqx5+dgJCD9TXBTT3F/dSXN7MXnuZGkmmkJZmeQ5Z2PUkkknua/fj4X/tWfsbfCrwJo/gTwz4sitrPS7aOJimm3waabaPNmkP2f5pJXyzE9z6Yr2KlNZZQjHC0nOT3aX4v9EfK0Kz4hxlSpmOKVKmtk2lvskm0vV6/ifi14N+KXxi+CHiIv4a1jVvDuoWcgE9hOZEiJHOye0mGxgfRkz6Y61+/H7J/wC0tpv7RvgeW/uYY9P8TaM0cGsWMZPl7nBMdxDklvKl2nAOSrAqScAn84f28vix+zr8aNC0HxL8Ntai1Dxbpt39luNllc27zadKjsd7ywxq3lSquwEkje2OprzL/gnb4svPD37Sem6PFIVtvEen32n3CdmMURuoyR6hocD0DH1rnzHDRxuBeJnT5KiV9tdN/VW2O7IsxqZTnMcvp11VozaWjutdnu7NPRn9ClFFFfAn7WFFFFAH/9f9/KKKKACv5cf2kfBNx8PPjt428LTRmOOLWLm5tsjG61vG+0Qke3lyAfUV/UdX5nf8FBP2YdV+JOl23xd8A2bXmv6HbG31OygXdNe2CEurxqOXlgJb5RyyEgcqAfoOHMdHD4nlqOylp8+h8Px7k9THZep0VeVN3t3XX/P5HFf8EuviPYy6B4r+FF3OqXlvdrrdlExwZIJkSCfb6+W8cZP+/X6zV/JX4O8ZeKfh54msvFvg/UJtK1jTJC8FxFwynlWVlIIZWGVZGBDDIIr9C9N/4Kh/F220pLXUfC2gXt8iBftebiFXYfxNCshGT3Cso9MV6mc8P162IdbD2alv01PnOFOOMHhcDHCY66cNE7Xuv81sfeX7fnxGsPA37O2taO8yrqPi1o9Hs4s/OyOwe5bHXasKsCexZR3FfzyWVjd6ne2+m6fG011dypBBGoyzyysFRQPUsQBXpvxg+NfxC+OXif8A4Sn4g6gLqaJDFa20K+VaWkROSkMWTtBPLMSWY/eJwMfcP/BP/wDZf1bxV4tsfjd4zsnt/DuiP5+ixzoVOoXy8JMoPWGA/MG6NIFxkK1enhKUcqwLlVeu/wA+iR89meJqcTZxCGFi1BWS8le7k/v/ACRg/wDBQvwungmf4SeDo8Y0Twgun5XoTbMkZP4lc1Z/4Jg/8lz1/wD7Fe4/9K7Wun/4Km/8lE8D/wDYFuv/AEoFcx/wTB/5Lnr/AP2K9x/6V2tc6k5ZI5Pdp/md8qcYcYRhHZSS/wDJUfuzX8k/jL/kcNe/7Cl7/wCj3r+tiv5J/GX/ACOGvf8AYUvf/R71w8I/HV+X6nr+KX8LD+sv0Prv45/8mgfs9/73iT/0qWs39gD/AJOn8K/9e+qf+kM1aXxz/wCTQP2e/wDe8Sf+lS18+/Av4t3vwO+Jml/ErT9Oi1WfTEuYxaTSNCji5heE5dQxBUPkcHkV71OnKpgqtOG7c1/5Mz47EYmnh85w1eq7RiqLfooRP6n6/n4/4KO6PoWlftHST6OkcU+paLY3eoLGAM3RaWPewH8TRRxk9z1PWvVdd/4KlfEG7sJIPDvgrSdNu3Uhbi5u5rxUJ/iEYSHJHu2K/Nzxn4z8S/EHxPqHjLxjfyalq+py+dc3MuAWOAAAAAqoigKqqAFUAAV5OQ5NicNXdatorWtff7j6TjbizL8fg1hcI3J3TvZpK3rrc+w/2IvinqPwnb4r+J7ZfOh07wXNqSwNny3vba5iitdw9N9wQe+Ca+Q7m98V/FDxuLnVLuTVfEPiXUI42nuHy01zdSBEyT91dzAADhV4AwMV+m/7LH7J3irVP2dfiPrmtWr2Or+P9FNhoNtcDy5Ps8H7+ORw2Cq3E6ptz/Aobowr8sopNb8JeII5dkunavot6r7ZF2y293ayAgMrDhkdeQe4r2MJUo1MTXlStzKy/D/M+WzXD4rD5fg6eJTVN3dvWX52s16n7T+Ev+CXvwvtdIhXxt4m1rUdUZAZ309oLS2VyORGrwyuVB6FmyeuB0r8m/jx4B0n4W/GDxV8PtCnuLmw0O++zW8t0VaZkMaP85RUUnLY4UV+jvhv/gqfLBo8MPi3wCbrU44wss9hqIhglcDlhHJC7R5643NivzR+MPxC/wCFsfE7xF8RjY/2Z/b139p+yeb53kgIqBfM2pu+7nO0da5MohmKryeM+G2m1r38j0uKa2QSwdNZUlz310d7We7fnY/Zn/gnHpem65+zHqujaxaxXtje+INTgubadBJFLFJBbKyOp4KsDgg1xHxT/wCCYnhPWry41X4T+I5PD5lJddM1GM3dohPO2OZWEyJ6BhKR61498DPj1qf7Pn7ENx4r8PRW1xrd/wCOJrCxivFZ4TmGCWZnVWRiBFGw4YYZga7HQf8Agqmy2ap4o+HvmXQHzSafqeyJj7JLAzKP+BtXk1MPmUcVVr4PZyfb8mfUUsdkE8vw+DzW3MoJp2el/Na/I/P/AOOP7NfxT/Z+u7VPHtlA1jqDvHZ6lYzefaTugyUyQro+3na6KSMkZwa3/gX8RfE9r4M+I3wfiuJp9G8TeF9Tu47MsWSG906L7X5sa/wl4YZEfH3vlJ+6K6X9qL9r3xJ+0mmm6NJo0GgaDpM7XUFqkpuZ5bhkMYkllKoPlRiFVUAG45J4x65/wTr+COo+NviHf/EbWbJj4Y0fT73TvMkUiO7utQha3eFCfvBIJHLkfdJUd696tWnDAOpjklJa/O+nzPisJhaNTO1QyaTdN6XfZr3u2lr7n5zRKryIjuI1ZgC56KCeSfYda/TW2/4JffEy8t4ru18a+HpYZ0WSN1juirI4ypB8voQcivjb9oH4IeJPgJ8RtQ8Ga1DI1g0jzaRfMp8u9sSx8t1boXUYWRequD2IJ+kPgZ/wUH+JXwl8N2fgzxHpdv4u0fTo1gsmnna1vYIUGFi84LIsiIOFDJuAwN2AAKx1TF1aUauXyT+7X7zLJqGWYfFVMLnkGraJ66Nb3t37noH/AA62+Kf/AEOXh/8A793X/wAbr2/9nL9gXx18GvjFoPxI1/xLpGoWej/ama3tEnEztPbyQrguoXAMmTk9BXn2s/8ABVPV5LYr4e+HlvBORw97qbTID7pHBGT/AN9Cvrz9iv8AaS8Q/tE+E/EV14xhtINa0TUlRksUaKH7HdJugwrs7ZVkkUksc4FfPY6vnEMPKWIso7Pbrp0Pu8nwnC1bH06eBu6i95fFa8dep9p0UUV8gfqIUUUUAf/Q/fyiiigAooooA+Ufi9+xf8B/jHfTa3rGkSaPrVwS0upaNILWWZz/ABSxlXhkb1Zoyx7tXy5N/wAEsPAbXG638d6ykGfuPa27vj/fG0f+O1+p+9P7w/Ojen94fnXpUc2xlKPJCo7ff+Z4OL4ZyrEzdStQi5Prt+Vj4Z+G/wDwT1/Z+8BXsOq6tbXvi28gIZP7ZlVrVWHIP2aJI43+km8e1fccEEFrDHbW0axQxKEjjRQqIijAVQOAAOAB0p+5P7w/OnVy4jFVq75q0m/U9DA5bhcHDkwtNRXkvz7nyx+0J+yV4A/aN1TSta8Wanq2nXekW0lrAdPkhVGjkfed6yxSZOehBHFZ37P/AOxz8O/2ePE154t8LarrGo6he2Lae/8AaEkJiELyRyEqsUMZ3boxyWPGeK+uKK0WPxCo+w53y9jF5JgXivrrpL2nfqFfnFrX/BM34NaxrN3q48ReJIPtlxLcSRLLasA0rF2Ck22cZPGc1+jtFThsZXw7boytcvMMpwmOUVi6alba58Z+MP2H/hZ4y+GXhD4W3uqa5b6f4J+2f2dcRTwfaHN84kl87dAUb5h8u1VwPWvn66/4JY/D52Js/HGtxL2EttbSH8wEr9TaK6KWb4ymrQqPv95w4nhfKq8lKrRTdkuuyVls+iR+WVl/wSx+H0cgOo+ONanQdVhtraEn8WEn8q+jfhl+wx+zz8Mb+HWLfRZdf1K3YPFc65KLsRuvRlhCpACDyCYyR2NfYFFFXN8ZUXLOo7fd+Q8LwvlWHkp0qEbr5/ncAABgV8wfGb9kD4I/HC+fW/E+lS6frcgAfVdKkFtcyYGB5oKtFKR6uhbHGcV9P0VxUa9SjLnpSafkeri8HQxVP2WIgpR7NXPyvuv+CWHgJ5i1l461mGLPCy2tvK2P94bB+ldT4d/4Jh/BbTpVl8Ra94g1kL/yyEsFpG318uIv+Tiv0nor0JZ5jmrOo/wPDhwfk0Zcyw6/F/qfLOufsafALW/h1Z/C/wDsS4sdF0+9l1G2+yXs6zx3k6COSYyO772ZFAIcMvHAFfLup/8ABLP4czTs+keNdctISfljngtrggem5Viz+VfqRRWdHNsZSvyVH+f5nTiuGsrxNva0Iu2m1tPlY/OjwT/wTQ+B/h69jvvFOo6x4o8pg32aeVLS1bHZ1gVZCPbzAK+/9A8P6H4V0e18PeGrC30zTLGMRW9paxrFDEg7KqgAep7k8nmtiisMTja+Id602zry/KMFgU1hKajftv8AfucN8Qfhp4E+Kmgv4a+IGi2utaex3LHcL88T9N8UikPG/wDtIyn3r4I8S/8ABMD4QaldPceGvEeu6LGxyIHMN5GnspdFkx/vOx96/S3zI/7w/MUeZH/eH5irw2PxWHVqM2kZZhkuX4582KpKT79fvVmfl7pf/BLX4aQTK+s+M9dvIweUgitrYn/gRSXFfanwV/Z2+F/wBsr61+HdjcQy6p5X226urmS4muPI3eXu3EIu3e2AiqOa9u8yP+8Pzp9ViczxdaPJVm2uxngOHstwc/a4ailJdd397CiiiuA9oKKKKAP/0f38ooooAKKKKAPjz4i6FL4d8T3EUZZba7JuYME4CufmUf7rZH0xXC+ZJ/fb/vo19c/EvwsfEmgM9qm69sczQY6sMfOn/Ah09wK+Q6/SclxyxOGV/ijo/wDP5n4NxZlMsBj5KPwT1j+q+T/Cw/zJP77f99GvrT4aeLh4k0VbW6fOoWIWObPV06JJ+IGD7j3FfJFbfh7Xr3w3q0OrWB+eI4dD92SM/eRvY/ocGrzbL1i6HIviWq/rzMeG88lluLVSWsHpJeXf1X+a6n3LRWNoGvaf4j0yLVNOfdHIMMp+9G46qw7Ef/X6Vs1+azhKEnCSs0fvdKrCrBVKbunqmFFFFSaBRRRQAUUUUAFFFFABRRRQAUUUUAFfPv7QPxJXwd4ZOg6bLt1fWUaNNp+aC2PEknsT91PfJ/hr1Lxz420bwD4fn17WH4QbYIFOJJ5iPljT3Pc9AMk1+XvivxPqvjHXrvxFrMm+5unztH3I0HCxoOyqOB+Z5Jr7rgnhx43ELF11+6g//An29F1+4/GPF/j6GUYF5Zg5f7RVVtPsRe79XtH5vor4Xnz/APPV/wDvo0v2i4/56v8A99GoaVVZmCqCzMQAAMkk9AB61+42R/HHNLue2/AbwlceMPHtrJcl3sNIxfXOSSpZD+6Q/wC8+DjuFNfpNXkPwV8Af8ID4Mht7xNup6gRdXx7q7D5Iv8AtmvH+9uPevXq/n3i/OFmGYSdN+5D3V+r+b/Cx/cvhXwpLI8jhGurVqnvz7q+0fkt/NsKKKK+WP0kKKKKAP/S/fyiiigAooooAK+XPir4MOi6gde0+P8A0G9fMgUcQztyfor9R75HpX1HVPULC01Sym0++jEsE6FHQ9wf5EdQexr0cszCWErKotuq8jxM/wAlp5nhXRlpJaxfZ/5PqfBdFdj408H3vhDUzbyZks5iTbT9mX+63o69x36iuOr9Lo1oVYKpTd0z8CxWFq4arKhWVpLdHV+EfF2o+EdQ+1Wn7yCTAuLcnCyKO49GHY/nxX11oHiHS/EtguoaXKJEPDoeHjb+647H9D2r4arX0TXdV8PXq3+kzmGQcMOqOv8AddehH8u1ePm2Swxa54aT/P1/zPpuG+K6uWv2NX3qT6dV5r/I+6aK5Xwx4jk1jw3Dr+rQppysrOxdwI9i/wDLTLY2qeoz2711IIIBByDyCK/PqtN05unLdH7Zh68K9KNantJJrpoxaKKKg2CiiigAooooAKKKa7rGpdyFVQSSTgADqSaAHVxnjjx54e8AaO2r69PtzlYLdMGadx/Ci9/cngDqawfi14+1D4e+FDr2l6f/AGg8kiwhy2IYDIDtkkx8xUngAYySORX5teJPE+u+LtVk1nxDdvd3UnGW4VF7KijhVHYD+dfbcLcIzzP/AGmtK1JPpu/Ly9X8j8g8SfFKlw9fAYSHNiWrq6fLFPZv+byS07tbPc+IHxB1z4ia42r6u2yJMra2qHMdvGew9WP8TdSfQAAcLRRX7hh8PToU40aMbRWiSP45x2OxGNxE8VipuVSTu292/wCvu2QV9Q/s5/C9te1VfHGtRf8AEu06T/Q0ccT3K/x47pEfzfH9015r8JvhdqPxJ1sRkPBpFoyte3QGOOoijPeRh/3yOT2B/S/TNNsdH0+30rTIUt7S1jWKGJBhVRRgD/6/U18DxvxMsNSeAwz/AHkt3/Kv83+C+R+2+Dvh3LMMTHO8wj+4g/cT+3Jdf8MX9706MvUUUV+Ln9cBRRRQAUUUUAf/0/38ooooAKKKKACiiigDK1rRdO1/T5NM1OISQyD6MrDoynsw7Gvkfxj4K1PwhebZwZrKRv3FyB8rf7Lf3X9u/avs2qt7Y2mpWsllfwpPBKNrxuMgivWyvNqmDlbeL3X6o+a4h4aoZnTv8NRbS/R+X5fn8E12XgbwtJ4r12OzYEWkOJbpx2jB+6D6ueB7ZPauz8Y/CXUNMZ77w2r3tqTk2/WeP6f31/8AHvr1r0bT00b4Q/D2+8Qa84jWzt3vr+QdWdRxGvqc4RR3Y+9fUZln1CnhHVoy1f4d2/Q/Osn4SxDzD2eOhaENW+jXRJ+fXyv1Plj9tb4pRaLoNn8JNCkCTakiXGpCPjy7KM4ih46ea65I/upjo1fIHw3/AGjfip8MhFaaTqZ1DTI8AadqObiAKO0bZEkY9kYD2rzTxx4w1Xx94t1TxhrTZutTuGmK5yIk6Rxr/sxoAo9hXK1/NOPzitWxksTTk10Xp/WrPexmZ1amJdek2uit2P1N8F/ty+BNUWO38baVeaFOcBpoB9stc9z8oWVR7bG+tfS3h34z/CnxWqnQvFWl3DN0ie4WGX/v3KUf/wAdr8HKQqG4YA/WvRw3FmLgrVUpfg/w0/A76HE2JgrVEpfg/wCvkf0WRTQ3CCSCRZEPRkIYH8RUtfzuWup6nY4+w3lxbY6eTM8f/oJFav8AwmHi8rs/t7VNuMY+2z4x/wB916MeMo21pfj/AMA71xXHrT/H/gH9BE9xb2sZluZUiQdWdgoH4mvMvEfxu+EnhNWOueK9MidesUU63E308uHe+fwr8LrrUdQvjm+up7kn/ntK0n/oRNUgAowBj6VjV4xm1+7pJerv/kZVOKpv+HT+93/yP1F8aft0+DtOWS38C6Nd6xOAQtxdkWdsD2O35pWHsVT618SfEj9oH4ofFASWuv6q1tprk/8AEtsAbe1x6OAS8v8A20ZvpXi1FeDjM7xmJXLUnZdlov8Ag/M8XF5visQrTlp2WiP1t/Zf8fWHxe+E1z4C8UkXN9osI066Vz881k4It5cnncoGwnqGQN1Ir5c8c+ENQ8C+J7zw5qGWNu26GXGBNA3Mcg+o6+jAjtXiXwO+Jk/wo+I2m+Jyzf2e7fZNSjX+OzmIDnHcxkCRfdcd6/Uz48eAIfH/AIQh8TaAoudQ02L7RbtF832q0cbmRcfe4+dMdTkD71ft/hLxf7KSwuIl7rsn5P7Mv0f39D5HxC4Y/wBYcj+t0FfE4dfOUOq831XmmvtH55V6z8LvhLrnxJvw6BrPR4Hxc3rDg46xxA8M/wCi9T2B9Q+F/wCzhqOsNDrXjxXsLHh0sAdtxMO3mHrEp9Pvn/Zr7e07TrDSbKHTdMgjtbW3QJFDEoVEUdgBX6lxNxxSwyeGy981TrLovTu/w/I+E8PPBvE4+UcwzyLhR3UNpT9esY/+TPpbcoeHPDmj+E9Ht9C0K3W2tLZcKo5LE9WY9WZjySetblFFfjdSpKpJzm7t7s/rGhQp0KcaNGKjGKsktEktkkFFFFQahRRRQAUUUUAf/9T9/KKKKACiiigAooooAKKKKACvMvi38MdO+Lng+bwhqd/d6dE8qTrLasP9ZFkoJEYESICcleOQDkEV6bRWdWlCpB05q6ZFSnGpFwmrpn4z/Eb9lH4r+AWlu7Ky/wCEj0xMkXWmKXlVfWS35kU467d6j1r5pkR4pGhlVkkQ7WRgVZSOxB5B+tf0XV534y+Evw3+ICn/AIS7w/ZX8pGBcGPy7kfSaPbIP++sV8hjOEISfNhp28n/AJ7/AJny2L4Xg9cPK3k/8/8Ahz8E6K/UrxP+wp4Dv2aXwprmo6OxyRFOEvYQfQZ8uTH1c14brX7C/wATbIs2i6xpGpIPuh2ltZD+BR1/8er56tw7j6f2L+jv/wAE8KtkWNp/Yv6f1c+J6K+lrz9kX49WhIXQYbkDvBfW5B/76dT+lZf/AAyx8e/+hUl/8C7X/wCPVwvLMYt6Uvuf+RyPLsUt6cvuZ8+0V9MWf7IXx5uyA+hwWwP8U99bgD8Edz+lei6J+wr8SLwq2u63pOmofvCLzbqQfhtjX/x6taeTY6btGk/mrfmaQyrGT0VN/db8z4iqSGGa5mS2to3mmkO1I41LOxPYKAST9K/U7wv+wv8ADzTWWXxTq+o624wTHHtsoT7EJvkx9JBX1F4P+F/w+8ARhPCGg2WmtjBmjiDTt/vTPukb8Wr18Nwlipu9ZqK+9/5fieph+GcRPWq1Ffe/8vxPyv8Ahx+yP8U/HLRXmsWw8MaW+CZ9QU/aGX/pnbAh846bygr9XPAHhCLwD4O0rwfBfXOoxaVAII7i7KmVlBJAO0ABVB2qOygDJxmuwor7DLMmw+Cu6d3J7tn1OX5VQwmtPVvqwooor1j0wooooAKKKKACiiigAooooA//1f38ooooAKKKKACiiigAooooAKKKKACiiigAooooAKKKKACiiigAooooAKKKKACiiigAooooAKKKKACiiigAooooA//W/fyiiigAooooAKKKKACiiigAooooAKKKKACiiigAooooAKKKKACiiigAooooAKKKKACiiigAooooAKKKKACiiigD/9k=" parent="1" vertex="1">
          <mxGeometry x="63.14999999999998" y="1090" width="40" height="40" as="geometry" />
        </mxCell>
        <mxCell id="huZJwnv4xgB_R8jsP4eI-68" style="edgeStyle=orthogonalEdgeStyle;rounded=0;orthogonalLoop=1;jettySize=auto;html=1;startArrow=classic;startFill=1;" parent="1" source="huZJwnv4xgB_R8jsP4eI-73" target="huZJwnv4xgB_R8jsP4eI-28" edge="1">
          <mxGeometry relative="1" as="geometry">
            <Array as="points">
              <mxPoint x="190" y="930" />
            </Array>
          </mxGeometry>
        </mxCell>
        <mxCell id="huZJwnv4xgB_R8jsP4eI-69" value="&lt;div style=&quot;&quot;&gt;&lt;br&gt;&lt;/div&gt;" style="outlineConnect=0;dashed=0;verticalLabelPosition=top;verticalAlign=bottom;align=center;html=1;shape=mxgraph.aws3.maintenance_window;fillColor=#bac8d3;strokeColor=#23445d;labelPosition=center;" parent="1" vertex="1">
          <mxGeometry x="160.14999999999998" y="1150" width="60" height="63" as="geometry" />
        </mxCell>
        <mxCell id="huZJwnv4xgB_R8jsP4eI-70" value="Proceso DIP" style="text;html=1;align=center;verticalAlign=middle;whiteSpace=wrap;rounded=0;" parent="1" vertex="1">
          <mxGeometry x="160" y="1213" width="60" height="30" as="geometry" />
        </mxCell>
        <mxCell id="huZJwnv4xgB_R8jsP4eI-71" value="" style="edgeStyle=orthogonalEdgeStyle;rounded=0;orthogonalLoop=1;jettySize=auto;html=1;startArrow=classic;startFill=1;" parent="1" source="huZJwnv4xgB_R8jsP4eI-69" target="huZJwnv4xgB_R8jsP4eI-73" edge="1">
          <mxGeometry relative="1" as="geometry">
            <mxPoint x="190" y="1150" as="sourcePoint" />
            <mxPoint x="190" y="492" as="targetPoint" />
            <Array as="points">
              <mxPoint x="190" y="930" />
            </Array>
          </mxGeometry>
        </mxCell>
        <mxCell id="huZJwnv4xgB_R8jsP4eI-72" value="Cargue DIP" style="edgeLabel;html=1;align=center;verticalAlign=middle;resizable=0;points=[];" parent="huZJwnv4xgB_R8jsP4eI-71" vertex="1" connectable="0">
          <mxGeometry x="0.0585" y="2" relative="1" as="geometry">
            <mxPoint as="offset" />
          </mxGeometry>
        </mxCell>
        <mxCell id="huZJwnv4xgB_R8jsP4eI-73" value="Documentos &lt;br&gt;Soporte" style="shape=image;html=1;verticalAlign=top;verticalLabelPosition=bottom;labelBackgroundColor=none;imageAspect=0;aspect=fixed;image=https://cdn1.iconfinder.com/data/icons/bootstrap-vol-3/16/images-128.png" parent="1" vertex="1">
          <mxGeometry x="172.66000000000003" y="770.5" width="34.99" height="34.99" as="geometry" />
        </mxCell>
        <mxCell id="huZJwnv4xgB_R8jsP4eI-76" value="1" style="ellipse;whiteSpace=wrap;html=1;aspect=fixed;fillColor=#d5e8d4;gradientColor=#97d077;strokeColor=#82b366;fontStyle=1;fontSize=15;" parent="1" vertex="1">
          <mxGeometry y="56" width="30" height="30" as="geometry" />
        </mxCell>
        <mxCell id="huZJwnv4xgB_R8jsP4eI-77" value="10" style="ellipse;whiteSpace=wrap;html=1;aspect=fixed;fillColor=#d5e8d4;gradientColor=#97d077;strokeColor=#82b366;fontStyle=1;fontSize=15;" parent="1" vertex="1">
          <mxGeometry x="-5" y="294.47" width="30" height="30" as="geometry" />
        </mxCell>
        <mxCell id="huZJwnv4xgB_R8jsP4eI-78" value="3" style="ellipse;whiteSpace=wrap;html=1;aspect=fixed;fillColor=#d5e8d4;gradientColor=#97d077;strokeColor=#82b366;fontStyle=1;fontSize=15;" parent="1" vertex="1">
          <mxGeometry x="305" y="207.80000000000004" width="30" height="30" as="geometry" />
        </mxCell>
        <mxCell id="huZJwnv4xgB_R8jsP4eI-79" value="4" style="ellipse;whiteSpace=wrap;html=1;aspect=fixed;fillColor=#d5e8d4;gradientColor=#97d077;strokeColor=#82b366;fontStyle=1;fontSize=15;" parent="1" vertex="1">
          <mxGeometry x="470" y="231.8" width="30" height="30" as="geometry" />
        </mxCell>
        <mxCell id="huZJwnv4xgB_R8jsP4eI-80" value="5" style="ellipse;whiteSpace=wrap;html=1;aspect=fixed;fillColor=#d5e8d4;gradientColor=#97d077;strokeColor=#82b366;fontStyle=1;fontSize=15;" parent="1" vertex="1">
          <mxGeometry x="709" y="264.47" width="30" height="30" as="geometry" />
        </mxCell>
        <mxCell id="huZJwnv4xgB_R8jsP4eI-81" value="6" style="ellipse;whiteSpace=wrap;html=1;aspect=fixed;fillColor=#d5e8d4;gradientColor=#97d077;strokeColor=#82b366;fontStyle=1;fontSize=15;" parent="1" vertex="1">
          <mxGeometry x="931" y="266.94000000000005" width="30" height="30" as="geometry" />
        </mxCell>
        <mxCell id="huZJwnv4xgB_R8jsP4eI-82" value="7" style="ellipse;whiteSpace=wrap;html=1;aspect=fixed;fillColor=#d5e8d4;gradientColor=#97d077;strokeColor=#82b366;fontStyle=1;fontSize=15;" parent="1" vertex="1">
          <mxGeometry x="1191" y="385.2900000000001" width="30" height="30" as="geometry" />
        </mxCell>
        <mxCell id="huZJwnv4xgB_R8jsP4eI-83" value="8" style="ellipse;whiteSpace=wrap;html=1;aspect=fixed;fillColor=#d5e8d4;gradientColor=#97d077;strokeColor=#82b366;fontStyle=1;fontSize=15;" parent="1" vertex="1">
          <mxGeometry x="1191" y="190.00000000000009" width="30" height="30" as="geometry" />
        </mxCell>
        <mxCell id="huZJwnv4xgB_R8jsP4eI-84" value="9" style="ellipse;whiteSpace=wrap;html=1;aspect=fixed;fillColor=#d5e8d4;gradientColor=#97d077;strokeColor=#82b366;fontStyle=1;fontSize=15;" parent="1" vertex="1">
          <mxGeometry x="1285" y="261.0000000000001" width="30" height="30" as="geometry" />
        </mxCell>
        <mxCell id="huZJwnv4xgB_R8jsP4eI-87" value="11" style="ellipse;whiteSpace=wrap;html=1;aspect=fixed;fillColor=#d5e8d4;gradientColor=#97d077;strokeColor=#82b366;fontStyle=1;fontSize=15;" parent="1" vertex="1">
          <mxGeometry x="177.64999999999998" y="709" width="30" height="30" as="geometry" />
        </mxCell>
        <mxCell id="SnG9jonRf3vybcfvU0O0-2" style="edgeStyle=orthogonalEdgeStyle;rounded=0;orthogonalLoop=1;jettySize=auto;html=1;" edge="1" parent="1" source="SnG9jonRf3vybcfvU0O0-1" target="huZJwnv4xgB_R8jsP4eI-64">
          <mxGeometry relative="1" as="geometry" />
        </mxCell>
        <mxCell id="SnG9jonRf3vybcfvU0O0-1" value="Usuairo Soporte" style="shape=umlActor;verticalLabelPosition=bottom;verticalAlign=top;html=1;outlineConnect=0;" vertex="1" parent="1">
          <mxGeometry x="1950" y="261" width="30" height="60" as="geometry" />
        </mxCell>
      </root>
    </mxGraphModel>
  </diagram>
</mxfile>
